M48
; DRILL file {KiCad 5.1.6+dfsg1-1} date Thu Apr 29 08:47:58 2021
; FORMAT={-:-/ absolute / inch / decimal}
; #@! TF.CreationDate,2021-04-29T08:47:58+10:00
; #@! TF.GenerationSoftware,Kicad,Pcbnew,5.1.6+dfsg1-1
; #@! TF.FileFunction,Plated,1,2,PTH
FMAT,2
INCH
T1C0.0157
T2C0.0394
T3C0.0400
T4C0.0787
T5C0.1181
T6C0.1575
%
G90
G05
T1
X2.4016Y-3.4252
X2.4016Y-4.8819
X2.4213Y-3.7992
X2.4213Y-4.5276
X2.4213Y-5.9646
X2.4606Y-5.689
X2.7362Y-5.9843
X2.7756Y-3.6024
X2.7756Y-4.7047
X2.7756Y-6.2303
X2.9134Y-6.2598
X3.0315Y-3.3858
X3.1496Y-4.4882
X3.248Y-3.8386
X3.2874Y-4.4291
X3.3268Y-5.2362
X3.3268Y-5.6102
X3.3465Y-3.9567
X3.3465Y-5.8661
X3.3858Y-3.5827
X3.3858Y-5.0
X3.4252Y-4.6063
X3.4449Y-3.3858
X3.4646Y-6.2992
X3.5925Y-5.2362
X3.5984Y-2.8543
X3.5984Y-4.3661
X3.6024Y-3.3268
X3.6024Y-4.7638
X3.6063Y-3.0591
X3.622Y-5.4528
X3.6378Y-3.689
X3.6535Y-4.0591
X3.6811Y-5.9843
X3.7598Y-2.7953
X3.7992Y-3.0315
X3.7992Y-4.5866
X3.7992Y-4.9803
X3.7992Y-5.2165
X3.8287Y-4.2323
X3.8661Y-4.3819
X3.878Y-3.3465
X3.9173Y-4.6555
X3.9213Y-5.8386
X3.9528Y-3.3898
X3.9528Y-3.6969
X3.9567Y-4.7441
X3.9685Y-5.7047
X3.9843Y-5.0748
X3.9961Y-4.1142
X4.0039Y-2.7126
X4.0079Y-2.7717
X4.0197Y-2.9173
X4.0354Y-3.3268
X4.0354Y-3.4252
X4.0354Y-3.6811
X4.0472Y-4.9882
X4.0551Y-3.8543
X4.0866Y-4.3346
X4.0866Y-4.5079
X4.0945Y-4.6654
X4.0945Y-5.5236
X4.0945Y-5.7677
X4.0945Y-6.0236
X4.1024Y-2.7283
X4.1339Y-3.4252
X4.1339Y-4.7244
X4.1535Y-3.7008
X4.1634Y-4.9705
X4.1654Y-2.8504
X4.1732Y-2.7362
X4.1732Y-4.5
X4.1732Y-6.3091
X4.2047Y-3.0118
X4.2047Y-4.0276
X4.2262Y-3.2344
X4.2283Y-4.6339
X4.2323Y-4.7539
X4.2402Y-2.7835
X4.2441Y-2.7402
X4.2717Y-5.3937
X4.2815Y-5.0492
X4.311Y-3.2087
X4.311Y-3.3465
X4.311Y-4.2421
X4.311Y-4.7146
X4.3228Y-5.7441
X4.3504Y-4.8622
X4.3799Y-2.6969
X4.3898Y-5.5709
X4.4291Y-3.6024
X4.4567Y-5.1457
X4.4724Y-5.7598
X4.4922Y-2.5846
X4.5079Y-4.7244
X4.5276Y-3.0315
X4.5276Y-3.2874
X4.5315Y-2.7598
X4.5512Y-3.9803
X4.5866Y-4.4488
X4.6063Y-5.626
X4.6063Y-5.9843
X4.6181Y-2.7283
X4.622Y-2.7992
X4.6378Y-3.3976
X4.7343Y-6.3386
X4.748Y-2.5236
X4.8327Y-4.8327
X4.8425Y-4.0453
X4.8425Y-5.7677
X4.8504Y-2.7598
X4.872Y-3.5433
X5.3543Y-2.5157
X5.3839Y-3.8091
X5.5217Y-5.6496
X5.6535Y-2.7913
T2
X3.6402Y-5.311
X3.6402Y-5.7126
X4.9606Y-2.7392
X5.0787Y-2.7392
X5.1969Y-2.7392
X5.315Y-2.7392
X5.4331Y-2.7392
X3.9874Y-3.5074
X3.9874Y-3.6074
X4.0874Y-3.5074
X4.0874Y-3.6074
X4.1874Y-3.5074
X4.1874Y-3.6074
X4.0414Y-5.122
X4.0414Y-5.222
X4.1414Y-5.122
X4.1414Y-5.222
X4.2414Y-5.122
X4.2414Y-5.222
X3.6402Y-3.1457
X3.6402Y-3.5472
X3.6402Y-4.2283
X3.6402Y-4.6299
X4.5882Y-3.1457
X4.5882Y-3.5472
X4.5882Y-5.311
X4.5882Y-5.7126
X4.5882Y-4.2283
X4.5882Y-4.6299
T3
X2.7362Y-2.5378
X2.7362Y-2.6378
X2.8362Y-2.5378
X2.8362Y-2.6378
X2.9362Y-2.5378
X2.9362Y-2.6378
X3.0362Y-2.5378
X3.0362Y-2.6378
X3.1362Y-2.5378
X3.1362Y-2.6378
X3.2362Y-2.5378
X3.2362Y-2.6378
X3.3362Y-2.5378
X3.3362Y-2.6378
X3.4362Y-2.5378
X3.4362Y-2.6378
X3.5362Y-2.5378
X3.5362Y-2.6378
X3.6362Y-2.5378
X3.6362Y-2.6378
X3.7362Y-2.5378
X3.7362Y-2.6378
X3.8362Y-2.5378
X3.8362Y-2.6378
X3.9362Y-2.5378
X3.9362Y-2.6378
X4.0362Y-2.5378
X4.0362Y-2.6378
X4.1362Y-2.5378
X4.1362Y-2.6378
X4.2362Y-2.5378
X4.2362Y-2.6378
X4.3362Y-2.5378
X4.3362Y-2.6378
X4.4362Y-2.5378
X4.4362Y-2.6378
X4.5362Y-2.5378
X4.5362Y-2.6378
X4.6362Y-2.5378
X4.6362Y-2.6378
T4
X3.0417Y-2.9961
X3.1402Y-3.6969
X3.0417Y-4.0787
X3.1402Y-4.7795
X5.0882Y-2.9961
X5.1866Y-3.6969
X5.0882Y-5.1614
X5.1866Y-5.8622
X5.0882Y-4.0787
X5.1866Y-4.7795
X3.0417Y-5.1614
X3.1402Y-5.8622
T5
X2.4606Y-6.2205
X2.4606Y-2.6181
X5.8268Y-2.6181
X2.4409Y-5.1575
X5.8268Y-6.2205
X2.4409Y-2.9921
X2.4409Y-4.0748
T6
X5.8071Y-5.2559
X5.8071Y-4.1732
X5.2953Y-6.2205
X3.2283Y-6.2205
X5.8071Y-3.0906
T0
M30
