M48
;DRILL file {KiCad 5.0.2-bee76a0~70~ubuntu18.04.1} date Thu 19 Dec 2019 09:11:38 AEDT
;FORMAT={-:-/ absolute / metric / decimal}
FMAT,2
METRIC,TZ
T1C0.400
T2C1.000
T3C1.016
T4C2.000
T5C3.000
T6C4.000
%
G90
G05
T1
X60.Y-70.5
X60.5Y-82.
X60.5Y-111.
X60.5Y-138.
X61.Y-87.
X61.Y-124.
X61.5Y-96.5
X61.5Y-115.
X61.5Y-151.5
X62.5Y-144.5
X69.Y-70.5
X69.5Y-78.
X69.5Y-137.
X69.5Y-152.
X70.Y-82.
X70.Y-133.5
X70.5Y-91.5
X70.5Y-119.5
X70.5Y-128.5
X74.Y-159.
X77.Y-86.
X78.Y-110.5
X78.5Y-137.5
X80.Y-82.5
X80.Y-114.
X82.5Y-97.5
X83.5Y-112.5
X84.5Y-133.
X84.5Y-142.5
X85.Y-100.5
X85.Y-149.
X86.Y-91.
X86.Y-127.
X87.Y-117.
X87.5Y-86.
X88.Y-160.
X90.5Y-78.5
X91.Y-100.5
X91.Y-121.
X91.5Y-84.5
X92.Y-138.5
X93.5Y-152.
X95.Y-98.
X95.5Y-71.
X96.5Y-77.
X96.5Y-126.5
X96.5Y-132.5
X98.5Y-85.
X101.5Y-104.5
X101.7Y-68.9
X101.8Y-70.4
X102.1Y-74.1
X102.5Y-84.5
X102.5Y-87.
X102.5Y-93.5
X103.5Y-110.
X104.Y-153.
X105.Y-87.
X105.Y-120.
X105.5Y-94.
X105.8Y-72.4
X107.7Y-70.7
X107.8Y-69.6
X108.5Y-137.
X111.5Y-141.5
X112.Y-106.
X112.5Y-91.5
X114.5Y-120.
X115.Y-77.
X115.Y-83.5
X115.1Y-70.1
X116.5Y-113.
X117.Y-152.
X117.3Y-69.3
X117.4Y-71.1
X124.Y-85.5
X124.Y-98.
X124.Y-143.
X124.2Y-64.2
X124.5Y-110.5
X124.5Y-129.
X124.5Y-138.
X125.Y-115.
X125.5Y-82.
X125.5Y-161.
X126.Y-125.
X127.5Y-70.
X135.6Y-67.
X136.2Y-71.5
X136.5Y-119.
X137.Y-86.
X137.Y-110.5
X137.5Y-137.5
X138.Y-129.5
X138.Y-146.5
X139.Y-81.
X139.Y-96.
X139.Y-103.5
X139.Y-156.
X141.8Y-68.5
X148.Y-70.5
X150.Y-124.5
X150.5Y-161.
X150.7Y-63.9
X151.Y-85.5
X151.Y-101.5
X151.Y-110.5
X151.Y-128.
X151.5Y-98.
T2
X116.54Y-107.4
X116.54Y-117.6
X102.652Y-130.099
X102.652Y-132.639
X105.192Y-130.099
X105.192Y-132.639
X107.732Y-130.099
X107.732Y-132.639
X92.46Y-107.4
X92.46Y-117.6
X126.Y-69.575
X129.Y-69.575
X132.Y-69.575
X135.Y-69.575
X138.Y-69.575
X116.54Y-134.9
X116.54Y-145.1
X92.46Y-134.9
X92.46Y-145.1
X101.281Y-89.087
X101.281Y-91.627
X103.821Y-89.087
X103.821Y-91.627
X106.361Y-89.087
X106.361Y-91.627
X116.54Y-79.9
X116.54Y-90.1
X92.46Y-79.9
X92.46Y-90.1
T3
X69.5Y-64.46
X69.5Y-67.
X72.04Y-64.46
X72.04Y-67.
X74.58Y-64.46
X74.58Y-67.
X77.12Y-64.46
X77.12Y-67.
X79.66Y-64.46
X79.66Y-67.
X82.2Y-64.46
X82.2Y-67.
X84.74Y-64.46
X84.74Y-67.
X87.28Y-64.46
X87.28Y-67.
X89.82Y-64.46
X89.82Y-67.
X92.36Y-64.46
X92.36Y-67.
X94.9Y-64.46
X94.9Y-67.
X97.44Y-64.46
X97.44Y-67.
X99.98Y-64.46
X99.98Y-67.
X102.52Y-64.46
X102.52Y-67.
X105.06Y-64.46
X105.06Y-67.
X107.6Y-64.46
X107.6Y-67.
X110.14Y-64.46
X110.14Y-67.
X112.68Y-64.46
X112.68Y-67.
X115.22Y-64.46
X115.22Y-67.
X117.76Y-64.46
X117.76Y-67.
T4
X129.24Y-103.6
X131.74Y-121.4
X77.26Y-103.6
X79.76Y-121.4
X129.24Y-131.1
X131.74Y-148.9
X77.26Y-131.1
X79.76Y-148.9
X129.24Y-76.1
X131.74Y-93.9
X77.26Y-76.1
X79.76Y-93.9
T5
X148.Y-66.5
X148.Y-158.
X62.5Y-158.
X62.Y-103.5
X62.Y-76.
X62.Y-131.
X62.5Y-66.5
T6
X82.Y-158.
X147.5Y-78.5
X147.5Y-133.5
X147.5Y-91.5
X147.5Y-106.
X147.5Y-119.
X147.5Y-146.5
T0
M30
