G04 #@! TF.GenerationSoftware,KiCad,Pcbnew,5.1.6+dfsg1-1*
G04 #@! TF.CreationDate,2021-04-29T08:47:55+10:00*
G04 #@! TF.ProjectId,BatProtect,42617450-726f-4746-9563-742e6b696361,rev?*
G04 #@! TF.SameCoordinates,Original*
G04 #@! TF.FileFunction,Soldermask,Bot*
G04 #@! TF.FilePolarity,Negative*
%FSLAX45Y45*%
G04 Gerber Fmt 4.5, Leading zero omitted, Abs format (unit mm)*
G04 Created by KiCad (PCBNEW 5.1.6+dfsg1-1) date 2021-04-29 08:47:55*
%MOMM*%
%LPD*%
G01*
G04 APERTURE LIST*
%ADD10C,0.100000*%
%ADD11C,0.150000*%
%ADD12C,0.300000*%
%ADD13C,0.400000*%
G04 APERTURE END LIST*
D10*
D11*
X17700220Y-16600720D02*
X17700220Y-19800720D01*
X28500220Y-19800720D01*
X28500220Y-16600720D01*
X17700220Y-16600720D01*
D10*
D11*
X1000000Y-1000000D02*
X1000000Y-20000720D01*
X28700220Y-20000720D01*
X28700220Y-1000000D01*
X1000000Y-1000000D01*
D10*
D11*
X1200000Y-1200000D02*
X1200000Y-19800720D01*
X28500220Y-19800720D01*
X28500220Y-1200000D01*
X1200000Y-1200000D01*
D10*
D11*
X6000000Y-1200000D02*
X6000000Y-1000000D01*
D10*
D11*
X11000000Y-1200000D02*
X11000000Y-1000000D01*
D10*
D11*
X16000000Y-1200000D02*
X16000000Y-1000000D01*
D10*
D11*
X21000000Y-1200000D02*
X21000000Y-1000000D01*
D10*
D11*
X26000000Y-1200000D02*
X26000000Y-1000000D01*
D10*
D11*
X3606548Y-1158810D02*
X3532262Y-1158810D01*
X3569405Y-1158810D02*
X3569405Y-1028809D01*
X3557024Y-1047381D01*
X3544643Y-1059762D01*
X3532262Y-1065952D01*
D10*
D11*
X8532262Y-1041190D02*
X8538452Y-1035000D01*
X8550833Y-1028809D01*
X8581786Y-1028809D01*
X8594167Y-1035000D01*
X8600357Y-1041190D01*
X8606548Y-1053571D01*
X8606548Y-1065952D01*
X8600357Y-1084524D01*
X8526071Y-1158810D01*
X8606548Y-1158810D01*
D10*
D11*
X13526071Y-1028809D02*
X13606548Y-1028809D01*
X13563214Y-1078333D01*
X13581786Y-1078333D01*
X13594167Y-1084524D01*
X13600357Y-1090714D01*
X13606548Y-1103095D01*
X13606548Y-1134048D01*
X13600357Y-1146429D01*
X13594167Y-1152619D01*
X13581786Y-1158810D01*
X13544643Y-1158810D01*
X13532262Y-1152619D01*
X13526071Y-1146429D01*
D10*
D11*
X18594167Y-1072143D02*
X18594167Y-1158810D01*
X18563214Y-1022619D02*
X18532262Y-1115476D01*
X18612738Y-1115476D01*
D10*
D11*
X23600357Y-1028809D02*
X23538452Y-1028809D01*
X23532262Y-1090714D01*
X23538452Y-1084524D01*
X23550833Y-1078333D01*
X23581786Y-1078333D01*
X23594167Y-1084524D01*
X23600357Y-1090714D01*
X23606548Y-1103095D01*
X23606548Y-1134048D01*
X23600357Y-1146429D01*
X23594167Y-1152619D01*
X23581786Y-1158810D01*
X23550833Y-1158810D01*
X23538452Y-1152619D01*
X23532262Y-1146429D01*
D10*
D11*
X28594167Y-1028809D02*
X28569405Y-1028809D01*
X28557024Y-1035000D01*
X28550833Y-1041190D01*
X28538452Y-1059762D01*
X28532262Y-1084524D01*
X28532262Y-1134048D01*
X28538452Y-1146429D01*
X28544643Y-1152619D01*
X28557024Y-1158810D01*
X28581786Y-1158810D01*
X28594167Y-1152619D01*
X28600357Y-1146429D01*
X28606548Y-1134048D01*
X28606548Y-1103095D01*
X28600357Y-1090714D01*
X28594167Y-1084524D01*
X28581786Y-1078333D01*
X28557024Y-1078333D01*
X28544643Y-1084524D01*
X28538452Y-1090714D01*
X28532262Y-1103095D01*
D10*
D11*
X6000000Y-19800720D02*
X6000000Y-20000720D01*
D10*
D11*
X11000000Y-19800720D02*
X11000000Y-20000720D01*
D10*
D11*
X16000000Y-19800720D02*
X16000000Y-20000720D01*
D10*
D11*
X21000000Y-19800720D02*
X21000000Y-20000720D01*
D10*
D11*
X26000000Y-19800720D02*
X26000000Y-20000720D01*
D10*
D11*
X3606548Y-19959530D02*
X3532262Y-19959530D01*
X3569405Y-19959530D02*
X3569405Y-19829530D01*
X3557024Y-19848101D01*
X3544643Y-19860482D01*
X3532262Y-19866672D01*
D10*
D11*
X8532262Y-19841910D02*
X8538452Y-19835720D01*
X8550833Y-19829530D01*
X8581786Y-19829530D01*
X8594167Y-19835720D01*
X8600357Y-19841910D01*
X8606548Y-19854291D01*
X8606548Y-19866672D01*
X8600357Y-19885244D01*
X8526071Y-19959530D01*
X8606548Y-19959530D01*
D10*
D11*
X13526071Y-19829530D02*
X13606548Y-19829530D01*
X13563214Y-19879053D01*
X13581786Y-19879053D01*
X13594167Y-19885244D01*
X13600357Y-19891434D01*
X13606548Y-19903815D01*
X13606548Y-19934768D01*
X13600357Y-19947149D01*
X13594167Y-19953339D01*
X13581786Y-19959530D01*
X13544643Y-19959530D01*
X13532262Y-19953339D01*
X13526071Y-19947149D01*
D10*
D11*
X18594167Y-19872863D02*
X18594167Y-19959530D01*
X18563214Y-19823339D02*
X18532262Y-19916196D01*
X18612738Y-19916196D01*
D10*
D11*
X23600357Y-19829530D02*
X23538452Y-19829530D01*
X23532262Y-19891434D01*
X23538452Y-19885244D01*
X23550833Y-19879053D01*
X23581786Y-19879053D01*
X23594167Y-19885244D01*
X23600357Y-19891434D01*
X23606548Y-19903815D01*
X23606548Y-19934768D01*
X23600357Y-19947149D01*
X23594167Y-19953339D01*
X23581786Y-19959530D01*
X23550833Y-19959530D01*
X23538452Y-19953339D01*
X23532262Y-19947149D01*
D10*
D11*
X28594167Y-19829530D02*
X28569405Y-19829530D01*
X28557024Y-19835720D01*
X28550833Y-19841910D01*
X28538452Y-19860482D01*
X28532262Y-19885244D01*
X28532262Y-19934768D01*
X28538452Y-19947149D01*
X28544643Y-19953339D01*
X28557024Y-19959530D01*
X28581786Y-19959530D01*
X28594167Y-19953339D01*
X28600357Y-19947149D01*
X28606548Y-19934768D01*
X28606548Y-19903815D01*
X28600357Y-19891434D01*
X28594167Y-19885244D01*
X28581786Y-19879053D01*
X28557024Y-19879053D01*
X28544643Y-19885244D01*
X28538452Y-19891434D01*
X28532262Y-19903815D01*
D10*
D11*
X1000000Y-6000000D02*
X1200000Y-6000000D01*
D10*
D11*
X1000000Y-11000000D02*
X1200000Y-11000000D01*
D10*
D11*
X1000000Y-16000000D02*
X1200000Y-16000000D01*
D10*
D11*
X1069048Y-3521667D02*
X1130952Y-3521667D01*
X1056667Y-3558809D02*
X1100000Y-3428809D01*
X1143333Y-3558809D01*
D10*
D11*
X1109286Y-8490714D02*
X1127857Y-8496905D01*
X1134048Y-8503095D01*
X1140238Y-8515476D01*
X1140238Y-8534048D01*
X1134048Y-8546429D01*
X1127857Y-8552619D01*
X1115476Y-8558810D01*
X1065952Y-8558810D01*
X1065952Y-8428810D01*
X1109286Y-8428810D01*
X1121667Y-8435000D01*
X1127857Y-8441190D01*
X1134048Y-8453571D01*
X1134048Y-8465952D01*
X1127857Y-8478333D01*
X1121667Y-8484524D01*
X1109286Y-8490714D01*
X1065952Y-8490714D01*
D10*
D11*
X1140238Y-13546428D02*
X1134048Y-13552619D01*
X1115476Y-13558809D01*
X1103095Y-13558809D01*
X1084524Y-13552619D01*
X1072143Y-13540238D01*
X1065952Y-13527857D01*
X1059762Y-13503095D01*
X1059762Y-13484524D01*
X1065952Y-13459762D01*
X1072143Y-13447381D01*
X1084524Y-13435000D01*
X1103095Y-13428809D01*
X1115476Y-13428809D01*
X1134048Y-13435000D01*
X1140238Y-13441190D01*
D10*
D11*
X1065952Y-18558810D02*
X1065952Y-18428810D01*
X1096905Y-18428810D01*
X1115476Y-18435000D01*
X1127857Y-18447381D01*
X1134048Y-18459762D01*
X1140238Y-18484524D01*
X1140238Y-18503095D01*
X1134048Y-18527857D01*
X1127857Y-18540238D01*
X1115476Y-18552619D01*
X1096905Y-18558810D01*
X1065952Y-18558810D01*
D10*
D11*
X28700220Y-6000000D02*
X28500220Y-6000000D01*
D10*
D11*
X28700220Y-11000000D02*
X28500220Y-11000000D01*
D10*
D11*
X28700220Y-16000000D02*
X28500220Y-16000000D01*
D10*
D11*
X28569268Y-3521667D02*
X28631172Y-3521667D01*
X28556887Y-3558809D02*
X28600220Y-3428809D01*
X28643553Y-3558809D01*
D10*
D11*
X28609506Y-8490714D02*
X28628077Y-8496905D01*
X28634268Y-8503095D01*
X28640458Y-8515476D01*
X28640458Y-8534048D01*
X28634268Y-8546429D01*
X28628077Y-8552619D01*
X28615696Y-8558810D01*
X28566172Y-8558810D01*
X28566172Y-8428810D01*
X28609506Y-8428810D01*
X28621887Y-8435000D01*
X28628077Y-8441190D01*
X28634268Y-8453571D01*
X28634268Y-8465952D01*
X28628077Y-8478333D01*
X28621887Y-8484524D01*
X28609506Y-8490714D01*
X28566172Y-8490714D01*
D10*
D11*
X28640458Y-13546428D02*
X28634268Y-13552619D01*
X28615696Y-13558809D01*
X28603315Y-13558809D01*
X28584744Y-13552619D01*
X28572363Y-13540238D01*
X28566172Y-13527857D01*
X28559982Y-13503095D01*
X28559982Y-13484524D01*
X28566172Y-13459762D01*
X28572363Y-13447381D01*
X28584744Y-13435000D01*
X28603315Y-13428809D01*
X28615696Y-13428809D01*
X28634268Y-13435000D01*
X28640458Y-13441190D01*
D10*
D11*
X28566172Y-18558810D02*
X28566172Y-18428810D01*
X28597125Y-18428810D01*
X28615696Y-18435000D01*
X28628077Y-18447381D01*
X28634268Y-18459762D01*
X28640458Y-18484524D01*
X28640458Y-18503095D01*
X28634268Y-18527857D01*
X28628077Y-18540238D01*
X28615696Y-18552619D01*
X28597125Y-18558810D01*
X28566172Y-18558810D01*
D10*
D11*
X20043434Y-19378577D02*
X20043434Y-19228577D01*
X20079149Y-19228577D01*
X20100577Y-19235720D01*
X20114863Y-19250006D01*
X20122006Y-19264291D01*
X20129149Y-19292863D01*
X20129149Y-19314291D01*
X20122006Y-19342863D01*
X20114863Y-19357149D01*
X20100577Y-19371434D01*
X20079149Y-19378577D01*
X20043434Y-19378577D01*
X20257720Y-19378577D02*
X20257720Y-19300006D01*
X20250577Y-19285720D01*
X20236291Y-19278577D01*
X20207720Y-19278577D01*
X20193434Y-19285720D01*
X20257720Y-19371434D02*
X20243434Y-19378577D01*
X20207720Y-19378577D01*
X20193434Y-19371434D01*
X20186291Y-19357149D01*
X20186291Y-19342863D01*
X20193434Y-19328577D01*
X20207720Y-19321434D01*
X20243434Y-19321434D01*
X20257720Y-19314291D01*
X20307720Y-19278577D02*
X20364863Y-19278577D01*
X20329149Y-19228577D02*
X20329149Y-19357149D01*
X20336291Y-19371434D01*
X20350577Y-19378577D01*
X20364863Y-19378577D01*
X20472006Y-19371434D02*
X20457720Y-19378577D01*
X20429149Y-19378577D01*
X20414863Y-19371434D01*
X20407720Y-19357149D01*
X20407720Y-19300006D01*
X20414863Y-19285720D01*
X20429149Y-19278577D01*
X20457720Y-19278577D01*
X20472006Y-19285720D01*
X20479149Y-19300006D01*
X20479149Y-19314291D01*
X20407720Y-19328577D01*
X20543434Y-19364291D02*
X20550577Y-19371434D01*
X20543434Y-19378577D01*
X20536291Y-19371434D01*
X20543434Y-19364291D01*
X20543434Y-19378577D01*
X20543434Y-19285720D02*
X20550577Y-19292863D01*
X20543434Y-19300006D01*
X20536291Y-19292863D01*
X20543434Y-19285720D01*
X20543434Y-19300006D01*
D10*
D11*
X17700220Y-19450720D02*
X28500220Y-19450720D01*
D10*
D11*
X17843434Y-19658577D02*
X17843434Y-19508577D01*
X17929149Y-19658577D02*
X17864863Y-19572863D01*
X17929149Y-19508577D02*
X17843434Y-19594291D01*
X17993434Y-19658577D02*
X17993434Y-19558577D01*
X17993434Y-19508577D02*
X17986291Y-19515720D01*
X17993434Y-19522863D01*
X18000577Y-19515720D01*
X17993434Y-19508577D01*
X17993434Y-19522863D01*
X18150577Y-19644291D02*
X18143434Y-19651434D01*
X18122006Y-19658577D01*
X18107720Y-19658577D01*
X18086291Y-19651434D01*
X18072006Y-19637149D01*
X18064863Y-19622863D01*
X18057720Y-19594291D01*
X18057720Y-19572863D01*
X18064863Y-19544291D01*
X18072006Y-19530006D01*
X18086291Y-19515720D01*
X18107720Y-19508577D01*
X18122006Y-19508577D01*
X18143434Y-19515720D01*
X18150577Y-19522863D01*
X18279149Y-19658577D02*
X18279149Y-19580006D01*
X18272006Y-19565720D01*
X18257720Y-19558577D01*
X18229149Y-19558577D01*
X18214863Y-19565720D01*
X18279149Y-19651434D02*
X18264863Y-19658577D01*
X18229149Y-19658577D01*
X18214863Y-19651434D01*
X18207720Y-19637149D01*
X18207720Y-19622863D01*
X18214863Y-19608577D01*
X18229149Y-19601434D01*
X18264863Y-19601434D01*
X18279149Y-19594291D01*
X18414863Y-19658577D02*
X18414863Y-19508577D01*
X18414863Y-19651434D02*
X18400577Y-19658577D01*
X18372006Y-19658577D01*
X18357720Y-19651434D01*
X18350577Y-19644291D01*
X18343434Y-19630006D01*
X18343434Y-19587149D01*
X18350577Y-19572863D01*
X18357720Y-19565720D01*
X18372006Y-19558577D01*
X18400577Y-19558577D01*
X18414863Y-19565720D01*
X18600577Y-19580006D02*
X18650577Y-19580006D01*
X18672006Y-19658577D02*
X18600577Y-19658577D01*
X18600577Y-19508577D01*
X18672006Y-19508577D01*
X18736291Y-19644291D02*
X18743434Y-19651434D01*
X18736291Y-19658577D01*
X18729149Y-19651434D01*
X18736291Y-19644291D01*
X18736291Y-19658577D01*
X18807720Y-19658577D02*
X18807720Y-19508577D01*
X18843434Y-19508577D01*
X18864863Y-19515720D01*
X18879149Y-19530006D01*
X18886291Y-19544291D01*
X18893434Y-19572863D01*
X18893434Y-19594291D01*
X18886291Y-19622863D01*
X18879149Y-19637149D01*
X18864863Y-19651434D01*
X18843434Y-19658577D01*
X18807720Y-19658577D01*
X18957720Y-19644291D02*
X18964863Y-19651434D01*
X18957720Y-19658577D01*
X18950577Y-19651434D01*
X18957720Y-19644291D01*
X18957720Y-19658577D01*
X19022006Y-19615720D02*
X19093434Y-19615720D01*
X19007720Y-19658577D02*
X19057720Y-19508577D01*
X19107720Y-19658577D01*
X19157720Y-19644291D02*
X19164863Y-19651434D01*
X19157720Y-19658577D01*
X19150577Y-19651434D01*
X19157720Y-19644291D01*
X19157720Y-19658577D01*
X19457720Y-19658577D02*
X19457720Y-19508577D01*
X19472006Y-19601434D02*
X19514863Y-19658577D01*
X19514863Y-19558577D02*
X19457720Y-19615720D01*
X19579149Y-19658577D02*
X19579149Y-19558577D01*
X19579149Y-19508577D02*
X19572006Y-19515720D01*
X19579149Y-19522863D01*
X19586291Y-19515720D01*
X19579149Y-19508577D01*
X19579149Y-19522863D01*
X19714863Y-19651434D02*
X19700577Y-19658577D01*
X19672006Y-19658577D01*
X19657720Y-19651434D01*
X19650577Y-19644291D01*
X19643434Y-19630006D01*
X19643434Y-19587149D01*
X19650577Y-19572863D01*
X19657720Y-19565720D01*
X19672006Y-19558577D01*
X19700577Y-19558577D01*
X19714863Y-19565720D01*
X19843434Y-19658577D02*
X19843434Y-19580006D01*
X19836291Y-19565720D01*
X19822006Y-19558577D01*
X19793434Y-19558577D01*
X19779149Y-19565720D01*
X19843434Y-19651434D02*
X19829149Y-19658577D01*
X19793434Y-19658577D01*
X19779149Y-19651434D01*
X19772006Y-19637149D01*
X19772006Y-19622863D01*
X19779149Y-19608577D01*
X19793434Y-19601434D01*
X19829149Y-19601434D01*
X19843434Y-19594291D01*
X19979149Y-19658577D02*
X19979149Y-19508577D01*
X19979149Y-19651434D02*
X19964863Y-19658577D01*
X19936291Y-19658577D01*
X19922006Y-19651434D01*
X19914863Y-19644291D01*
X19907720Y-19630006D01*
X19907720Y-19587149D01*
X19914863Y-19572863D01*
X19922006Y-19565720D01*
X19936291Y-19558577D01*
X19964863Y-19558577D01*
X19979149Y-19565720D01*
X20236291Y-19508577D02*
X20164863Y-19508577D01*
X20157720Y-19580006D01*
X20164863Y-19572863D01*
X20179149Y-19565720D01*
X20214863Y-19565720D01*
X20229149Y-19572863D01*
X20236291Y-19580006D01*
X20243434Y-19594291D01*
X20243434Y-19630006D01*
X20236291Y-19644291D01*
X20229149Y-19651434D01*
X20214863Y-19658577D01*
X20179149Y-19658577D01*
X20164863Y-19651434D01*
X20157720Y-19644291D01*
X20307720Y-19644291D02*
X20314863Y-19651434D01*
X20307720Y-19658577D01*
X20300577Y-19651434D01*
X20307720Y-19644291D01*
X20307720Y-19658577D01*
X20457720Y-19658577D02*
X20372006Y-19658577D01*
X20414863Y-19658577D02*
X20414863Y-19508577D01*
X20400577Y-19530006D01*
X20386291Y-19544291D01*
X20372006Y-19551434D01*
X20522006Y-19644291D02*
X20529149Y-19651434D01*
X20522006Y-19658577D01*
X20514863Y-19651434D01*
X20522006Y-19644291D01*
X20522006Y-19658577D01*
X20657720Y-19508577D02*
X20629149Y-19508577D01*
X20614863Y-19515720D01*
X20607720Y-19522863D01*
X20593434Y-19544291D01*
X20586291Y-19572863D01*
X20586291Y-19630006D01*
X20593434Y-19644291D01*
X20600577Y-19651434D01*
X20614863Y-19658577D01*
X20643434Y-19658577D01*
X20657720Y-19651434D01*
X20664863Y-19644291D01*
X20672006Y-19630006D01*
X20672006Y-19594291D01*
X20664863Y-19580006D01*
X20657720Y-19572863D01*
X20643434Y-19565720D01*
X20614863Y-19565720D01*
X20600577Y-19572863D01*
X20593434Y-19580006D01*
X20586291Y-19594291D01*
X20736291Y-19601434D02*
X20850577Y-19601434D01*
X20793434Y-19658577D02*
X20793434Y-19544291D01*
X20986291Y-19658577D02*
X20986291Y-19508577D01*
X20986291Y-19651434D02*
X20972006Y-19658577D01*
X20943434Y-19658577D01*
X20929149Y-19651434D01*
X20922006Y-19644291D01*
X20914863Y-19630006D01*
X20914863Y-19587149D01*
X20922006Y-19572863D01*
X20929149Y-19565720D01*
X20943434Y-19558577D01*
X20972006Y-19558577D01*
X20986291Y-19565720D01*
X21036291Y-19558577D02*
X21093434Y-19558577D01*
X21057720Y-19658577D02*
X21057720Y-19530006D01*
X21064863Y-19515720D01*
X21079149Y-19508577D01*
X21093434Y-19508577D01*
X21136291Y-19651434D02*
X21150577Y-19658577D01*
X21179149Y-19658577D01*
X21193434Y-19651434D01*
X21200577Y-19637149D01*
X21200577Y-19630006D01*
X21193434Y-19615720D01*
X21179149Y-19608577D01*
X21157720Y-19608577D01*
X21143434Y-19601434D01*
X21136291Y-19587149D01*
X21136291Y-19580006D01*
X21143434Y-19565720D01*
X21157720Y-19558577D01*
X21179149Y-19558577D01*
X21193434Y-19565720D01*
X21329149Y-19558577D02*
X21329149Y-19680006D01*
X21322006Y-19694291D01*
X21314863Y-19701434D01*
X21300577Y-19708577D01*
X21279149Y-19708577D01*
X21264863Y-19701434D01*
X21329149Y-19651434D02*
X21314863Y-19658577D01*
X21286291Y-19658577D01*
X21272006Y-19651434D01*
X21264863Y-19644291D01*
X21257720Y-19630006D01*
X21257720Y-19587149D01*
X21264863Y-19572863D01*
X21272006Y-19565720D01*
X21286291Y-19558577D01*
X21314863Y-19558577D01*
X21329149Y-19565720D01*
X21479149Y-19658577D02*
X21393434Y-19658577D01*
X21436291Y-19658577D02*
X21436291Y-19508577D01*
X21422006Y-19530006D01*
X21407720Y-19544291D01*
X21393434Y-19551434D01*
X21543434Y-19601434D02*
X21657720Y-19601434D01*
X21807720Y-19658577D02*
X21722006Y-19658577D01*
X21764863Y-19658577D02*
X21764863Y-19508577D01*
X21750577Y-19530006D01*
X21736291Y-19544291D01*
X21722006Y-19551434D01*
D10*
D11*
X17700220Y-19150720D02*
X28500220Y-19150720D01*
D10*
D12*
X26441148Y-19378577D02*
X26391148Y-19307149D01*
X26355434Y-19378577D02*
X26355434Y-19228577D01*
X26412577Y-19228577D01*
X26426863Y-19235720D01*
X26434006Y-19242863D01*
X26441148Y-19257149D01*
X26441148Y-19278577D01*
X26434006Y-19292863D01*
X26426863Y-19300006D01*
X26412577Y-19307149D01*
X26355434Y-19307149D01*
X26562577Y-19371434D02*
X26548291Y-19378577D01*
X26519720Y-19378577D01*
X26505434Y-19371434D01*
X26498291Y-19357149D01*
X26498291Y-19300006D01*
X26505434Y-19285720D01*
X26519720Y-19278577D01*
X26548291Y-19278577D01*
X26562577Y-19285720D01*
X26569720Y-19300006D01*
X26569720Y-19314291D01*
X26498291Y-19328577D01*
X26619720Y-19278577D02*
X26655434Y-19378577D01*
X26691148Y-19278577D01*
X26748291Y-19364291D02*
X26755434Y-19371434D01*
X26748291Y-19378577D01*
X26741148Y-19371434D01*
X26748291Y-19364291D01*
X26748291Y-19378577D01*
X26748291Y-19285720D02*
X26755434Y-19292863D01*
X26748291Y-19300006D01*
X26741148Y-19292863D01*
X26748291Y-19285720D01*
X26748291Y-19300006D01*
D10*
D11*
X17836291Y-19371434D02*
X17857720Y-19378577D01*
X17893434Y-19378577D01*
X17907720Y-19371434D01*
X17914863Y-19364291D01*
X17922006Y-19350006D01*
X17922006Y-19335720D01*
X17914863Y-19321434D01*
X17907720Y-19314291D01*
X17893434Y-19307149D01*
X17864863Y-19300006D01*
X17850577Y-19292863D01*
X17843434Y-19285720D01*
X17836291Y-19271434D01*
X17836291Y-19257149D01*
X17843434Y-19242863D01*
X17850577Y-19235720D01*
X17864863Y-19228577D01*
X17900577Y-19228577D01*
X17922006Y-19235720D01*
X17986291Y-19378577D02*
X17986291Y-19278577D01*
X17986291Y-19228577D02*
X17979149Y-19235720D01*
X17986291Y-19242863D01*
X17993434Y-19235720D01*
X17986291Y-19228577D01*
X17986291Y-19242863D01*
X18043434Y-19278577D02*
X18122006Y-19278577D01*
X18043434Y-19378577D01*
X18122006Y-19378577D01*
X18236291Y-19371434D02*
X18222006Y-19378577D01*
X18193434Y-19378577D01*
X18179149Y-19371434D01*
X18172006Y-19357149D01*
X18172006Y-19300006D01*
X18179149Y-19285720D01*
X18193434Y-19278577D01*
X18222006Y-19278577D01*
X18236291Y-19285720D01*
X18243434Y-19300006D01*
X18243434Y-19314291D01*
X18172006Y-19328577D01*
X18307720Y-19364291D02*
X18314863Y-19371434D01*
X18307720Y-19378577D01*
X18300577Y-19371434D01*
X18307720Y-19364291D01*
X18307720Y-19378577D01*
X18307720Y-19285720D02*
X18314863Y-19292863D01*
X18307720Y-19300006D01*
X18300577Y-19292863D01*
X18307720Y-19285720D01*
X18307720Y-19300006D01*
X18486291Y-19335720D02*
X18557720Y-19335720D01*
X18472006Y-19378577D02*
X18522006Y-19228577D01*
X18572006Y-19378577D01*
X18686291Y-19278577D02*
X18686291Y-19378577D01*
X18650577Y-19221434D02*
X18614863Y-19328577D01*
X18707720Y-19328577D01*
D10*
D11*
X26343434Y-19658577D02*
X26343434Y-19508577D01*
X26479148Y-19658577D02*
X26479148Y-19508577D01*
X26479148Y-19651434D02*
X26464863Y-19658577D01*
X26436291Y-19658577D01*
X26422006Y-19651434D01*
X26414863Y-19644291D01*
X26407720Y-19630006D01*
X26407720Y-19587149D01*
X26414863Y-19572863D01*
X26422006Y-19565720D01*
X26436291Y-19558577D01*
X26464863Y-19558577D01*
X26479148Y-19565720D01*
X26550577Y-19644291D02*
X26557720Y-19651434D01*
X26550577Y-19658577D01*
X26543434Y-19651434D01*
X26550577Y-19644291D01*
X26550577Y-19658577D01*
X26550577Y-19565720D02*
X26557720Y-19572863D01*
X26550577Y-19580006D01*
X26543434Y-19572863D01*
X26550577Y-19565720D01*
X26550577Y-19580006D01*
X26814863Y-19658577D02*
X26729148Y-19658577D01*
X26772006Y-19658577D02*
X26772006Y-19508577D01*
X26757720Y-19530006D01*
X26743434Y-19544291D01*
X26729148Y-19551434D01*
X26986291Y-19501434D02*
X26857720Y-19694291D01*
X27114863Y-19658577D02*
X27029148Y-19658577D01*
X27072006Y-19658577D02*
X27072006Y-19508577D01*
X27057720Y-19530006D01*
X27043434Y-19544291D01*
X27029148Y-19551434D01*
D10*
D11*
X17700220Y-18750720D02*
X28500220Y-18750720D01*
D10*
D13*
X17871458Y-18821196D02*
X17985744Y-18821196D01*
X17903601Y-19021196D02*
X17928601Y-18821196D01*
X18027410Y-19021196D02*
X18044077Y-18887863D01*
X18052410Y-18821196D02*
X18041696Y-18830720D01*
X18050030Y-18840244D01*
X18060744Y-18830720D01*
X18052410Y-18821196D01*
X18050030Y-18840244D01*
X18110744Y-18887863D02*
X18186934Y-18887863D01*
X18147649Y-18821196D02*
X18126220Y-18992625D01*
X18133363Y-19011672D01*
X18151220Y-19021196D01*
X18170268Y-19021196D01*
X18265506Y-19021196D02*
X18247649Y-19011672D01*
X18240506Y-18992625D01*
X18261934Y-18821196D01*
X18419077Y-19011672D02*
X18398839Y-19021196D01*
X18360744Y-19021196D01*
X18342887Y-19011672D01*
X18335744Y-18992625D01*
X18345268Y-18916434D01*
X18357172Y-18897387D01*
X18377410Y-18887863D01*
X18415506Y-18887863D01*
X18433363Y-18897387D01*
X18440506Y-18916434D01*
X18438125Y-18935482D01*
X18340506Y-18954530D01*
X18515506Y-19002149D02*
X18523839Y-19011672D01*
X18513125Y-19021196D01*
X18504791Y-19011672D01*
X18515506Y-19002149D01*
X18513125Y-19021196D01*
X18528601Y-18897387D02*
X18536934Y-18906910D01*
X18526220Y-18916434D01*
X18517887Y-18906910D01*
X18528601Y-18897387D01*
X18526220Y-18916434D01*
D10*
D11*
X17893434Y-18560006D02*
X17843434Y-18560006D01*
X17843434Y-18638577D02*
X17843434Y-18488577D01*
X17914863Y-18488577D01*
X17972006Y-18638577D02*
X17972006Y-18538577D01*
X17972006Y-18488577D02*
X17964863Y-18495720D01*
X17972006Y-18502863D01*
X17979149Y-18495720D01*
X17972006Y-18488577D01*
X17972006Y-18502863D01*
X18064863Y-18638577D02*
X18050577Y-18631434D01*
X18043434Y-18617149D01*
X18043434Y-18488577D01*
X18179149Y-18631434D02*
X18164863Y-18638577D01*
X18136291Y-18638577D01*
X18122006Y-18631434D01*
X18114863Y-18617149D01*
X18114863Y-18560006D01*
X18122006Y-18545720D01*
X18136291Y-18538577D01*
X18164863Y-18538577D01*
X18179149Y-18545720D01*
X18186291Y-18560006D01*
X18186291Y-18574291D01*
X18114863Y-18588577D01*
X18250577Y-18624291D02*
X18257720Y-18631434D01*
X18250577Y-18638577D01*
X18243434Y-18631434D01*
X18250577Y-18624291D01*
X18250577Y-18638577D01*
X18250577Y-18545720D02*
X18257720Y-18552863D01*
X18250577Y-18560006D01*
X18243434Y-18552863D01*
X18250577Y-18545720D01*
X18250577Y-18560006D01*
X18486291Y-18560006D02*
X18507720Y-18567149D01*
X18514863Y-18574291D01*
X18522006Y-18588577D01*
X18522006Y-18610006D01*
X18514863Y-18624291D01*
X18507720Y-18631434D01*
X18493434Y-18638577D01*
X18436291Y-18638577D01*
X18436291Y-18488577D01*
X18486291Y-18488577D01*
X18500577Y-18495720D01*
X18507720Y-18502863D01*
X18514863Y-18517149D01*
X18514863Y-18531434D01*
X18507720Y-18545720D01*
X18500577Y-18552863D01*
X18486291Y-18560006D01*
X18436291Y-18560006D01*
X18650577Y-18638577D02*
X18650577Y-18560006D01*
X18643434Y-18545720D01*
X18629149Y-18538577D01*
X18600577Y-18538577D01*
X18586291Y-18545720D01*
X18650577Y-18631434D02*
X18636291Y-18638577D01*
X18600577Y-18638577D01*
X18586291Y-18631434D01*
X18579149Y-18617149D01*
X18579149Y-18602863D01*
X18586291Y-18588577D01*
X18600577Y-18581434D01*
X18636291Y-18581434D01*
X18650577Y-18574291D01*
X18700577Y-18538577D02*
X18757720Y-18538577D01*
X18722006Y-18488577D02*
X18722006Y-18617149D01*
X18729149Y-18631434D01*
X18743434Y-18638577D01*
X18757720Y-18638577D01*
X18807720Y-18638577D02*
X18807720Y-18488577D01*
X18864863Y-18488577D01*
X18879149Y-18495720D01*
X18886291Y-18502863D01*
X18893434Y-18517149D01*
X18893434Y-18538577D01*
X18886291Y-18552863D01*
X18879149Y-18560006D01*
X18864863Y-18567149D01*
X18807720Y-18567149D01*
X18957720Y-18638577D02*
X18957720Y-18538577D01*
X18957720Y-18567149D02*
X18964863Y-18552863D01*
X18972006Y-18545720D01*
X18986291Y-18538577D01*
X19000577Y-18538577D01*
X19072006Y-18638577D02*
X19057720Y-18631434D01*
X19050577Y-18624291D01*
X19043434Y-18610006D01*
X19043434Y-18567149D01*
X19050577Y-18552863D01*
X19057720Y-18545720D01*
X19072006Y-18538577D01*
X19093434Y-18538577D01*
X19107720Y-18545720D01*
X19114863Y-18552863D01*
X19122006Y-18567149D01*
X19122006Y-18610006D01*
X19114863Y-18624291D01*
X19107720Y-18631434D01*
X19093434Y-18638577D01*
X19072006Y-18638577D01*
X19164863Y-18538577D02*
X19222006Y-18538577D01*
X19186291Y-18488577D02*
X19186291Y-18617149D01*
X19193434Y-18631434D01*
X19207720Y-18638577D01*
X19222006Y-18638577D01*
X19329149Y-18631434D02*
X19314863Y-18638577D01*
X19286291Y-18638577D01*
X19272006Y-18631434D01*
X19264863Y-18617149D01*
X19264863Y-18560006D01*
X19272006Y-18545720D01*
X19286291Y-18538577D01*
X19314863Y-18538577D01*
X19329149Y-18545720D01*
X19336291Y-18560006D01*
X19336291Y-18574291D01*
X19264863Y-18588577D01*
X19464863Y-18631434D02*
X19450577Y-18638577D01*
X19422006Y-18638577D01*
X19407720Y-18631434D01*
X19400577Y-18624291D01*
X19393434Y-18610006D01*
X19393434Y-18567149D01*
X19400577Y-18552863D01*
X19407720Y-18545720D01*
X19422006Y-18538577D01*
X19450577Y-18538577D01*
X19464863Y-18545720D01*
X19507720Y-18538577D02*
X19564863Y-18538577D01*
X19529149Y-18488577D02*
X19529149Y-18617149D01*
X19536291Y-18631434D01*
X19550577Y-18638577D01*
X19564863Y-18638577D01*
X19614863Y-18624291D02*
X19622006Y-18631434D01*
X19614863Y-18638577D01*
X19607720Y-18631434D01*
X19614863Y-18624291D01*
X19614863Y-18638577D01*
X19686291Y-18638577D02*
X19686291Y-18488577D01*
X19700577Y-18581434D02*
X19743434Y-18638577D01*
X19743434Y-18538577D02*
X19686291Y-18595720D01*
X19807720Y-18638577D02*
X19807720Y-18538577D01*
X19807720Y-18488577D02*
X19800577Y-18495720D01*
X19807720Y-18502863D01*
X19814863Y-18495720D01*
X19807720Y-18488577D01*
X19807720Y-18502863D01*
X19943434Y-18631434D02*
X19929149Y-18638577D01*
X19900577Y-18638577D01*
X19886291Y-18631434D01*
X19879149Y-18624291D01*
X19872006Y-18610006D01*
X19872006Y-18567149D01*
X19879149Y-18552863D01*
X19886291Y-18545720D01*
X19900577Y-18538577D01*
X19929149Y-18538577D01*
X19943434Y-18545720D01*
X20072006Y-18638577D02*
X20072006Y-18560006D01*
X20064863Y-18545720D01*
X20050577Y-18538577D01*
X20022006Y-18538577D01*
X20007720Y-18545720D01*
X20072006Y-18631434D02*
X20057720Y-18638577D01*
X20022006Y-18638577D01*
X20007720Y-18631434D01*
X20000577Y-18617149D01*
X20000577Y-18602863D01*
X20007720Y-18588577D01*
X20022006Y-18581434D01*
X20057720Y-18581434D01*
X20072006Y-18574291D01*
X20207720Y-18638577D02*
X20207720Y-18488577D01*
X20207720Y-18631434D02*
X20193434Y-18638577D01*
X20164863Y-18638577D01*
X20150577Y-18631434D01*
X20143434Y-18624291D01*
X20136291Y-18610006D01*
X20136291Y-18567149D01*
X20143434Y-18552863D01*
X20150577Y-18545720D01*
X20164863Y-18538577D01*
X20193434Y-18538577D01*
X20207720Y-18545720D01*
X20243434Y-18652863D02*
X20357720Y-18652863D01*
X20393434Y-18538577D02*
X20393434Y-18688577D01*
X20393434Y-18545720D02*
X20407720Y-18538577D01*
X20436291Y-18538577D01*
X20450577Y-18545720D01*
X20457720Y-18552863D01*
X20464863Y-18567149D01*
X20464863Y-18610006D01*
X20457720Y-18624291D01*
X20450577Y-18631434D01*
X20436291Y-18638577D01*
X20407720Y-18638577D01*
X20393434Y-18631434D01*
X20593434Y-18631434D02*
X20579149Y-18638577D01*
X20550577Y-18638577D01*
X20536291Y-18631434D01*
X20529149Y-18624291D01*
X20522006Y-18610006D01*
X20522006Y-18567149D01*
X20529149Y-18552863D01*
X20536291Y-18545720D01*
X20550577Y-18538577D01*
X20579149Y-18538577D01*
X20593434Y-18545720D01*
X20657720Y-18638577D02*
X20657720Y-18488577D01*
X20657720Y-18545720D02*
X20672006Y-18538577D01*
X20700577Y-18538577D01*
X20714863Y-18545720D01*
X20722006Y-18552863D01*
X20729149Y-18567149D01*
X20729149Y-18610006D01*
X20722006Y-18624291D01*
X20714863Y-18631434D01*
X20700577Y-18638577D01*
X20672006Y-18638577D01*
X20657720Y-18631434D01*
D10*
D11*
X17700220Y-18150720D02*
X28500220Y-18150720D01*
D10*
D11*
X17836291Y-18361434D02*
X17857720Y-18368577D01*
X17893434Y-18368577D01*
X17907720Y-18361434D01*
X17914863Y-18354291D01*
X17922006Y-18340006D01*
X17922006Y-18325720D01*
X17914863Y-18311434D01*
X17907720Y-18304291D01*
X17893434Y-18297149D01*
X17864863Y-18290006D01*
X17850577Y-18282863D01*
X17843434Y-18275720D01*
X17836291Y-18261434D01*
X17836291Y-18247149D01*
X17843434Y-18232863D01*
X17850577Y-18225720D01*
X17864863Y-18218577D01*
X17900577Y-18218577D01*
X17922006Y-18225720D01*
X17986291Y-18368577D02*
X17986291Y-18218577D01*
X18050577Y-18368577D02*
X18050577Y-18290006D01*
X18043434Y-18275720D01*
X18029149Y-18268577D01*
X18007720Y-18268577D01*
X17993434Y-18275720D01*
X17986291Y-18282863D01*
X18179149Y-18361434D02*
X18164863Y-18368577D01*
X18136291Y-18368577D01*
X18122006Y-18361434D01*
X18114863Y-18347149D01*
X18114863Y-18290006D01*
X18122006Y-18275720D01*
X18136291Y-18268577D01*
X18164863Y-18268577D01*
X18179149Y-18275720D01*
X18186291Y-18290006D01*
X18186291Y-18304291D01*
X18114863Y-18318577D01*
X18307720Y-18361434D02*
X18293434Y-18368577D01*
X18264863Y-18368577D01*
X18250577Y-18361434D01*
X18243434Y-18347149D01*
X18243434Y-18290006D01*
X18250577Y-18275720D01*
X18264863Y-18268577D01*
X18293434Y-18268577D01*
X18307720Y-18275720D01*
X18314863Y-18290006D01*
X18314863Y-18304291D01*
X18243434Y-18318577D01*
X18357720Y-18268577D02*
X18414863Y-18268577D01*
X18379149Y-18218577D02*
X18379149Y-18347149D01*
X18386291Y-18361434D01*
X18400577Y-18368577D01*
X18414863Y-18368577D01*
X18464863Y-18354291D02*
X18472006Y-18361434D01*
X18464863Y-18368577D01*
X18457720Y-18361434D01*
X18464863Y-18354291D01*
X18464863Y-18368577D01*
X18464863Y-18275720D02*
X18472006Y-18282863D01*
X18464863Y-18290006D01*
X18457720Y-18282863D01*
X18464863Y-18275720D01*
X18464863Y-18290006D01*
D10*
D11*
X19700220Y-19150720D02*
X19700220Y-19450720D01*
D10*
D11*
X26100220Y-19150720D02*
X26100220Y-19800720D01*
D10*
G36*
X8300633Y-15468258D02*
G01*
X8363419Y-15494265D01*
X8363419Y-15494265D01*
X8419925Y-15532021D01*
X8467979Y-15580075D01*
X8505735Y-15636581D01*
X8505735Y-15636581D01*
X8531742Y-15699367D01*
X8545000Y-15766020D01*
X8545000Y-15833980D01*
X8531742Y-15900633D01*
X8515545Y-15939735D01*
X8505735Y-15963419D01*
X8467979Y-16019925D01*
X8419925Y-16067979D01*
X8363419Y-16105735D01*
X8363419Y-16105735D01*
X8363419Y-16105735D01*
X8300633Y-16131742D01*
X8233980Y-16145000D01*
X8166020Y-16145000D01*
X8099367Y-16131742D01*
X8036581Y-16105735D01*
X8036581Y-16105735D01*
X8036581Y-16105735D01*
X7980075Y-16067979D01*
X7932021Y-16019925D01*
X7894265Y-15963419D01*
X7884455Y-15939735D01*
X7868258Y-15900633D01*
X7855000Y-15833980D01*
X7855000Y-15766020D01*
X7868258Y-15699367D01*
X7894265Y-15636581D01*
X7894265Y-15636581D01*
X7932021Y-15580075D01*
X7980075Y-15532021D01*
X8036581Y-15494265D01*
X8036581Y-15494265D01*
X8099367Y-15468258D01*
X8166020Y-15455000D01*
X8233980Y-15455000D01*
X8300633Y-15468258D01*
G37*
G36*
X13550633Y-15468258D02*
G01*
X13613419Y-15494265D01*
X13613419Y-15494265D01*
X13669925Y-15532021D01*
X13717979Y-15580075D01*
X13755735Y-15636581D01*
X13755735Y-15636581D01*
X13781742Y-15699367D01*
X13795000Y-15766020D01*
X13795000Y-15833980D01*
X13781742Y-15900633D01*
X13765545Y-15939735D01*
X13755735Y-15963419D01*
X13717979Y-16019925D01*
X13669925Y-16067979D01*
X13613419Y-16105735D01*
X13613419Y-16105735D01*
X13613419Y-16105735D01*
X13550633Y-16131742D01*
X13483980Y-16145000D01*
X13416020Y-16145000D01*
X13349367Y-16131742D01*
X13286581Y-16105735D01*
X13286581Y-16105735D01*
X13286581Y-16105735D01*
X13230075Y-16067979D01*
X13182021Y-16019925D01*
X13144265Y-15963419D01*
X13134455Y-15939735D01*
X13118258Y-15900633D01*
X13105000Y-15833980D01*
X13105000Y-15766020D01*
X13118258Y-15699367D01*
X13144265Y-15636581D01*
X13144265Y-15636581D01*
X13182021Y-15580075D01*
X13230075Y-15532021D01*
X13286581Y-15494265D01*
X13286581Y-15494265D01*
X13349367Y-15468258D01*
X13416020Y-15455000D01*
X13483980Y-15455000D01*
X13550633Y-15468258D01*
G37*
G36*
X6336048Y-15516337D02*
G01*
X6389735Y-15538574D01*
X6389735Y-15538574D01*
X6438052Y-15570858D01*
X6479141Y-15611948D01*
X6495601Y-15636581D01*
X6511426Y-15660265D01*
X6533663Y-15713952D01*
X6545000Y-15770945D01*
X6545000Y-15829055D01*
X6533663Y-15886048D01*
X6511426Y-15939735D01*
X6511426Y-15939735D01*
X6479141Y-15988052D01*
X6438052Y-16029141D01*
X6389735Y-16061426D01*
X6389735Y-16061426D01*
X6389735Y-16061426D01*
X6336048Y-16083663D01*
X6279055Y-16095000D01*
X6220945Y-16095000D01*
X6163952Y-16083663D01*
X6110265Y-16061426D01*
X6110265Y-16061426D01*
X6110265Y-16061426D01*
X6061948Y-16029141D01*
X6020858Y-15988052D01*
X5988574Y-15939735D01*
X5988574Y-15939735D01*
X5966337Y-15886048D01*
X5955000Y-15829055D01*
X5955000Y-15770945D01*
X5966337Y-15713952D01*
X5988574Y-15660265D01*
X6004399Y-15636581D01*
X6020858Y-15611948D01*
X6061948Y-15570858D01*
X6110265Y-15538574D01*
X6110265Y-15538574D01*
X6163952Y-15516337D01*
X6220945Y-15505000D01*
X6279055Y-15505000D01*
X6336048Y-15516337D01*
G37*
G36*
X14886048Y-15516337D02*
G01*
X14939735Y-15538574D01*
X14939735Y-15538574D01*
X14988052Y-15570858D01*
X15029141Y-15611948D01*
X15045601Y-15636581D01*
X15061426Y-15660265D01*
X15083663Y-15713952D01*
X15095000Y-15770945D01*
X15095000Y-15829055D01*
X15083663Y-15886048D01*
X15061426Y-15939735D01*
X15061426Y-15939735D01*
X15029141Y-15988052D01*
X14988052Y-16029141D01*
X14939735Y-16061426D01*
X14939735Y-16061426D01*
X14939735Y-16061426D01*
X14886048Y-16083663D01*
X14829055Y-16095000D01*
X14770945Y-16095000D01*
X14713952Y-16083663D01*
X14660265Y-16061426D01*
X14660265Y-16061426D01*
X14660265Y-16061426D01*
X14611948Y-16029141D01*
X14570858Y-15988052D01*
X14538574Y-15939735D01*
X14538574Y-15939735D01*
X14516337Y-15886048D01*
X14505000Y-15829055D01*
X14505000Y-15770945D01*
X14516337Y-15713952D01*
X14538574Y-15660265D01*
X14554399Y-15636581D01*
X14570858Y-15611948D01*
X14611948Y-15570858D01*
X14660265Y-15538574D01*
X14660265Y-15538574D01*
X14713952Y-15516337D01*
X14770945Y-15505000D01*
X14829055Y-15505000D01*
X14886048Y-15516337D01*
G37*
G36*
X13238171Y-14678454D02*
G01*
X13278209Y-14695038D01*
X13278209Y-14695038D01*
X13314242Y-14719115D01*
X13344885Y-14749758D01*
X13368962Y-14785791D01*
X13385546Y-14825828D01*
X13394000Y-14868332D01*
X13394000Y-14911668D01*
X13385546Y-14954171D01*
X13368962Y-14994209D01*
X13368961Y-14994209D01*
X13344885Y-15030242D01*
X13314242Y-15060885D01*
X13278209Y-15084961D01*
X13278209Y-15084962D01*
X13278209Y-15084962D01*
X13238171Y-15101546D01*
X13195668Y-15110000D01*
X13152332Y-15110000D01*
X13109828Y-15101546D01*
X13069791Y-15084962D01*
X13069791Y-15084962D01*
X13069791Y-15084961D01*
X13033758Y-15060885D01*
X13003115Y-15030242D01*
X12979038Y-14994209D01*
X12979038Y-14994209D01*
X12962454Y-14954171D01*
X12954000Y-14911668D01*
X12954000Y-14868332D01*
X12962454Y-14825828D01*
X12979038Y-14785791D01*
X13003115Y-14749758D01*
X13033758Y-14719115D01*
X13069791Y-14695038D01*
X13069791Y-14695038D01*
X13109828Y-14678454D01*
X13152332Y-14670000D01*
X13195668Y-14670000D01*
X13238171Y-14678454D01*
G37*
G36*
X8040171Y-14678454D02*
G01*
X8080209Y-14695038D01*
X8080209Y-14695038D01*
X8116242Y-14719115D01*
X8146885Y-14749758D01*
X8170962Y-14785791D01*
X8187546Y-14825828D01*
X8196000Y-14868332D01*
X8196000Y-14911668D01*
X8187546Y-14954171D01*
X8170962Y-14994209D01*
X8170961Y-14994209D01*
X8146885Y-15030242D01*
X8116242Y-15060885D01*
X8080209Y-15084961D01*
X8080209Y-15084962D01*
X8080209Y-15084962D01*
X8040171Y-15101546D01*
X7997668Y-15110000D01*
X7954332Y-15110000D01*
X7911828Y-15101546D01*
X7871791Y-15084962D01*
X7871791Y-15084962D01*
X7871791Y-15084961D01*
X7835758Y-15060885D01*
X7805115Y-15030242D01*
X7781038Y-14994209D01*
X7781038Y-14994209D01*
X7764454Y-14954171D01*
X7756000Y-14911668D01*
X7756000Y-14868332D01*
X7764454Y-14825828D01*
X7781038Y-14785791D01*
X7805115Y-14749758D01*
X7835758Y-14719115D01*
X7871791Y-14695038D01*
X7871791Y-14695038D01*
X7911828Y-14678454D01*
X7954332Y-14670000D01*
X7997668Y-14670000D01*
X8040171Y-14678454D01*
G37*
G36*
X11696295Y-14370572D02*
G01*
X11722683Y-14381503D01*
X11722683Y-14381503D01*
X11746432Y-14397371D01*
X11766629Y-14417568D01*
X11782497Y-14441317D01*
X11782497Y-14441317D01*
X11793428Y-14467705D01*
X11799000Y-14495719D01*
X11799000Y-14524281D01*
X11793428Y-14552295D01*
X11782497Y-14578683D01*
X11782497Y-14578683D01*
X11766629Y-14602432D01*
X11746432Y-14622629D01*
X11722683Y-14638497D01*
X11722683Y-14638497D01*
X11722683Y-14638497D01*
X11696295Y-14649428D01*
X11668281Y-14655000D01*
X11639719Y-14655000D01*
X11611705Y-14649428D01*
X11585317Y-14638497D01*
X11585317Y-14638497D01*
X11585317Y-14638497D01*
X11561568Y-14622629D01*
X11541371Y-14602432D01*
X11525503Y-14578683D01*
X11525503Y-14578683D01*
X11514572Y-14552295D01*
X11509000Y-14524281D01*
X11509000Y-14495719D01*
X11514572Y-14467705D01*
X11525503Y-14441317D01*
X11525503Y-14441317D01*
X11541371Y-14417568D01*
X11561568Y-14397371D01*
X11585317Y-14381503D01*
X11585317Y-14381503D01*
X11611705Y-14370572D01*
X11639719Y-14365000D01*
X11668281Y-14365000D01*
X11696295Y-14370572D01*
G37*
G36*
X9288295Y-14370572D02*
G01*
X9314683Y-14381503D01*
X9314683Y-14381503D01*
X9338432Y-14397371D01*
X9358629Y-14417568D01*
X9374497Y-14441317D01*
X9374497Y-14441317D01*
X9385428Y-14467705D01*
X9391000Y-14495719D01*
X9391000Y-14524281D01*
X9385428Y-14552295D01*
X9374497Y-14578683D01*
X9374497Y-14578683D01*
X9358629Y-14602432D01*
X9338432Y-14622629D01*
X9314683Y-14638497D01*
X9314683Y-14638497D01*
X9314683Y-14638497D01*
X9288295Y-14649428D01*
X9260281Y-14655000D01*
X9231719Y-14655000D01*
X9203705Y-14649428D01*
X9177317Y-14638497D01*
X9177317Y-14638497D01*
X9177317Y-14638497D01*
X9153568Y-14622629D01*
X9133371Y-14602432D01*
X9117503Y-14578683D01*
X9117503Y-14578683D01*
X9106572Y-14552295D01*
X9101000Y-14524281D01*
X9101000Y-14495719D01*
X9106572Y-14467705D01*
X9117503Y-14441317D01*
X9117503Y-14441317D01*
X9133371Y-14417568D01*
X9153568Y-14397371D01*
X9177317Y-14381503D01*
X9177317Y-14381503D01*
X9203705Y-14370572D01*
X9231719Y-14365000D01*
X9260281Y-14365000D01*
X9288295Y-14370572D01*
G37*
G36*
X14850633Y-13018258D02*
G01*
X14913419Y-13044265D01*
X14913419Y-13044265D01*
X14969925Y-13082021D01*
X15017979Y-13130075D01*
X15055379Y-13186048D01*
X15055735Y-13186581D01*
X15081742Y-13249367D01*
X15095000Y-13316020D01*
X15095000Y-13383980D01*
X15081742Y-13450633D01*
X15055735Y-13513419D01*
X15055735Y-13513419D01*
X15017979Y-13569925D01*
X14969925Y-13617979D01*
X14913419Y-13655735D01*
X14913419Y-13655735D01*
X14913419Y-13655735D01*
X14850633Y-13681742D01*
X14783980Y-13695000D01*
X14716020Y-13695000D01*
X14649367Y-13681742D01*
X14586581Y-13655735D01*
X14586581Y-13655735D01*
X14586581Y-13655735D01*
X14530075Y-13617979D01*
X14482021Y-13569925D01*
X14444265Y-13513419D01*
X14444265Y-13513419D01*
X14418258Y-13450633D01*
X14405000Y-13383980D01*
X14405000Y-13316020D01*
X14418258Y-13249367D01*
X14444265Y-13186581D01*
X14444621Y-13186048D01*
X14482021Y-13130075D01*
X14530075Y-13082021D01*
X14586581Y-13044265D01*
X14586581Y-13044265D01*
X14649367Y-13018258D01*
X14716020Y-13005000D01*
X14783980Y-13005000D01*
X14850633Y-13018258D01*
G37*
G36*
X11696295Y-13350572D02*
G01*
X11722497Y-13361426D01*
X11722683Y-13361503D01*
X11746432Y-13377371D01*
X11766629Y-13397568D01*
X11782497Y-13421317D01*
X11782497Y-13421317D01*
X11793428Y-13447705D01*
X11799000Y-13475719D01*
X11799000Y-13504281D01*
X11793428Y-13532295D01*
X11782497Y-13558683D01*
X11782497Y-13558683D01*
X11766629Y-13582432D01*
X11746432Y-13602629D01*
X11722683Y-13618497D01*
X11722683Y-13618497D01*
X11722683Y-13618497D01*
X11696295Y-13629428D01*
X11668281Y-13635000D01*
X11639719Y-13635000D01*
X11611705Y-13629428D01*
X11585317Y-13618497D01*
X11585317Y-13618497D01*
X11585317Y-13618497D01*
X11561568Y-13602629D01*
X11541371Y-13582432D01*
X11525503Y-13558683D01*
X11525503Y-13558683D01*
X11514572Y-13532295D01*
X11509000Y-13504281D01*
X11509000Y-13475719D01*
X11514572Y-13447705D01*
X11525503Y-13421317D01*
X11525503Y-13421317D01*
X11541371Y-13397568D01*
X11561568Y-13377371D01*
X11585317Y-13361503D01*
X11585503Y-13361426D01*
X11611705Y-13350572D01*
X11639719Y-13345000D01*
X11668281Y-13345000D01*
X11696295Y-13350572D01*
G37*
G36*
X9288295Y-13350572D02*
G01*
X9314497Y-13361426D01*
X9314683Y-13361503D01*
X9338432Y-13377371D01*
X9358629Y-13397568D01*
X9374497Y-13421317D01*
X9374497Y-13421317D01*
X9385428Y-13447705D01*
X9391000Y-13475719D01*
X9391000Y-13504281D01*
X9385428Y-13532295D01*
X9374497Y-13558683D01*
X9374497Y-13558683D01*
X9358629Y-13582432D01*
X9338432Y-13602629D01*
X9314683Y-13618497D01*
X9314683Y-13618497D01*
X9314683Y-13618497D01*
X9288295Y-13629428D01*
X9260281Y-13635000D01*
X9231719Y-13635000D01*
X9203705Y-13629428D01*
X9177317Y-13618497D01*
X9177317Y-13618497D01*
X9177317Y-13618497D01*
X9153568Y-13602629D01*
X9133371Y-13582432D01*
X9117503Y-13558683D01*
X9117503Y-13558683D01*
X9106572Y-13532295D01*
X9101000Y-13504281D01*
X9101000Y-13475719D01*
X9106572Y-13447705D01*
X9117503Y-13421317D01*
X9117503Y-13421317D01*
X9133371Y-13397568D01*
X9153568Y-13377371D01*
X9177317Y-13361503D01*
X9177503Y-13361426D01*
X9203705Y-13350572D01*
X9231719Y-13345000D01*
X9260281Y-13345000D01*
X9288295Y-13350572D01*
G37*
G36*
X6286048Y-12816337D02*
G01*
X6339735Y-12838574D01*
X6339735Y-12838574D01*
X6388052Y-12870858D01*
X6429141Y-12911948D01*
X6461426Y-12960265D01*
X6461426Y-12960265D01*
X6483663Y-13013952D01*
X6495000Y-13070945D01*
X6495000Y-13129055D01*
X6483663Y-13186048D01*
X6464119Y-13233231D01*
X6461426Y-13239735D01*
X6429141Y-13288052D01*
X6388052Y-13329141D01*
X6339735Y-13361426D01*
X6339735Y-13361426D01*
X6339735Y-13361426D01*
X6286048Y-13383663D01*
X6229055Y-13395000D01*
X6170945Y-13395000D01*
X6113952Y-13383663D01*
X6060265Y-13361426D01*
X6060265Y-13361426D01*
X6060265Y-13361426D01*
X6011948Y-13329141D01*
X5970858Y-13288052D01*
X5938574Y-13239735D01*
X5935880Y-13233231D01*
X5916337Y-13186048D01*
X5905000Y-13129055D01*
X5905000Y-13070945D01*
X5916337Y-13013952D01*
X5938574Y-12960265D01*
X5938574Y-12960265D01*
X5970858Y-12911948D01*
X6011948Y-12870858D01*
X6060265Y-12838574D01*
X6060265Y-12838574D01*
X6113952Y-12816337D01*
X6170945Y-12805000D01*
X6229055Y-12805000D01*
X6286048Y-12816337D01*
G37*
G36*
X10532101Y-13159361D02*
G01*
X10549860Y-13162894D01*
X10568969Y-13170809D01*
X10586166Y-13182300D01*
X10600792Y-13196925D01*
X10612283Y-13214122D01*
X10620198Y-13233231D01*
X10624233Y-13253517D01*
X10624233Y-13274200D01*
X10620198Y-13294486D01*
X10612283Y-13313595D01*
X10600792Y-13330792D01*
X10586166Y-13345418D01*
X10568969Y-13356908D01*
X10549860Y-13364824D01*
X10532101Y-13368356D01*
X10529574Y-13368859D01*
X10508891Y-13368859D01*
X10506364Y-13368356D01*
X10488605Y-13364824D01*
X10469497Y-13356908D01*
X10452299Y-13345418D01*
X10437674Y-13330792D01*
X10426183Y-13313595D01*
X10418268Y-13294486D01*
X10414233Y-13274200D01*
X10414233Y-13253517D01*
X10418268Y-13233231D01*
X10426183Y-13214122D01*
X10437674Y-13196925D01*
X10452299Y-13182300D01*
X10469497Y-13170809D01*
X10488605Y-13162894D01*
X10506364Y-13159361D01*
X10508891Y-13158859D01*
X10529574Y-13158859D01*
X10532101Y-13159361D01*
G37*
G36*
X10278101Y-13159361D02*
G01*
X10295860Y-13162894D01*
X10314969Y-13170809D01*
X10332166Y-13182300D01*
X10346792Y-13196925D01*
X10358283Y-13214122D01*
X10366198Y-13233231D01*
X10370233Y-13253517D01*
X10370233Y-13274200D01*
X10366198Y-13294486D01*
X10358283Y-13313595D01*
X10346792Y-13330792D01*
X10332166Y-13345418D01*
X10314969Y-13356908D01*
X10295860Y-13364824D01*
X10278101Y-13368356D01*
X10275574Y-13368859D01*
X10254891Y-13368859D01*
X10252364Y-13368356D01*
X10234605Y-13364824D01*
X10215497Y-13356908D01*
X10198299Y-13345418D01*
X10183674Y-13330792D01*
X10172183Y-13313595D01*
X10164268Y-13294486D01*
X10160233Y-13274200D01*
X10160233Y-13253517D01*
X10164268Y-13233231D01*
X10172183Y-13214122D01*
X10183674Y-13196925D01*
X10198299Y-13182300D01*
X10215497Y-13170809D01*
X10234605Y-13162894D01*
X10252364Y-13159361D01*
X10254891Y-13158859D01*
X10275574Y-13158859D01*
X10278101Y-13159361D01*
G37*
G36*
X10786101Y-13159361D02*
G01*
X10803860Y-13162894D01*
X10822969Y-13170809D01*
X10840166Y-13182300D01*
X10854792Y-13196925D01*
X10866283Y-13214122D01*
X10874198Y-13233231D01*
X10878233Y-13253517D01*
X10878233Y-13274200D01*
X10874198Y-13294486D01*
X10866283Y-13313595D01*
X10854792Y-13330792D01*
X10840166Y-13345418D01*
X10822969Y-13356908D01*
X10803860Y-13364824D01*
X10786101Y-13368356D01*
X10783574Y-13368859D01*
X10762891Y-13368859D01*
X10760364Y-13368356D01*
X10742605Y-13364824D01*
X10723497Y-13356908D01*
X10706299Y-13345418D01*
X10691674Y-13330792D01*
X10680183Y-13313595D01*
X10672268Y-13294486D01*
X10668233Y-13274200D01*
X10668233Y-13253517D01*
X10672268Y-13233231D01*
X10680183Y-13214122D01*
X10691674Y-13196925D01*
X10706299Y-13182300D01*
X10723497Y-13170809D01*
X10742605Y-13162894D01*
X10760364Y-13159361D01*
X10762891Y-13158859D01*
X10783574Y-13158859D01*
X10786101Y-13159361D01*
G37*
G36*
X7790171Y-12898454D02*
G01*
X7830209Y-12915038D01*
X7830209Y-12915038D01*
X7866242Y-12939115D01*
X7896885Y-12969758D01*
X7916769Y-12999517D01*
X7920962Y-13005791D01*
X7937546Y-13045828D01*
X7946000Y-13088332D01*
X7946000Y-13131668D01*
X7937546Y-13174171D01*
X7928121Y-13196925D01*
X7920961Y-13214209D01*
X7896885Y-13250242D01*
X7866242Y-13280885D01*
X7830209Y-13304961D01*
X7830209Y-13304962D01*
X7830209Y-13304962D01*
X7790171Y-13321546D01*
X7747668Y-13330000D01*
X7704332Y-13330000D01*
X7661828Y-13321546D01*
X7621791Y-13304962D01*
X7621791Y-13304962D01*
X7621791Y-13304961D01*
X7585758Y-13280885D01*
X7555115Y-13250242D01*
X7531038Y-13214209D01*
X7523879Y-13196925D01*
X7514454Y-13174171D01*
X7506000Y-13131668D01*
X7506000Y-13088332D01*
X7514454Y-13045828D01*
X7531038Y-13005791D01*
X7535231Y-12999517D01*
X7555115Y-12969758D01*
X7585758Y-12939115D01*
X7621791Y-12915038D01*
X7621791Y-12915038D01*
X7661828Y-12898454D01*
X7704332Y-12890000D01*
X7747668Y-12890000D01*
X7790171Y-12898454D01*
G37*
G36*
X12988171Y-12898454D02*
G01*
X13028209Y-12915038D01*
X13028209Y-12915038D01*
X13064242Y-12939115D01*
X13094885Y-12969758D01*
X13114769Y-12999517D01*
X13118962Y-13005791D01*
X13135546Y-13045828D01*
X13144000Y-13088332D01*
X13144000Y-13131668D01*
X13135546Y-13174171D01*
X13126121Y-13196925D01*
X13118961Y-13214209D01*
X13094885Y-13250242D01*
X13064242Y-13280885D01*
X13028209Y-13304961D01*
X13028209Y-13304962D01*
X13028209Y-13304962D01*
X12988171Y-13321546D01*
X12945668Y-13330000D01*
X12902332Y-13330000D01*
X12859828Y-13321546D01*
X12819791Y-13304962D01*
X12819791Y-13304962D01*
X12819791Y-13304961D01*
X12783758Y-13280885D01*
X12753115Y-13250242D01*
X12729038Y-13214209D01*
X12721879Y-13196925D01*
X12712454Y-13174171D01*
X12704000Y-13131668D01*
X12704000Y-13088332D01*
X12712454Y-13045828D01*
X12729038Y-13005791D01*
X12733231Y-12999517D01*
X12753115Y-12969758D01*
X12783758Y-12939115D01*
X12819791Y-12915038D01*
X12819791Y-12915038D01*
X12859828Y-12898454D01*
X12902332Y-12890000D01*
X12945668Y-12890000D01*
X12988171Y-12898454D01*
G37*
G36*
X10532101Y-12905361D02*
G01*
X10549860Y-12908894D01*
X10568969Y-12916809D01*
X10586166Y-12928300D01*
X10600792Y-12942925D01*
X10612283Y-12960122D01*
X10620198Y-12979231D01*
X10624233Y-12999517D01*
X10624233Y-13020200D01*
X10620198Y-13040486D01*
X10612283Y-13059595D01*
X10600792Y-13076792D01*
X10586166Y-13091418D01*
X10568969Y-13102908D01*
X10549860Y-13110824D01*
X10532101Y-13114356D01*
X10529574Y-13114859D01*
X10508891Y-13114859D01*
X10506364Y-13114356D01*
X10488605Y-13110824D01*
X10469497Y-13102908D01*
X10452299Y-13091418D01*
X10437674Y-13076792D01*
X10426183Y-13059595D01*
X10418268Y-13040486D01*
X10414233Y-13020200D01*
X10414233Y-12999517D01*
X10418268Y-12979231D01*
X10426183Y-12960122D01*
X10437674Y-12942925D01*
X10452299Y-12928300D01*
X10469497Y-12916809D01*
X10488605Y-12908894D01*
X10506364Y-12905361D01*
X10508891Y-12904859D01*
X10529574Y-12904859D01*
X10532101Y-12905361D01*
G37*
G36*
X10278101Y-12905361D02*
G01*
X10295860Y-12908894D01*
X10314969Y-12916809D01*
X10332166Y-12928300D01*
X10346792Y-12942925D01*
X10358283Y-12960122D01*
X10366198Y-12979231D01*
X10370233Y-12999517D01*
X10370233Y-13020200D01*
X10366198Y-13040486D01*
X10358283Y-13059595D01*
X10346792Y-13076792D01*
X10332166Y-13091418D01*
X10314969Y-13102908D01*
X10295860Y-13110824D01*
X10278101Y-13114356D01*
X10275574Y-13114859D01*
X10254891Y-13114859D01*
X10252364Y-13114356D01*
X10234605Y-13110824D01*
X10215497Y-13102908D01*
X10198299Y-13091418D01*
X10183674Y-13076792D01*
X10172183Y-13059595D01*
X10164268Y-13040486D01*
X10160233Y-13020200D01*
X10160233Y-12999517D01*
X10164268Y-12979231D01*
X10172183Y-12960122D01*
X10183674Y-12942925D01*
X10198299Y-12928300D01*
X10215497Y-12916809D01*
X10234605Y-12908894D01*
X10252364Y-12905361D01*
X10254891Y-12904859D01*
X10275574Y-12904859D01*
X10278101Y-12905361D01*
G37*
G36*
X10878233Y-13114859D02*
G01*
X10668233Y-13114859D01*
X10668233Y-12904859D01*
X10878233Y-12904859D01*
X10878233Y-13114859D01*
G37*
G36*
X8040171Y-11928454D02*
G01*
X8080209Y-11945038D01*
X8080209Y-11945038D01*
X8116242Y-11969115D01*
X8146885Y-11999758D01*
X8170962Y-12035791D01*
X8187546Y-12075828D01*
X8196000Y-12118332D01*
X8196000Y-12161668D01*
X8187546Y-12204171D01*
X8170962Y-12244209D01*
X8170961Y-12244209D01*
X8146885Y-12280242D01*
X8116242Y-12310885D01*
X8080209Y-12334961D01*
X8080209Y-12334962D01*
X8080209Y-12334962D01*
X8040171Y-12351546D01*
X7997668Y-12360000D01*
X7954332Y-12360000D01*
X7911828Y-12351546D01*
X7871791Y-12334962D01*
X7871791Y-12334962D01*
X7871791Y-12334961D01*
X7835758Y-12310885D01*
X7805115Y-12280242D01*
X7781038Y-12244209D01*
X7781038Y-12244209D01*
X7764454Y-12204171D01*
X7756000Y-12161668D01*
X7756000Y-12118332D01*
X7764454Y-12075828D01*
X7781038Y-12035791D01*
X7805115Y-11999758D01*
X7835758Y-11969115D01*
X7871791Y-11945038D01*
X7871791Y-11945038D01*
X7911828Y-11928454D01*
X7954332Y-11920000D01*
X7997668Y-11920000D01*
X8040171Y-11928454D01*
G37*
G36*
X13238171Y-11928454D02*
G01*
X13278209Y-11945038D01*
X13278209Y-11945038D01*
X13314242Y-11969115D01*
X13344885Y-11999758D01*
X13368962Y-12035791D01*
X13385546Y-12075828D01*
X13394000Y-12118332D01*
X13394000Y-12161668D01*
X13385546Y-12204171D01*
X13368962Y-12244209D01*
X13368961Y-12244209D01*
X13344885Y-12280242D01*
X13314242Y-12310885D01*
X13278209Y-12334961D01*
X13278209Y-12334962D01*
X13278209Y-12334962D01*
X13238171Y-12351546D01*
X13195668Y-12360000D01*
X13152332Y-12360000D01*
X13109828Y-12351546D01*
X13069791Y-12334962D01*
X13069791Y-12334962D01*
X13069791Y-12334961D01*
X13033758Y-12310885D01*
X13003115Y-12280242D01*
X12979038Y-12244209D01*
X12979038Y-12244209D01*
X12962454Y-12204171D01*
X12954000Y-12161668D01*
X12954000Y-12118332D01*
X12962454Y-12075828D01*
X12979038Y-12035791D01*
X13003115Y-11999758D01*
X13033758Y-11969115D01*
X13069791Y-11945038D01*
X13069791Y-11945038D01*
X13109828Y-11928454D01*
X13152332Y-11920000D01*
X13195668Y-11920000D01*
X13238171Y-11928454D01*
G37*
G36*
X9288295Y-11620572D02*
G01*
X9314683Y-11631503D01*
X9314683Y-11631503D01*
X9338432Y-11647371D01*
X9358629Y-11667568D01*
X9374497Y-11691317D01*
X9374497Y-11691317D01*
X9385428Y-11717705D01*
X9391000Y-11745719D01*
X9391000Y-11774281D01*
X9385428Y-11802295D01*
X9374497Y-11828683D01*
X9374497Y-11828683D01*
X9358629Y-11852432D01*
X9338432Y-11872629D01*
X9314683Y-11888497D01*
X9314683Y-11888497D01*
X9314683Y-11888497D01*
X9288295Y-11899428D01*
X9260281Y-11905000D01*
X9231719Y-11905000D01*
X9203705Y-11899428D01*
X9177317Y-11888497D01*
X9177317Y-11888497D01*
X9177317Y-11888497D01*
X9153568Y-11872629D01*
X9133371Y-11852432D01*
X9117503Y-11828683D01*
X9117503Y-11828683D01*
X9106572Y-11802295D01*
X9101000Y-11774281D01*
X9101000Y-11745719D01*
X9106572Y-11717705D01*
X9117503Y-11691317D01*
X9117503Y-11691317D01*
X9133371Y-11667568D01*
X9153568Y-11647371D01*
X9177317Y-11631503D01*
X9177317Y-11631503D01*
X9203705Y-11620572D01*
X9231719Y-11615000D01*
X9260281Y-11615000D01*
X9288295Y-11620572D01*
G37*
G36*
X11696295Y-11620572D02*
G01*
X11722683Y-11631503D01*
X11722683Y-11631503D01*
X11746432Y-11647371D01*
X11766629Y-11667568D01*
X11782497Y-11691317D01*
X11782497Y-11691317D01*
X11793428Y-11717705D01*
X11799000Y-11745719D01*
X11799000Y-11774281D01*
X11793428Y-11802295D01*
X11782497Y-11828683D01*
X11782497Y-11828683D01*
X11766629Y-11852432D01*
X11746432Y-11872629D01*
X11722683Y-11888497D01*
X11722683Y-11888497D01*
X11722683Y-11888497D01*
X11696295Y-11899428D01*
X11668281Y-11905000D01*
X11639719Y-11905000D01*
X11611705Y-11899428D01*
X11585317Y-11888497D01*
X11585317Y-11888497D01*
X11585317Y-11888497D01*
X11561568Y-11872629D01*
X11541371Y-11852432D01*
X11525503Y-11828683D01*
X11525503Y-11828683D01*
X11514572Y-11802295D01*
X11509000Y-11774281D01*
X11509000Y-11745719D01*
X11514572Y-11717705D01*
X11525503Y-11691317D01*
X11525503Y-11691317D01*
X11541371Y-11667568D01*
X11561568Y-11647371D01*
X11585317Y-11631503D01*
X11585317Y-11631503D01*
X11611705Y-11620572D01*
X11639719Y-11615000D01*
X11668281Y-11615000D01*
X11696295Y-11620572D01*
G37*
G36*
X14850633Y-10268258D02*
G01*
X14913419Y-10294265D01*
X14913419Y-10294265D01*
X14969925Y-10332021D01*
X15017979Y-10380075D01*
X15055379Y-10436048D01*
X15055735Y-10436581D01*
X15081742Y-10499367D01*
X15095000Y-10566020D01*
X15095000Y-10633980D01*
X15081742Y-10700633D01*
X15055735Y-10763419D01*
X15055735Y-10763419D01*
X15017979Y-10819925D01*
X14969925Y-10867979D01*
X14913419Y-10905735D01*
X14913419Y-10905735D01*
X14913419Y-10905735D01*
X14850633Y-10931742D01*
X14783980Y-10945000D01*
X14716020Y-10945000D01*
X14649367Y-10931742D01*
X14586581Y-10905735D01*
X14586581Y-10905735D01*
X14586581Y-10905735D01*
X14530075Y-10867979D01*
X14482021Y-10819925D01*
X14444265Y-10763419D01*
X14444265Y-10763419D01*
X14418258Y-10700633D01*
X14405000Y-10633980D01*
X14405000Y-10566020D01*
X14418258Y-10499367D01*
X14444265Y-10436581D01*
X14444621Y-10436048D01*
X14482021Y-10380075D01*
X14530075Y-10332021D01*
X14586581Y-10294265D01*
X14586581Y-10294265D01*
X14649367Y-10268258D01*
X14716020Y-10255000D01*
X14783980Y-10255000D01*
X14850633Y-10268258D01*
G37*
G36*
X9288295Y-10600572D02*
G01*
X9314497Y-10611426D01*
X9314683Y-10611503D01*
X9338432Y-10627371D01*
X9358629Y-10647568D01*
X9374497Y-10671317D01*
X9374497Y-10671317D01*
X9385428Y-10697705D01*
X9391000Y-10725719D01*
X9391000Y-10754281D01*
X9385428Y-10782295D01*
X9374497Y-10808683D01*
X9374497Y-10808683D01*
X9358629Y-10832432D01*
X9338432Y-10852629D01*
X9314683Y-10868497D01*
X9314683Y-10868497D01*
X9314683Y-10868497D01*
X9288295Y-10879428D01*
X9260281Y-10885000D01*
X9231719Y-10885000D01*
X9203705Y-10879428D01*
X9177317Y-10868497D01*
X9177317Y-10868497D01*
X9177317Y-10868497D01*
X9153568Y-10852629D01*
X9133371Y-10832432D01*
X9117503Y-10808683D01*
X9117503Y-10808683D01*
X9106572Y-10782295D01*
X9101000Y-10754281D01*
X9101000Y-10725719D01*
X9106572Y-10697705D01*
X9117503Y-10671317D01*
X9117503Y-10671317D01*
X9133371Y-10647568D01*
X9153568Y-10627371D01*
X9177317Y-10611503D01*
X9177503Y-10611426D01*
X9203705Y-10600572D01*
X9231719Y-10595000D01*
X9260281Y-10595000D01*
X9288295Y-10600572D01*
G37*
G36*
X11696295Y-10600572D02*
G01*
X11722497Y-10611426D01*
X11722683Y-10611503D01*
X11746432Y-10627371D01*
X11766629Y-10647568D01*
X11782497Y-10671317D01*
X11782497Y-10671317D01*
X11793428Y-10697705D01*
X11799000Y-10725719D01*
X11799000Y-10754281D01*
X11793428Y-10782295D01*
X11782497Y-10808683D01*
X11782497Y-10808683D01*
X11766629Y-10832432D01*
X11746432Y-10852629D01*
X11722683Y-10868497D01*
X11722683Y-10868497D01*
X11722683Y-10868497D01*
X11696295Y-10879428D01*
X11668281Y-10885000D01*
X11639719Y-10885000D01*
X11611705Y-10879428D01*
X11585317Y-10868497D01*
X11585317Y-10868497D01*
X11585317Y-10868497D01*
X11561568Y-10852629D01*
X11541371Y-10832432D01*
X11525503Y-10808683D01*
X11525503Y-10808683D01*
X11514572Y-10782295D01*
X11509000Y-10754281D01*
X11509000Y-10725719D01*
X11514572Y-10697705D01*
X11525503Y-10671317D01*
X11525503Y-10671317D01*
X11541371Y-10647568D01*
X11561568Y-10627371D01*
X11585317Y-10611503D01*
X11585503Y-10611426D01*
X11611705Y-10600572D01*
X11639719Y-10595000D01*
X11668281Y-10595000D01*
X11696295Y-10600572D01*
G37*
G36*
X6286048Y-10066337D02*
G01*
X6339735Y-10088574D01*
X6339735Y-10088574D01*
X6388052Y-10120859D01*
X6429141Y-10161948D01*
X6461426Y-10210265D01*
X6461426Y-10210265D01*
X6483663Y-10263952D01*
X6495000Y-10320945D01*
X6495000Y-10379055D01*
X6483663Y-10436048D01*
X6461426Y-10489735D01*
X6461426Y-10489735D01*
X6429141Y-10538052D01*
X6388052Y-10579142D01*
X6339735Y-10611426D01*
X6339735Y-10611426D01*
X6339735Y-10611426D01*
X6286048Y-10633663D01*
X6229055Y-10645000D01*
X6170945Y-10645000D01*
X6113952Y-10633663D01*
X6060265Y-10611426D01*
X6060265Y-10611426D01*
X6060265Y-10611426D01*
X6011948Y-10579142D01*
X5970858Y-10538052D01*
X5938574Y-10489735D01*
X5938574Y-10489735D01*
X5916337Y-10436048D01*
X5905000Y-10379055D01*
X5905000Y-10320945D01*
X5916337Y-10263952D01*
X5938574Y-10210265D01*
X5938574Y-10210265D01*
X5970858Y-10161948D01*
X6011948Y-10120859D01*
X6060265Y-10088574D01*
X6060265Y-10088574D01*
X6113952Y-10066337D01*
X6170945Y-10055000D01*
X6229055Y-10055000D01*
X6286048Y-10066337D01*
G37*
G36*
X7790171Y-10148454D02*
G01*
X7830209Y-10165038D01*
X7830209Y-10165039D01*
X7866242Y-10189115D01*
X7896885Y-10219758D01*
X7920962Y-10255791D01*
X7937546Y-10295829D01*
X7946000Y-10338332D01*
X7946000Y-10381668D01*
X7937546Y-10424172D01*
X7920962Y-10464209D01*
X7920961Y-10464209D01*
X7896885Y-10500242D01*
X7866242Y-10530885D01*
X7830209Y-10554962D01*
X7830209Y-10554962D01*
X7830209Y-10554962D01*
X7790171Y-10571546D01*
X7747668Y-10580000D01*
X7704332Y-10580000D01*
X7661828Y-10571546D01*
X7621791Y-10554962D01*
X7621791Y-10554962D01*
X7621791Y-10554962D01*
X7585758Y-10530885D01*
X7555115Y-10500242D01*
X7531038Y-10464209D01*
X7531038Y-10464209D01*
X7514454Y-10424172D01*
X7506000Y-10381668D01*
X7506000Y-10338332D01*
X7514454Y-10295829D01*
X7531038Y-10255791D01*
X7555115Y-10219758D01*
X7585758Y-10189115D01*
X7621791Y-10165039D01*
X7621791Y-10165038D01*
X7661828Y-10148454D01*
X7704332Y-10140000D01*
X7747668Y-10140000D01*
X7790171Y-10148454D01*
G37*
G36*
X12988171Y-10148454D02*
G01*
X13028209Y-10165038D01*
X13028209Y-10165039D01*
X13064242Y-10189115D01*
X13094885Y-10219758D01*
X13118962Y-10255791D01*
X13135546Y-10295829D01*
X13144000Y-10338332D01*
X13144000Y-10381668D01*
X13135546Y-10424172D01*
X13118962Y-10464209D01*
X13118961Y-10464209D01*
X13094885Y-10500242D01*
X13064242Y-10530885D01*
X13028209Y-10554962D01*
X13028209Y-10554962D01*
X13028209Y-10554962D01*
X12988171Y-10571546D01*
X12945668Y-10580000D01*
X12902332Y-10580000D01*
X12859828Y-10571546D01*
X12819791Y-10554962D01*
X12819791Y-10554962D01*
X12819791Y-10554962D01*
X12783758Y-10530885D01*
X12753115Y-10500242D01*
X12729038Y-10464209D01*
X12729038Y-10464209D01*
X12712454Y-10424172D01*
X12704000Y-10381668D01*
X12704000Y-10338332D01*
X12712454Y-10295829D01*
X12729038Y-10255791D01*
X12753115Y-10219758D01*
X12783758Y-10189115D01*
X12819791Y-10165039D01*
X12819791Y-10165038D01*
X12859828Y-10148454D01*
X12902332Y-10140000D01*
X12945668Y-10140000D01*
X12988171Y-10148454D01*
G37*
G36*
X8040171Y-9178454D02*
G01*
X8080209Y-9195038D01*
X8080209Y-9195039D01*
X8106247Y-9212437D01*
X8116242Y-9219115D01*
X8146885Y-9249758D01*
X8170962Y-9285791D01*
X8187546Y-9325829D01*
X8196000Y-9368332D01*
X8196000Y-9411668D01*
X8187546Y-9454172D01*
X8170962Y-9494209D01*
X8170961Y-9494209D01*
X8146885Y-9530242D01*
X8116242Y-9560885D01*
X8080209Y-9584962D01*
X8080209Y-9584962D01*
X8080209Y-9584962D01*
X8040171Y-9601546D01*
X7997668Y-9610000D01*
X7954332Y-9610000D01*
X7911828Y-9601546D01*
X7871791Y-9584962D01*
X7871791Y-9584962D01*
X7871791Y-9584962D01*
X7835758Y-9560885D01*
X7805115Y-9530242D01*
X7781038Y-9494209D01*
X7781038Y-9494209D01*
X7764454Y-9454172D01*
X7756000Y-9411668D01*
X7756000Y-9368332D01*
X7764454Y-9325829D01*
X7781038Y-9285791D01*
X7805115Y-9249758D01*
X7835758Y-9219115D01*
X7845753Y-9212437D01*
X7871791Y-9195039D01*
X7871791Y-9195038D01*
X7911828Y-9178454D01*
X7954332Y-9170000D01*
X7997668Y-9170000D01*
X8040171Y-9178454D01*
G37*
G36*
X13238171Y-9178454D02*
G01*
X13278209Y-9195038D01*
X13278209Y-9195039D01*
X13304247Y-9212437D01*
X13314242Y-9219115D01*
X13344885Y-9249758D01*
X13368962Y-9285791D01*
X13385546Y-9325829D01*
X13394000Y-9368332D01*
X13394000Y-9411668D01*
X13385546Y-9454172D01*
X13368962Y-9494209D01*
X13368961Y-9494209D01*
X13344885Y-9530242D01*
X13314242Y-9560885D01*
X13278209Y-9584962D01*
X13278209Y-9584962D01*
X13278209Y-9584962D01*
X13238171Y-9601546D01*
X13195668Y-9610000D01*
X13152332Y-9610000D01*
X13109828Y-9601546D01*
X13069791Y-9584962D01*
X13069791Y-9584962D01*
X13069791Y-9584962D01*
X13033758Y-9560885D01*
X13003115Y-9530242D01*
X12979038Y-9494209D01*
X12979038Y-9494209D01*
X12962454Y-9454172D01*
X12954000Y-9411668D01*
X12954000Y-9368332D01*
X12962454Y-9325829D01*
X12979038Y-9285791D01*
X13003115Y-9249758D01*
X13033758Y-9219115D01*
X13043753Y-9212437D01*
X13069791Y-9195039D01*
X13069791Y-9195038D01*
X13109828Y-9178454D01*
X13152332Y-9170000D01*
X13195668Y-9170000D01*
X13238171Y-9178454D01*
G37*
G36*
X10233088Y-9267701D02*
G01*
X10023088Y-9267701D01*
X10023088Y-9057701D01*
X10233088Y-9057701D01*
X10233088Y-9267701D01*
G37*
G36*
X10394957Y-9058203D02*
G01*
X10412715Y-9061736D01*
X10431824Y-9069651D01*
X10449022Y-9081142D01*
X10463647Y-9095767D01*
X10475138Y-9112964D01*
X10483053Y-9132073D01*
X10487088Y-9152359D01*
X10487088Y-9173042D01*
X10483053Y-9193328D01*
X10475138Y-9212437D01*
X10463647Y-9229634D01*
X10449022Y-9244259D01*
X10431824Y-9255750D01*
X10412715Y-9263666D01*
X10394957Y-9267198D01*
X10392430Y-9267701D01*
X10371746Y-9267701D01*
X10369219Y-9267198D01*
X10351461Y-9263666D01*
X10332352Y-9255750D01*
X10315154Y-9244259D01*
X10300529Y-9229634D01*
X10289038Y-9212437D01*
X10281123Y-9193328D01*
X10277088Y-9173042D01*
X10277088Y-9152359D01*
X10281123Y-9132073D01*
X10289038Y-9112964D01*
X10300529Y-9095767D01*
X10315154Y-9081142D01*
X10332352Y-9069651D01*
X10351461Y-9061736D01*
X10369219Y-9058203D01*
X10371746Y-9057701D01*
X10392430Y-9057701D01*
X10394957Y-9058203D01*
G37*
G36*
X10648957Y-9058203D02*
G01*
X10666715Y-9061736D01*
X10685824Y-9069651D01*
X10703022Y-9081142D01*
X10717647Y-9095767D01*
X10729138Y-9112964D01*
X10737053Y-9132073D01*
X10741088Y-9152359D01*
X10741088Y-9173042D01*
X10737053Y-9193328D01*
X10729138Y-9212437D01*
X10717647Y-9229634D01*
X10703022Y-9244259D01*
X10685824Y-9255750D01*
X10666715Y-9263666D01*
X10648957Y-9267198D01*
X10646430Y-9267701D01*
X10625746Y-9267701D01*
X10623219Y-9267198D01*
X10605461Y-9263666D01*
X10586352Y-9255750D01*
X10569154Y-9244259D01*
X10554529Y-9229634D01*
X10543038Y-9212437D01*
X10535123Y-9193328D01*
X10531088Y-9173042D01*
X10531088Y-9152359D01*
X10535123Y-9132073D01*
X10543038Y-9112964D01*
X10554529Y-9095767D01*
X10569154Y-9081142D01*
X10586352Y-9069651D01*
X10605461Y-9061736D01*
X10623219Y-9058203D01*
X10625746Y-9057701D01*
X10646430Y-9057701D01*
X10648957Y-9058203D01*
G37*
G36*
X9288295Y-8870572D02*
G01*
X9306404Y-8878073D01*
X9314683Y-8881503D01*
X9338432Y-8897371D01*
X9358629Y-8917568D01*
X9373168Y-8939328D01*
X9374497Y-8941317D01*
X9385428Y-8967705D01*
X9391000Y-8995719D01*
X9391000Y-9024281D01*
X9385428Y-9052295D01*
X9378239Y-9069651D01*
X9374497Y-9078683D01*
X9358629Y-9102432D01*
X9338432Y-9122629D01*
X9314683Y-9138497D01*
X9314683Y-9138497D01*
X9314683Y-9138497D01*
X9288295Y-9149428D01*
X9260281Y-9155000D01*
X9231719Y-9155000D01*
X9203705Y-9149428D01*
X9177317Y-9138497D01*
X9177317Y-9138497D01*
X9177317Y-9138497D01*
X9153568Y-9122629D01*
X9133371Y-9102432D01*
X9117503Y-9078683D01*
X9113761Y-9069651D01*
X9106572Y-9052295D01*
X9101000Y-9024281D01*
X9101000Y-8995719D01*
X9106572Y-8967705D01*
X9117503Y-8941317D01*
X9118832Y-8939328D01*
X9133371Y-8917568D01*
X9153568Y-8897371D01*
X9177317Y-8881503D01*
X9185596Y-8878073D01*
X9203705Y-8870572D01*
X9231719Y-8865000D01*
X9260281Y-8865000D01*
X9288295Y-8870572D01*
G37*
G36*
X11696295Y-8870572D02*
G01*
X11714404Y-8878073D01*
X11722683Y-8881503D01*
X11746432Y-8897371D01*
X11766629Y-8917568D01*
X11781168Y-8939328D01*
X11782497Y-8941317D01*
X11793428Y-8967705D01*
X11799000Y-8995719D01*
X11799000Y-9024281D01*
X11793428Y-9052295D01*
X11786239Y-9069651D01*
X11782497Y-9078683D01*
X11766629Y-9102432D01*
X11746432Y-9122629D01*
X11722683Y-9138497D01*
X11722683Y-9138497D01*
X11722683Y-9138497D01*
X11696295Y-9149428D01*
X11668281Y-9155000D01*
X11639719Y-9155000D01*
X11611705Y-9149428D01*
X11585317Y-9138497D01*
X11585317Y-9138497D01*
X11585317Y-9138497D01*
X11561568Y-9122629D01*
X11541371Y-9102432D01*
X11525503Y-9078683D01*
X11521761Y-9069651D01*
X11514572Y-9052295D01*
X11509000Y-9024281D01*
X11509000Y-8995719D01*
X11514572Y-8967705D01*
X11525503Y-8941317D01*
X11526832Y-8939328D01*
X11541371Y-8917568D01*
X11561568Y-8897371D01*
X11585317Y-8881503D01*
X11593596Y-8878073D01*
X11611705Y-8870572D01*
X11639719Y-8865000D01*
X11668281Y-8865000D01*
X11696295Y-8870572D01*
G37*
G36*
X10648957Y-8804203D02*
G01*
X10666715Y-8807736D01*
X10685824Y-8815651D01*
X10703022Y-8827142D01*
X10717647Y-8841767D01*
X10729138Y-8858964D01*
X10737053Y-8878073D01*
X10741088Y-8898359D01*
X10741088Y-8919042D01*
X10737053Y-8939328D01*
X10729138Y-8958437D01*
X10717647Y-8975634D01*
X10703022Y-8990259D01*
X10685824Y-9001750D01*
X10666715Y-9009666D01*
X10648957Y-9013198D01*
X10646430Y-9013701D01*
X10625746Y-9013701D01*
X10623219Y-9013198D01*
X10605461Y-9009666D01*
X10586352Y-9001750D01*
X10569154Y-8990259D01*
X10554529Y-8975634D01*
X10543038Y-8958437D01*
X10535123Y-8939328D01*
X10531088Y-8919042D01*
X10531088Y-8898359D01*
X10535123Y-8878073D01*
X10543038Y-8858964D01*
X10554529Y-8841767D01*
X10569154Y-8827142D01*
X10586352Y-8815651D01*
X10605461Y-8807736D01*
X10623219Y-8804203D01*
X10625746Y-8803701D01*
X10646430Y-8803701D01*
X10648957Y-8804203D01*
G37*
G36*
X10140957Y-8804203D02*
G01*
X10158715Y-8807736D01*
X10177824Y-8815651D01*
X10195022Y-8827142D01*
X10209647Y-8841767D01*
X10221138Y-8858964D01*
X10229053Y-8878073D01*
X10233088Y-8898359D01*
X10233088Y-8919042D01*
X10229053Y-8939328D01*
X10221138Y-8958437D01*
X10209647Y-8975634D01*
X10195022Y-8990259D01*
X10177824Y-9001750D01*
X10158715Y-9009666D01*
X10140957Y-9013198D01*
X10138430Y-9013701D01*
X10117746Y-9013701D01*
X10115219Y-9013198D01*
X10097461Y-9009666D01*
X10078352Y-9001750D01*
X10061154Y-8990259D01*
X10046529Y-8975634D01*
X10035038Y-8958437D01*
X10027123Y-8939328D01*
X10023088Y-8919042D01*
X10023088Y-8898359D01*
X10027123Y-8878073D01*
X10035038Y-8858964D01*
X10046529Y-8841767D01*
X10061154Y-8827142D01*
X10078352Y-8815651D01*
X10097461Y-8807736D01*
X10115219Y-8804203D01*
X10117746Y-8803701D01*
X10138430Y-8803701D01*
X10140957Y-8804203D01*
G37*
G36*
X10394957Y-8804203D02*
G01*
X10412715Y-8807736D01*
X10431824Y-8815651D01*
X10449022Y-8827142D01*
X10463647Y-8841767D01*
X10475138Y-8858964D01*
X10483053Y-8878073D01*
X10487088Y-8898359D01*
X10487088Y-8919042D01*
X10483053Y-8939328D01*
X10475138Y-8958437D01*
X10463647Y-8975634D01*
X10449022Y-8990259D01*
X10431824Y-9001750D01*
X10412715Y-9009666D01*
X10394957Y-9013198D01*
X10392430Y-9013701D01*
X10371746Y-9013701D01*
X10369219Y-9013198D01*
X10351461Y-9009666D01*
X10332352Y-9001750D01*
X10315154Y-8990259D01*
X10300529Y-8975634D01*
X10289038Y-8958437D01*
X10281123Y-8939328D01*
X10277088Y-8919042D01*
X10277088Y-8898359D01*
X10281123Y-8878073D01*
X10289038Y-8858964D01*
X10300529Y-8841767D01*
X10315154Y-8827142D01*
X10332352Y-8815651D01*
X10351461Y-8807736D01*
X10369219Y-8804203D01*
X10371746Y-8803701D01*
X10392430Y-8803701D01*
X10394957Y-8804203D01*
G37*
G36*
X14850633Y-7518258D02*
G01*
X14913419Y-7544265D01*
X14913419Y-7544265D01*
X14969925Y-7582021D01*
X15017979Y-7630075D01*
X15055379Y-7686048D01*
X15055735Y-7686581D01*
X15081742Y-7749367D01*
X15095000Y-7816020D01*
X15095000Y-7883980D01*
X15081742Y-7950633D01*
X15055735Y-8013419D01*
X15055735Y-8013419D01*
X15017979Y-8069925D01*
X14969925Y-8117979D01*
X14913419Y-8155735D01*
X14913419Y-8155735D01*
X14913419Y-8155735D01*
X14850633Y-8181742D01*
X14783980Y-8195000D01*
X14716020Y-8195000D01*
X14649367Y-8181742D01*
X14586581Y-8155735D01*
X14586581Y-8155735D01*
X14586581Y-8155735D01*
X14530075Y-8117979D01*
X14482021Y-8069925D01*
X14444265Y-8013419D01*
X14444265Y-8013419D01*
X14418258Y-7950633D01*
X14405000Y-7883980D01*
X14405000Y-7816020D01*
X14418258Y-7749367D01*
X14444265Y-7686581D01*
X14444621Y-7686048D01*
X14482021Y-7630075D01*
X14530075Y-7582021D01*
X14586581Y-7544265D01*
X14586581Y-7544265D01*
X14649367Y-7518258D01*
X14716020Y-7505000D01*
X14783980Y-7505000D01*
X14850633Y-7518258D01*
G37*
G36*
X11696295Y-7850572D02*
G01*
X11722497Y-7861426D01*
X11722683Y-7861503D01*
X11746432Y-7877371D01*
X11766629Y-7897568D01*
X11782497Y-7921317D01*
X11782497Y-7921317D01*
X11793428Y-7947705D01*
X11799000Y-7975719D01*
X11799000Y-8004281D01*
X11793428Y-8032295D01*
X11782497Y-8058683D01*
X11782497Y-8058683D01*
X11766629Y-8082432D01*
X11746432Y-8102629D01*
X11722683Y-8118497D01*
X11722683Y-8118497D01*
X11722683Y-8118497D01*
X11696295Y-8129428D01*
X11668281Y-8135000D01*
X11639719Y-8135000D01*
X11611705Y-8129428D01*
X11585317Y-8118497D01*
X11585317Y-8118497D01*
X11585317Y-8118497D01*
X11561568Y-8102629D01*
X11541371Y-8082432D01*
X11525503Y-8058683D01*
X11525503Y-8058683D01*
X11514572Y-8032295D01*
X11509000Y-8004281D01*
X11509000Y-7975719D01*
X11514572Y-7947705D01*
X11525503Y-7921317D01*
X11525503Y-7921317D01*
X11541371Y-7897568D01*
X11561568Y-7877371D01*
X11585317Y-7861503D01*
X11585503Y-7861426D01*
X11611705Y-7850572D01*
X11639719Y-7845000D01*
X11668281Y-7845000D01*
X11696295Y-7850572D01*
G37*
G36*
X9288295Y-7850572D02*
G01*
X9314497Y-7861426D01*
X9314683Y-7861503D01*
X9338432Y-7877371D01*
X9358629Y-7897568D01*
X9374497Y-7921317D01*
X9374497Y-7921317D01*
X9385428Y-7947705D01*
X9391000Y-7975719D01*
X9391000Y-8004281D01*
X9385428Y-8032295D01*
X9374497Y-8058683D01*
X9374497Y-8058683D01*
X9358629Y-8082432D01*
X9338432Y-8102629D01*
X9314683Y-8118497D01*
X9314683Y-8118497D01*
X9314683Y-8118497D01*
X9288295Y-8129428D01*
X9260281Y-8135000D01*
X9231719Y-8135000D01*
X9203705Y-8129428D01*
X9177317Y-8118497D01*
X9177317Y-8118497D01*
X9177317Y-8118497D01*
X9153568Y-8102629D01*
X9133371Y-8082432D01*
X9117503Y-8058683D01*
X9117503Y-8058683D01*
X9106572Y-8032295D01*
X9101000Y-8004281D01*
X9101000Y-7975719D01*
X9106572Y-7947705D01*
X9117503Y-7921317D01*
X9117503Y-7921317D01*
X9133371Y-7897568D01*
X9153568Y-7877371D01*
X9177317Y-7861503D01*
X9177503Y-7861426D01*
X9203705Y-7850572D01*
X9231719Y-7845000D01*
X9260281Y-7845000D01*
X9288295Y-7850572D01*
G37*
G36*
X6286048Y-7316337D02*
G01*
X6339735Y-7338574D01*
X6339735Y-7338574D01*
X6388052Y-7370858D01*
X6429141Y-7411948D01*
X6461426Y-7460265D01*
X6461426Y-7460265D01*
X6483663Y-7513952D01*
X6495000Y-7570945D01*
X6495000Y-7629055D01*
X6483663Y-7686048D01*
X6461426Y-7739735D01*
X6461426Y-7739735D01*
X6429141Y-7788052D01*
X6388052Y-7829141D01*
X6339735Y-7861426D01*
X6339735Y-7861426D01*
X6339735Y-7861426D01*
X6286048Y-7883663D01*
X6229055Y-7895000D01*
X6170945Y-7895000D01*
X6113952Y-7883663D01*
X6060265Y-7861426D01*
X6060265Y-7861426D01*
X6060265Y-7861426D01*
X6011948Y-7829141D01*
X5970858Y-7788052D01*
X5938574Y-7739735D01*
X5938574Y-7739735D01*
X5916337Y-7686048D01*
X5905000Y-7629055D01*
X5905000Y-7570945D01*
X5916337Y-7513952D01*
X5938574Y-7460265D01*
X5938574Y-7460265D01*
X5970858Y-7411948D01*
X6011948Y-7370858D01*
X6060265Y-7338574D01*
X6060265Y-7338574D01*
X6113952Y-7316337D01*
X6170945Y-7305000D01*
X6229055Y-7305000D01*
X6286048Y-7316337D01*
G37*
G36*
X7790171Y-7398454D02*
G01*
X7830209Y-7415038D01*
X7830209Y-7415038D01*
X7866242Y-7439115D01*
X7896885Y-7469758D01*
X7920962Y-7505791D01*
X7937546Y-7545828D01*
X7946000Y-7588332D01*
X7946000Y-7631668D01*
X7937546Y-7674171D01*
X7920962Y-7714209D01*
X7920961Y-7714209D01*
X7896885Y-7750242D01*
X7866242Y-7780885D01*
X7830209Y-7804961D01*
X7830209Y-7804962D01*
X7830209Y-7804962D01*
X7790171Y-7821546D01*
X7747668Y-7830000D01*
X7704332Y-7830000D01*
X7661828Y-7821546D01*
X7621791Y-7804962D01*
X7621791Y-7804962D01*
X7621791Y-7804961D01*
X7585758Y-7780885D01*
X7555115Y-7750242D01*
X7531038Y-7714209D01*
X7531038Y-7714209D01*
X7514454Y-7674171D01*
X7506000Y-7631668D01*
X7506000Y-7588332D01*
X7514454Y-7545828D01*
X7531038Y-7505791D01*
X7555115Y-7469758D01*
X7585758Y-7439115D01*
X7621791Y-7415038D01*
X7621791Y-7415038D01*
X7661828Y-7398454D01*
X7704332Y-7390000D01*
X7747668Y-7390000D01*
X7790171Y-7398454D01*
G37*
G36*
X12988171Y-7398454D02*
G01*
X13028209Y-7415038D01*
X13028209Y-7415038D01*
X13064242Y-7439115D01*
X13094885Y-7469758D01*
X13118962Y-7505791D01*
X13135546Y-7545828D01*
X13144000Y-7588332D01*
X13144000Y-7631668D01*
X13135546Y-7674171D01*
X13118962Y-7714209D01*
X13118961Y-7714209D01*
X13094885Y-7750242D01*
X13064242Y-7780885D01*
X13028209Y-7804961D01*
X13028209Y-7804962D01*
X13028209Y-7804962D01*
X12988171Y-7821546D01*
X12945668Y-7830000D01*
X12902332Y-7830000D01*
X12859828Y-7821546D01*
X12819791Y-7804962D01*
X12819791Y-7804962D01*
X12819791Y-7804961D01*
X12783758Y-7780885D01*
X12753115Y-7750242D01*
X12729038Y-7714209D01*
X12729038Y-7714209D01*
X12712454Y-7674171D01*
X12704000Y-7631668D01*
X12704000Y-7588332D01*
X12712454Y-7545828D01*
X12729038Y-7505791D01*
X12753115Y-7469758D01*
X12783758Y-7439115D01*
X12819791Y-7415038D01*
X12819791Y-7415038D01*
X12859828Y-7398454D01*
X12902332Y-7390000D01*
X12945668Y-7390000D01*
X12988171Y-7398454D01*
G37*
G36*
X12623524Y-6814236D02*
G01*
X12646144Y-6821098D01*
X12646144Y-6821098D01*
X12666991Y-6832241D01*
X12666991Y-6832241D01*
X12666991Y-6832241D01*
X12685263Y-6847237D01*
X12688481Y-6851157D01*
X12700259Y-6865509D01*
X12711402Y-6886356D01*
X12711402Y-6886356D01*
X12711402Y-6886356D01*
X12718264Y-6908976D01*
X12720000Y-6926605D01*
X12720000Y-6988395D01*
X12718264Y-7006024D01*
X12715741Y-7014341D01*
X12711402Y-7028645D01*
X12700259Y-7049491D01*
X12685263Y-7067763D01*
X12666991Y-7082759D01*
X12646144Y-7093902D01*
X12646144Y-7093902D01*
X12623524Y-7100764D01*
X12600000Y-7103081D01*
X12576476Y-7100764D01*
X12553856Y-7093902D01*
X12553856Y-7093902D01*
X12533009Y-7082759D01*
X12514737Y-7067763D01*
X12499741Y-7049491D01*
X12488598Y-7028645D01*
X12488598Y-7028644D01*
X12481736Y-7006024D01*
X12480000Y-6988395D01*
X12480000Y-6926605D01*
X12481736Y-6908976D01*
X12488598Y-6886356D01*
X12488598Y-6886356D01*
X12499741Y-6865509D01*
X12502021Y-6862731D01*
X12514737Y-6847237D01*
X12525929Y-6838052D01*
X12533009Y-6832241D01*
X12553855Y-6821098D01*
X12553856Y-6821098D01*
X12576476Y-6814236D01*
X12600000Y-6811919D01*
X12623524Y-6814236D01*
G37*
G36*
X13823524Y-6814236D02*
G01*
X13846144Y-6821098D01*
X13846144Y-6821098D01*
X13866991Y-6832241D01*
X13866991Y-6832241D01*
X13866991Y-6832241D01*
X13885263Y-6847237D01*
X13888481Y-6851157D01*
X13900259Y-6865509D01*
X13911402Y-6886356D01*
X13911402Y-6886356D01*
X13911402Y-6886356D01*
X13918264Y-6908976D01*
X13920000Y-6926605D01*
X13920000Y-6988395D01*
X13918264Y-7006024D01*
X13915741Y-7014341D01*
X13911402Y-7028645D01*
X13900259Y-7049491D01*
X13885263Y-7067763D01*
X13866991Y-7082759D01*
X13846144Y-7093902D01*
X13846144Y-7093902D01*
X13823524Y-7100764D01*
X13800000Y-7103081D01*
X13776476Y-7100764D01*
X13753856Y-7093902D01*
X13753856Y-7093902D01*
X13733009Y-7082759D01*
X13714737Y-7067763D01*
X13699741Y-7049491D01*
X13688598Y-7028645D01*
X13688598Y-7028644D01*
X13681736Y-7006024D01*
X13680000Y-6988395D01*
X13680000Y-6926605D01*
X13681736Y-6908976D01*
X13688598Y-6886356D01*
X13688598Y-6886356D01*
X13699741Y-6865509D01*
X13702021Y-6862731D01*
X13714737Y-6847237D01*
X13725929Y-6838052D01*
X13733009Y-6832241D01*
X13753855Y-6821098D01*
X13753856Y-6821098D01*
X13776476Y-6814236D01*
X13800000Y-6811919D01*
X13823524Y-6814236D01*
G37*
G36*
X13535003Y-6842112D02*
G01*
X13556841Y-6851157D01*
X13556841Y-6851157D01*
X13576495Y-6864290D01*
X13593210Y-6881005D01*
X13606343Y-6900659D01*
X13615388Y-6922497D01*
X13620000Y-6945681D01*
X13620000Y-6969319D01*
X13615388Y-6992503D01*
X13609788Y-7006024D01*
X13606343Y-7014341D01*
X13593210Y-7033996D01*
X13576495Y-7050710D01*
X13556841Y-7063843D01*
X13556841Y-7063843D01*
X13556841Y-7063843D01*
X13535003Y-7072889D01*
X13511819Y-7077500D01*
X13488181Y-7077500D01*
X13464997Y-7072889D01*
X13443159Y-7063843D01*
X13443159Y-7063843D01*
X13443159Y-7063843D01*
X13423504Y-7050710D01*
X13406790Y-7033996D01*
X13393657Y-7014341D01*
X13390212Y-7006024D01*
X13384611Y-6992503D01*
X13380000Y-6969319D01*
X13380000Y-6945681D01*
X13384611Y-6922497D01*
X13393657Y-6900659D01*
X13406790Y-6881005D01*
X13423504Y-6864290D01*
X13443159Y-6851157D01*
X13443159Y-6851157D01*
X13464997Y-6842112D01*
X13488181Y-6837500D01*
X13511819Y-6837500D01*
X13535003Y-6842112D01*
G37*
G36*
X12935003Y-6842112D02*
G01*
X12956841Y-6851157D01*
X12956841Y-6851157D01*
X12976495Y-6864290D01*
X12993210Y-6881005D01*
X13006343Y-6900659D01*
X13015388Y-6922497D01*
X13020000Y-6945681D01*
X13020000Y-6969319D01*
X13015388Y-6992503D01*
X13009788Y-7006024D01*
X13006343Y-7014341D01*
X12993210Y-7033996D01*
X12976495Y-7050710D01*
X12956841Y-7063843D01*
X12956841Y-7063843D01*
X12956841Y-7063843D01*
X12935003Y-7072889D01*
X12911819Y-7077500D01*
X12888181Y-7077500D01*
X12864997Y-7072889D01*
X12843159Y-7063843D01*
X12843159Y-7063843D01*
X12843159Y-7063843D01*
X12823504Y-7050710D01*
X12806790Y-7033996D01*
X12793657Y-7014341D01*
X12790212Y-7006024D01*
X12784611Y-6992503D01*
X12780000Y-6969319D01*
X12780000Y-6945681D01*
X12784611Y-6922497D01*
X12793657Y-6900659D01*
X12806790Y-6881005D01*
X12823504Y-6864290D01*
X12843159Y-6851157D01*
X12843159Y-6851157D01*
X12864997Y-6842112D01*
X12888181Y-6837500D01*
X12911819Y-6837500D01*
X12935003Y-6842112D01*
G37*
G36*
X13235003Y-6842112D02*
G01*
X13256841Y-6851157D01*
X13256841Y-6851157D01*
X13276495Y-6864290D01*
X13293210Y-6881005D01*
X13306343Y-6900659D01*
X13315388Y-6922497D01*
X13320000Y-6945681D01*
X13320000Y-6969319D01*
X13315388Y-6992503D01*
X13309788Y-7006024D01*
X13306343Y-7014341D01*
X13293210Y-7033996D01*
X13276495Y-7050710D01*
X13256841Y-7063843D01*
X13256841Y-7063843D01*
X13256841Y-7063843D01*
X13235003Y-7072889D01*
X13211819Y-7077500D01*
X13188181Y-7077500D01*
X13164997Y-7072889D01*
X13143159Y-7063843D01*
X13143159Y-7063843D01*
X13143159Y-7063843D01*
X13123504Y-7050710D01*
X13106790Y-7033996D01*
X13093657Y-7014341D01*
X13090212Y-7006024D01*
X13084611Y-6992503D01*
X13080000Y-6969319D01*
X13080000Y-6945681D01*
X13084611Y-6922497D01*
X13093657Y-6900659D01*
X13106790Y-6881005D01*
X13123504Y-6864290D01*
X13143159Y-6851157D01*
X13143159Y-6851157D01*
X13164997Y-6842112D01*
X13188181Y-6837500D01*
X13211819Y-6837500D01*
X13235003Y-6842112D01*
G37*
G36*
X6336048Y-6366337D02*
G01*
X6364688Y-6378199D01*
X6389735Y-6388574D01*
X6438052Y-6420858D01*
X6479141Y-6461948D01*
X6489215Y-6477024D01*
X6511426Y-6510265D01*
X6533663Y-6563952D01*
X6545000Y-6620945D01*
X6545000Y-6679055D01*
X6533663Y-6736048D01*
X6514375Y-6782615D01*
X6511426Y-6789735D01*
X6479141Y-6838052D01*
X6438052Y-6879141D01*
X6389735Y-6911426D01*
X6389735Y-6911426D01*
X6389735Y-6911426D01*
X6336048Y-6933663D01*
X6279055Y-6945000D01*
X6220945Y-6945000D01*
X6163952Y-6933663D01*
X6110265Y-6911426D01*
X6110265Y-6911426D01*
X6110265Y-6911426D01*
X6061948Y-6879141D01*
X6020858Y-6838052D01*
X5988574Y-6789735D01*
X5985625Y-6782615D01*
X5966337Y-6736048D01*
X5955000Y-6679055D01*
X5955000Y-6620945D01*
X5966337Y-6563952D01*
X5988574Y-6510265D01*
X6010785Y-6477024D01*
X6020858Y-6461948D01*
X6061948Y-6420858D01*
X6110265Y-6388574D01*
X6135312Y-6378199D01*
X6163952Y-6366337D01*
X6220945Y-6355000D01*
X6279055Y-6355000D01*
X6336048Y-6366337D01*
G37*
G36*
X14886048Y-6366337D02*
G01*
X14914688Y-6378199D01*
X14939735Y-6388574D01*
X14988052Y-6420858D01*
X15029141Y-6461948D01*
X15039215Y-6477024D01*
X15061426Y-6510265D01*
X15083663Y-6563952D01*
X15095000Y-6620945D01*
X15095000Y-6679055D01*
X15083663Y-6736048D01*
X15064375Y-6782615D01*
X15061426Y-6789735D01*
X15029141Y-6838052D01*
X14988052Y-6879141D01*
X14939735Y-6911426D01*
X14939735Y-6911426D01*
X14939735Y-6911426D01*
X14886048Y-6933663D01*
X14829055Y-6945000D01*
X14770945Y-6945000D01*
X14713952Y-6933663D01*
X14660265Y-6911426D01*
X14660265Y-6911426D01*
X14660265Y-6911426D01*
X14611948Y-6879141D01*
X14570858Y-6838052D01*
X14538574Y-6789735D01*
X14535625Y-6782615D01*
X14516337Y-6736048D01*
X14505000Y-6679055D01*
X14505000Y-6620945D01*
X14516337Y-6563952D01*
X14538574Y-6510265D01*
X14560785Y-6477024D01*
X14570858Y-6461948D01*
X14611948Y-6420858D01*
X14660265Y-6388574D01*
X14685312Y-6378199D01*
X14713952Y-6366337D01*
X14770945Y-6355000D01*
X14829055Y-6355000D01*
X14886048Y-6366337D01*
G37*
G36*
X11299024Y-6597727D02*
G01*
X11318380Y-6605745D01*
X11335800Y-6617385D01*
X11350615Y-6632199D01*
X11362255Y-6649620D01*
X11370273Y-6668976D01*
X11374360Y-6689524D01*
X11374360Y-6710476D01*
X11370273Y-6731024D01*
X11362255Y-6750380D01*
X11350615Y-6767800D01*
X11335800Y-6782615D01*
X11318380Y-6794255D01*
X11299024Y-6802273D01*
X11278476Y-6806360D01*
X11257524Y-6806360D01*
X11236976Y-6802273D01*
X11217620Y-6794255D01*
X11200199Y-6782615D01*
X11185385Y-6767800D01*
X11173745Y-6750380D01*
X11165727Y-6731024D01*
X11161640Y-6710476D01*
X11161640Y-6689524D01*
X11165727Y-6668976D01*
X11173745Y-6649620D01*
X11185385Y-6632199D01*
X11200199Y-6617385D01*
X11217620Y-6605745D01*
X11236976Y-6597727D01*
X11257524Y-6593640D01*
X11278476Y-6593640D01*
X11299024Y-6597727D01*
G37*
G36*
X11807024Y-6597727D02*
G01*
X11826380Y-6605745D01*
X11843800Y-6617385D01*
X11858615Y-6632199D01*
X11870255Y-6649620D01*
X11878273Y-6668976D01*
X11882360Y-6689524D01*
X11882360Y-6710476D01*
X11878273Y-6731024D01*
X11870255Y-6750380D01*
X11858615Y-6767800D01*
X11843800Y-6782615D01*
X11826380Y-6794255D01*
X11807024Y-6802273D01*
X11786476Y-6806360D01*
X11765524Y-6806360D01*
X11744976Y-6802273D01*
X11725620Y-6794255D01*
X11708199Y-6782615D01*
X11693385Y-6767800D01*
X11681745Y-6750380D01*
X11673727Y-6731024D01*
X11669640Y-6710476D01*
X11669640Y-6689524D01*
X11673727Y-6668976D01*
X11681745Y-6649620D01*
X11693385Y-6632199D01*
X11708199Y-6617385D01*
X11725620Y-6605745D01*
X11744976Y-6597727D01*
X11765524Y-6593640D01*
X11786476Y-6593640D01*
X11807024Y-6597727D01*
G37*
G36*
X11553024Y-6597727D02*
G01*
X11572380Y-6605745D01*
X11589800Y-6617385D01*
X11604615Y-6632199D01*
X11616255Y-6649620D01*
X11624273Y-6668976D01*
X11628360Y-6689524D01*
X11628360Y-6710476D01*
X11624273Y-6731024D01*
X11616255Y-6750380D01*
X11604615Y-6767800D01*
X11589800Y-6782615D01*
X11572380Y-6794255D01*
X11553024Y-6802273D01*
X11532476Y-6806360D01*
X11511524Y-6806360D01*
X11490976Y-6802273D01*
X11471620Y-6794255D01*
X11454199Y-6782615D01*
X11439385Y-6767800D01*
X11427745Y-6750380D01*
X11419727Y-6731024D01*
X11415640Y-6710476D01*
X11415640Y-6689524D01*
X11419727Y-6668976D01*
X11427745Y-6649620D01*
X11439385Y-6632199D01*
X11454199Y-6617385D01*
X11471620Y-6605745D01*
X11490976Y-6597727D01*
X11511524Y-6593640D01*
X11532476Y-6593640D01*
X11553024Y-6597727D01*
G37*
G36*
X11045024Y-6597727D02*
G01*
X11064380Y-6605745D01*
X11081801Y-6617385D01*
X11096615Y-6632199D01*
X11108255Y-6649620D01*
X11116273Y-6668976D01*
X11120360Y-6689524D01*
X11120360Y-6710476D01*
X11116273Y-6731024D01*
X11108255Y-6750380D01*
X11096615Y-6767800D01*
X11081801Y-6782615D01*
X11064380Y-6794255D01*
X11045024Y-6802273D01*
X11024476Y-6806360D01*
X11003524Y-6806360D01*
X10982976Y-6802273D01*
X10963620Y-6794255D01*
X10946200Y-6782615D01*
X10931385Y-6767800D01*
X10919745Y-6750380D01*
X10911727Y-6731024D01*
X10907640Y-6710476D01*
X10907640Y-6689524D01*
X10911727Y-6668976D01*
X10919745Y-6649620D01*
X10931385Y-6632199D01*
X10946200Y-6617385D01*
X10963620Y-6605745D01*
X10982976Y-6597727D01*
X11003524Y-6593640D01*
X11024476Y-6593640D01*
X11045024Y-6597727D01*
G37*
G36*
X10791024Y-6597727D02*
G01*
X10810380Y-6605745D01*
X10827801Y-6617385D01*
X10842615Y-6632199D01*
X10854255Y-6649620D01*
X10862273Y-6668976D01*
X10866360Y-6689524D01*
X10866360Y-6710476D01*
X10862273Y-6731024D01*
X10854255Y-6750380D01*
X10842615Y-6767800D01*
X10827801Y-6782615D01*
X10810380Y-6794255D01*
X10791024Y-6802273D01*
X10770476Y-6806360D01*
X10749524Y-6806360D01*
X10728976Y-6802273D01*
X10709620Y-6794255D01*
X10692200Y-6782615D01*
X10677385Y-6767800D01*
X10665745Y-6750380D01*
X10657727Y-6731024D01*
X10653640Y-6710476D01*
X10653640Y-6689524D01*
X10657727Y-6668976D01*
X10665745Y-6649620D01*
X10677385Y-6632199D01*
X10692200Y-6617385D01*
X10709620Y-6605745D01*
X10728976Y-6597727D01*
X10749524Y-6593640D01*
X10770476Y-6593640D01*
X10791024Y-6597727D01*
G37*
G36*
X10537024Y-6597727D02*
G01*
X10556380Y-6605745D01*
X10573801Y-6617385D01*
X10588615Y-6632199D01*
X10600255Y-6649620D01*
X10608273Y-6668976D01*
X10612360Y-6689524D01*
X10612360Y-6710476D01*
X10608273Y-6731024D01*
X10600255Y-6750380D01*
X10588615Y-6767800D01*
X10573801Y-6782615D01*
X10556380Y-6794255D01*
X10537024Y-6802273D01*
X10516476Y-6806360D01*
X10495524Y-6806360D01*
X10474976Y-6802273D01*
X10455620Y-6794255D01*
X10438200Y-6782615D01*
X10423385Y-6767800D01*
X10411745Y-6750380D01*
X10403727Y-6731024D01*
X10399640Y-6710476D01*
X10399640Y-6689524D01*
X10403727Y-6668976D01*
X10411745Y-6649620D01*
X10423385Y-6632199D01*
X10438200Y-6617385D01*
X10455620Y-6605745D01*
X10474976Y-6597727D01*
X10495524Y-6593640D01*
X10516476Y-6593640D01*
X10537024Y-6597727D01*
G37*
G36*
X10283024Y-6597727D02*
G01*
X10302380Y-6605745D01*
X10319801Y-6617385D01*
X10334615Y-6632199D01*
X10346255Y-6649620D01*
X10354273Y-6668976D01*
X10358360Y-6689524D01*
X10358360Y-6710476D01*
X10354273Y-6731024D01*
X10346255Y-6750380D01*
X10334615Y-6767800D01*
X10319801Y-6782615D01*
X10302380Y-6794255D01*
X10283024Y-6802273D01*
X10262476Y-6806360D01*
X10241524Y-6806360D01*
X10220976Y-6802273D01*
X10201620Y-6794255D01*
X10184200Y-6782615D01*
X10169385Y-6767800D01*
X10157745Y-6750380D01*
X10149727Y-6731024D01*
X10145640Y-6710476D01*
X10145640Y-6689524D01*
X10149727Y-6668976D01*
X10157745Y-6649620D01*
X10169385Y-6632199D01*
X10184200Y-6617385D01*
X10201620Y-6605745D01*
X10220976Y-6597727D01*
X10241524Y-6593640D01*
X10262476Y-6593640D01*
X10283024Y-6597727D01*
G37*
G36*
X10029024Y-6597727D02*
G01*
X10048380Y-6605745D01*
X10065801Y-6617385D01*
X10080615Y-6632199D01*
X10092255Y-6649620D01*
X10100273Y-6668976D01*
X10104360Y-6689524D01*
X10104360Y-6710476D01*
X10100273Y-6731024D01*
X10092255Y-6750380D01*
X10080615Y-6767800D01*
X10065801Y-6782615D01*
X10048380Y-6794255D01*
X10029024Y-6802273D01*
X10008476Y-6806360D01*
X9987524Y-6806360D01*
X9966976Y-6802273D01*
X9947620Y-6794255D01*
X9930200Y-6782615D01*
X9915385Y-6767800D01*
X9903745Y-6750380D01*
X9895727Y-6731024D01*
X9891640Y-6710476D01*
X9891640Y-6689524D01*
X9895727Y-6668976D01*
X9903745Y-6649620D01*
X9915385Y-6632199D01*
X9930200Y-6617385D01*
X9947620Y-6605745D01*
X9966976Y-6597727D01*
X9987524Y-6593640D01*
X10008476Y-6593640D01*
X10029024Y-6597727D01*
G37*
G36*
X9775024Y-6597727D02*
G01*
X9794380Y-6605745D01*
X9811801Y-6617385D01*
X9826615Y-6632199D01*
X9838255Y-6649620D01*
X9846273Y-6668976D01*
X9850360Y-6689524D01*
X9850360Y-6710476D01*
X9846273Y-6731024D01*
X9838255Y-6750380D01*
X9826615Y-6767800D01*
X9811801Y-6782615D01*
X9794380Y-6794255D01*
X9775024Y-6802273D01*
X9754476Y-6806360D01*
X9733524Y-6806360D01*
X9712976Y-6802273D01*
X9693620Y-6794255D01*
X9676200Y-6782615D01*
X9661385Y-6767800D01*
X9649745Y-6750380D01*
X9641727Y-6731024D01*
X9637640Y-6710476D01*
X9637640Y-6689524D01*
X9641727Y-6668976D01*
X9649745Y-6649620D01*
X9661385Y-6632199D01*
X9676200Y-6617385D01*
X9693620Y-6605745D01*
X9712976Y-6597727D01*
X9733524Y-6593640D01*
X9754476Y-6593640D01*
X9775024Y-6597727D01*
G37*
G36*
X7056360Y-6806360D02*
G01*
X6843640Y-6806360D01*
X6843640Y-6593640D01*
X7056360Y-6593640D01*
X7056360Y-6806360D01*
G37*
G36*
X7489024Y-6597727D02*
G01*
X7508380Y-6605745D01*
X7525800Y-6617385D01*
X7540615Y-6632199D01*
X7552255Y-6649620D01*
X7560273Y-6668976D01*
X7564360Y-6689524D01*
X7564360Y-6710476D01*
X7560273Y-6731024D01*
X7552255Y-6750380D01*
X7540615Y-6767800D01*
X7525800Y-6782615D01*
X7508380Y-6794255D01*
X7489024Y-6802273D01*
X7468476Y-6806360D01*
X7447524Y-6806360D01*
X7426976Y-6802273D01*
X7407620Y-6794255D01*
X7390199Y-6782615D01*
X7375385Y-6767800D01*
X7363745Y-6750380D01*
X7355727Y-6731024D01*
X7351640Y-6710476D01*
X7351640Y-6689524D01*
X7355727Y-6668976D01*
X7363745Y-6649620D01*
X7375385Y-6632199D01*
X7390199Y-6617385D01*
X7407620Y-6605745D01*
X7426976Y-6597727D01*
X7447524Y-6593640D01*
X7468476Y-6593640D01*
X7489024Y-6597727D01*
G37*
G36*
X7235024Y-6597727D02*
G01*
X7254380Y-6605745D01*
X7271800Y-6617385D01*
X7286615Y-6632199D01*
X7298255Y-6649620D01*
X7306273Y-6668976D01*
X7310360Y-6689524D01*
X7310360Y-6710476D01*
X7306273Y-6731024D01*
X7298255Y-6750380D01*
X7286615Y-6767800D01*
X7271800Y-6782615D01*
X7254380Y-6794255D01*
X7235024Y-6802273D01*
X7214476Y-6806360D01*
X7193524Y-6806360D01*
X7172976Y-6802273D01*
X7153620Y-6794255D01*
X7136199Y-6782615D01*
X7121385Y-6767800D01*
X7109745Y-6750380D01*
X7101727Y-6731024D01*
X7097640Y-6710476D01*
X7097640Y-6689524D01*
X7101727Y-6668976D01*
X7109745Y-6649620D01*
X7121385Y-6632199D01*
X7136199Y-6617385D01*
X7153620Y-6605745D01*
X7172976Y-6597727D01*
X7193524Y-6593640D01*
X7214476Y-6593640D01*
X7235024Y-6597727D01*
G37*
G36*
X8505024Y-6597727D02*
G01*
X8524380Y-6605745D01*
X8541801Y-6617385D01*
X8556615Y-6632199D01*
X8568255Y-6649620D01*
X8576273Y-6668976D01*
X8580360Y-6689524D01*
X8580360Y-6710476D01*
X8576273Y-6731024D01*
X8568255Y-6750380D01*
X8556615Y-6767800D01*
X8541801Y-6782615D01*
X8524380Y-6794255D01*
X8505024Y-6802273D01*
X8484476Y-6806360D01*
X8463524Y-6806360D01*
X8442976Y-6802273D01*
X8423620Y-6794255D01*
X8406200Y-6782615D01*
X8391385Y-6767800D01*
X8379745Y-6750380D01*
X8371727Y-6731024D01*
X8367640Y-6710476D01*
X8367640Y-6689524D01*
X8371727Y-6668976D01*
X8379745Y-6649620D01*
X8391385Y-6632199D01*
X8406200Y-6617385D01*
X8423620Y-6605745D01*
X8442976Y-6597727D01*
X8463524Y-6593640D01*
X8484476Y-6593640D01*
X8505024Y-6597727D01*
G37*
G36*
X8251024Y-6597727D02*
G01*
X8270380Y-6605745D01*
X8287800Y-6617385D01*
X8302615Y-6632199D01*
X8314255Y-6649620D01*
X8322273Y-6668976D01*
X8326360Y-6689524D01*
X8326360Y-6710476D01*
X8322273Y-6731024D01*
X8314255Y-6750380D01*
X8302615Y-6767800D01*
X8287800Y-6782615D01*
X8270380Y-6794255D01*
X8251024Y-6802273D01*
X8230476Y-6806360D01*
X8209524Y-6806360D01*
X8188976Y-6802273D01*
X8169620Y-6794255D01*
X8152199Y-6782615D01*
X8137385Y-6767800D01*
X8125745Y-6750380D01*
X8117727Y-6731024D01*
X8113640Y-6710476D01*
X8113640Y-6689524D01*
X8117727Y-6668976D01*
X8125745Y-6649620D01*
X8137385Y-6632199D01*
X8152199Y-6617385D01*
X8169620Y-6605745D01*
X8188976Y-6597727D01*
X8209524Y-6593640D01*
X8230476Y-6593640D01*
X8251024Y-6597727D01*
G37*
G36*
X8759024Y-6597727D02*
G01*
X8778380Y-6605745D01*
X8795801Y-6617385D01*
X8810615Y-6632199D01*
X8822255Y-6649620D01*
X8830273Y-6668976D01*
X8834360Y-6689524D01*
X8834360Y-6710476D01*
X8830273Y-6731024D01*
X8822255Y-6750380D01*
X8810615Y-6767800D01*
X8795801Y-6782615D01*
X8778380Y-6794255D01*
X8759024Y-6802273D01*
X8738476Y-6806360D01*
X8717524Y-6806360D01*
X8696976Y-6802273D01*
X8677620Y-6794255D01*
X8660200Y-6782615D01*
X8645385Y-6767800D01*
X8633745Y-6750380D01*
X8625727Y-6731024D01*
X8621640Y-6710476D01*
X8621640Y-6689524D01*
X8625727Y-6668976D01*
X8633745Y-6649620D01*
X8645385Y-6632199D01*
X8660200Y-6617385D01*
X8677620Y-6605745D01*
X8696976Y-6597727D01*
X8717524Y-6593640D01*
X8738476Y-6593640D01*
X8759024Y-6597727D01*
G37*
G36*
X9267024Y-6597727D02*
G01*
X9286380Y-6605745D01*
X9303801Y-6617385D01*
X9318615Y-6632199D01*
X9330255Y-6649620D01*
X9338273Y-6668976D01*
X9342360Y-6689524D01*
X9342360Y-6710476D01*
X9338273Y-6731024D01*
X9330255Y-6750380D01*
X9318615Y-6767800D01*
X9303801Y-6782615D01*
X9286380Y-6794255D01*
X9267024Y-6802273D01*
X9246476Y-6806360D01*
X9225524Y-6806360D01*
X9204976Y-6802273D01*
X9185620Y-6794255D01*
X9168200Y-6782615D01*
X9153385Y-6767800D01*
X9141745Y-6750380D01*
X9133727Y-6731024D01*
X9129640Y-6710476D01*
X9129640Y-6689524D01*
X9133727Y-6668976D01*
X9141745Y-6649620D01*
X9153385Y-6632199D01*
X9168200Y-6617385D01*
X9185620Y-6605745D01*
X9204976Y-6597727D01*
X9225524Y-6593640D01*
X9246476Y-6593640D01*
X9267024Y-6597727D01*
G37*
G36*
X7997024Y-6597727D02*
G01*
X8016380Y-6605745D01*
X8033800Y-6617385D01*
X8048615Y-6632199D01*
X8060255Y-6649620D01*
X8068273Y-6668976D01*
X8072360Y-6689524D01*
X8072360Y-6710476D01*
X8068273Y-6731024D01*
X8060255Y-6750380D01*
X8048615Y-6767800D01*
X8033800Y-6782615D01*
X8016380Y-6794255D01*
X7997024Y-6802273D01*
X7976476Y-6806360D01*
X7955524Y-6806360D01*
X7934976Y-6802273D01*
X7915620Y-6794255D01*
X7898199Y-6782615D01*
X7883385Y-6767800D01*
X7871745Y-6750380D01*
X7863727Y-6731024D01*
X7859640Y-6710476D01*
X7859640Y-6689524D01*
X7863727Y-6668976D01*
X7871745Y-6649620D01*
X7883385Y-6632199D01*
X7898199Y-6617385D01*
X7915620Y-6605745D01*
X7934976Y-6597727D01*
X7955524Y-6593640D01*
X7976476Y-6593640D01*
X7997024Y-6597727D01*
G37*
G36*
X9013024Y-6597727D02*
G01*
X9032380Y-6605745D01*
X9049801Y-6617385D01*
X9064615Y-6632199D01*
X9076255Y-6649620D01*
X9084273Y-6668976D01*
X9088360Y-6689524D01*
X9088360Y-6710476D01*
X9084273Y-6731024D01*
X9076255Y-6750380D01*
X9064615Y-6767800D01*
X9049801Y-6782615D01*
X9032380Y-6794255D01*
X9013024Y-6802273D01*
X8992476Y-6806360D01*
X8971524Y-6806360D01*
X8950976Y-6802273D01*
X8931620Y-6794255D01*
X8914200Y-6782615D01*
X8899385Y-6767800D01*
X8887745Y-6750380D01*
X8879727Y-6731024D01*
X8875640Y-6710476D01*
X8875640Y-6689524D01*
X8879727Y-6668976D01*
X8887745Y-6649620D01*
X8899385Y-6632199D01*
X8914200Y-6617385D01*
X8931620Y-6605745D01*
X8950976Y-6597727D01*
X8971524Y-6593640D01*
X8992476Y-6593640D01*
X9013024Y-6597727D01*
G37*
G36*
X7743024Y-6597727D02*
G01*
X7762380Y-6605745D01*
X7779800Y-6617385D01*
X7794615Y-6632199D01*
X7806255Y-6649620D01*
X7814273Y-6668976D01*
X7818360Y-6689524D01*
X7818360Y-6710476D01*
X7814273Y-6731024D01*
X7806255Y-6750380D01*
X7794615Y-6767800D01*
X7779800Y-6782615D01*
X7762380Y-6794255D01*
X7743024Y-6802273D01*
X7722476Y-6806360D01*
X7701524Y-6806360D01*
X7680976Y-6802273D01*
X7661620Y-6794255D01*
X7644199Y-6782615D01*
X7629385Y-6767800D01*
X7617745Y-6750380D01*
X7609727Y-6731024D01*
X7605640Y-6710476D01*
X7605640Y-6689524D01*
X7609727Y-6668976D01*
X7617745Y-6649620D01*
X7629385Y-6632199D01*
X7644199Y-6617385D01*
X7661620Y-6605745D01*
X7680976Y-6597727D01*
X7701524Y-6593640D01*
X7722476Y-6593640D01*
X7743024Y-6597727D01*
G37*
G36*
X9521024Y-6597727D02*
G01*
X9540380Y-6605745D01*
X9557801Y-6617385D01*
X9572615Y-6632199D01*
X9584255Y-6649620D01*
X9592273Y-6668976D01*
X9596360Y-6689524D01*
X9596360Y-6710476D01*
X9592273Y-6731024D01*
X9584255Y-6750380D01*
X9572615Y-6767800D01*
X9557801Y-6782615D01*
X9540380Y-6794255D01*
X9521024Y-6802273D01*
X9500476Y-6806360D01*
X9479524Y-6806360D01*
X9458976Y-6802273D01*
X9439620Y-6794255D01*
X9422200Y-6782615D01*
X9407385Y-6767800D01*
X9395745Y-6750380D01*
X9387727Y-6731024D01*
X9383640Y-6710476D01*
X9383640Y-6689524D01*
X9387727Y-6668976D01*
X9395745Y-6649620D01*
X9407385Y-6632199D01*
X9422200Y-6617385D01*
X9439620Y-6605745D01*
X9458976Y-6597727D01*
X9479524Y-6593640D01*
X9500476Y-6593640D01*
X9521024Y-6597727D01*
G37*
G36*
X10791024Y-6343727D02*
G01*
X10810380Y-6351745D01*
X10827801Y-6363385D01*
X10842615Y-6378199D01*
X10854255Y-6395620D01*
X10862273Y-6414976D01*
X10866360Y-6435524D01*
X10866360Y-6456476D01*
X10862273Y-6477024D01*
X10854255Y-6496380D01*
X10842615Y-6513800D01*
X10827801Y-6528615D01*
X10810380Y-6540255D01*
X10791024Y-6548273D01*
X10770476Y-6552360D01*
X10749524Y-6552360D01*
X10728976Y-6548273D01*
X10709620Y-6540255D01*
X10692200Y-6528615D01*
X10677385Y-6513800D01*
X10665745Y-6496380D01*
X10657727Y-6477024D01*
X10653640Y-6456476D01*
X10653640Y-6435524D01*
X10657727Y-6414976D01*
X10665745Y-6395620D01*
X10677385Y-6378199D01*
X10692200Y-6363385D01*
X10709620Y-6351745D01*
X10728976Y-6343727D01*
X10749524Y-6339640D01*
X10770476Y-6339640D01*
X10791024Y-6343727D01*
G37*
G36*
X10537024Y-6343727D02*
G01*
X10556380Y-6351745D01*
X10573801Y-6363385D01*
X10588615Y-6378199D01*
X10600255Y-6395620D01*
X10608273Y-6414976D01*
X10612360Y-6435524D01*
X10612360Y-6456476D01*
X10608273Y-6477024D01*
X10600255Y-6496380D01*
X10588615Y-6513800D01*
X10573801Y-6528615D01*
X10556380Y-6540255D01*
X10537024Y-6548273D01*
X10516476Y-6552360D01*
X10495524Y-6552360D01*
X10474976Y-6548273D01*
X10455620Y-6540255D01*
X10438200Y-6528615D01*
X10423385Y-6513800D01*
X10411745Y-6496380D01*
X10403727Y-6477024D01*
X10399640Y-6456476D01*
X10399640Y-6435524D01*
X10403727Y-6414976D01*
X10411745Y-6395620D01*
X10423385Y-6378199D01*
X10438200Y-6363385D01*
X10455620Y-6351745D01*
X10474976Y-6343727D01*
X10495524Y-6339640D01*
X10516476Y-6339640D01*
X10537024Y-6343727D01*
G37*
G36*
X10283024Y-6343727D02*
G01*
X10302380Y-6351745D01*
X10319801Y-6363385D01*
X10334615Y-6378199D01*
X10346255Y-6395620D01*
X10354273Y-6414976D01*
X10358360Y-6435524D01*
X10358360Y-6456476D01*
X10354273Y-6477024D01*
X10346255Y-6496380D01*
X10334615Y-6513800D01*
X10319801Y-6528615D01*
X10302380Y-6540255D01*
X10283024Y-6548273D01*
X10262476Y-6552360D01*
X10241524Y-6552360D01*
X10220976Y-6548273D01*
X10201620Y-6540255D01*
X10184200Y-6528615D01*
X10169385Y-6513800D01*
X10157745Y-6496380D01*
X10149727Y-6477024D01*
X10145640Y-6456476D01*
X10145640Y-6435524D01*
X10149727Y-6414976D01*
X10157745Y-6395620D01*
X10169385Y-6378199D01*
X10184200Y-6363385D01*
X10201620Y-6351745D01*
X10220976Y-6343727D01*
X10241524Y-6339640D01*
X10262476Y-6339640D01*
X10283024Y-6343727D01*
G37*
G36*
X10029024Y-6343727D02*
G01*
X10048380Y-6351745D01*
X10065801Y-6363385D01*
X10080615Y-6378199D01*
X10092255Y-6395620D01*
X10100273Y-6414976D01*
X10104360Y-6435524D01*
X10104360Y-6456476D01*
X10100273Y-6477024D01*
X10092255Y-6496380D01*
X10080615Y-6513800D01*
X10065801Y-6528615D01*
X10048380Y-6540255D01*
X10029024Y-6548273D01*
X10008476Y-6552360D01*
X9987524Y-6552360D01*
X9966976Y-6548273D01*
X9947620Y-6540255D01*
X9930200Y-6528615D01*
X9915385Y-6513800D01*
X9903745Y-6496380D01*
X9895727Y-6477024D01*
X9891640Y-6456476D01*
X9891640Y-6435524D01*
X9895727Y-6414976D01*
X9903745Y-6395620D01*
X9915385Y-6378199D01*
X9930200Y-6363385D01*
X9947620Y-6351745D01*
X9966976Y-6343727D01*
X9987524Y-6339640D01*
X10008476Y-6339640D01*
X10029024Y-6343727D01*
G37*
G36*
X9775024Y-6343727D02*
G01*
X9794380Y-6351745D01*
X9811801Y-6363385D01*
X9826615Y-6378199D01*
X9838255Y-6395620D01*
X9846273Y-6414976D01*
X9850360Y-6435524D01*
X9850360Y-6456476D01*
X9846273Y-6477024D01*
X9838255Y-6496380D01*
X9826615Y-6513800D01*
X9811801Y-6528615D01*
X9794380Y-6540255D01*
X9775024Y-6548273D01*
X9754476Y-6552360D01*
X9733524Y-6552360D01*
X9712976Y-6548273D01*
X9693620Y-6540255D01*
X9676200Y-6528615D01*
X9661385Y-6513800D01*
X9649745Y-6496380D01*
X9641727Y-6477024D01*
X9637640Y-6456476D01*
X9637640Y-6435524D01*
X9641727Y-6414976D01*
X9649745Y-6395620D01*
X9661385Y-6378199D01*
X9676200Y-6363385D01*
X9693620Y-6351745D01*
X9712976Y-6343727D01*
X9733524Y-6339640D01*
X9754476Y-6339640D01*
X9775024Y-6343727D01*
G37*
G36*
X9521024Y-6343727D02*
G01*
X9540380Y-6351745D01*
X9557801Y-6363385D01*
X9572615Y-6378199D01*
X9584255Y-6395620D01*
X9592273Y-6414976D01*
X9596360Y-6435524D01*
X9596360Y-6456476D01*
X9592273Y-6477024D01*
X9584255Y-6496380D01*
X9572615Y-6513800D01*
X9557801Y-6528615D01*
X9540380Y-6540255D01*
X9521024Y-6548273D01*
X9500476Y-6552360D01*
X9479524Y-6552360D01*
X9458976Y-6548273D01*
X9439620Y-6540255D01*
X9422200Y-6528615D01*
X9407385Y-6513800D01*
X9395745Y-6496380D01*
X9387727Y-6477024D01*
X9383640Y-6456476D01*
X9383640Y-6435524D01*
X9387727Y-6414976D01*
X9395745Y-6395620D01*
X9407385Y-6378199D01*
X9422200Y-6363385D01*
X9439620Y-6351745D01*
X9458976Y-6343727D01*
X9479524Y-6339640D01*
X9500476Y-6339640D01*
X9521024Y-6343727D01*
G37*
G36*
X9267024Y-6343727D02*
G01*
X9286380Y-6351745D01*
X9303801Y-6363385D01*
X9318615Y-6378199D01*
X9330255Y-6395620D01*
X9338273Y-6414976D01*
X9342360Y-6435524D01*
X9342360Y-6456476D01*
X9338273Y-6477024D01*
X9330255Y-6496380D01*
X9318615Y-6513800D01*
X9303801Y-6528615D01*
X9286380Y-6540255D01*
X9267024Y-6548273D01*
X9246476Y-6552360D01*
X9225524Y-6552360D01*
X9204976Y-6548273D01*
X9185620Y-6540255D01*
X9168200Y-6528615D01*
X9153385Y-6513800D01*
X9141745Y-6496380D01*
X9133727Y-6477024D01*
X9129640Y-6456476D01*
X9129640Y-6435524D01*
X9133727Y-6414976D01*
X9141745Y-6395620D01*
X9153385Y-6378199D01*
X9168200Y-6363385D01*
X9185620Y-6351745D01*
X9204976Y-6343727D01*
X9225524Y-6339640D01*
X9246476Y-6339640D01*
X9267024Y-6343727D01*
G37*
G36*
X9013024Y-6343727D02*
G01*
X9032380Y-6351745D01*
X9049801Y-6363385D01*
X9064615Y-6378199D01*
X9076255Y-6395620D01*
X9084273Y-6414976D01*
X9088360Y-6435524D01*
X9088360Y-6456476D01*
X9084273Y-6477024D01*
X9076255Y-6496380D01*
X9064615Y-6513800D01*
X9049801Y-6528615D01*
X9032380Y-6540255D01*
X9013024Y-6548273D01*
X8992476Y-6552360D01*
X8971524Y-6552360D01*
X8950976Y-6548273D01*
X8931620Y-6540255D01*
X8914200Y-6528615D01*
X8899385Y-6513800D01*
X8887745Y-6496380D01*
X8879727Y-6477024D01*
X8875640Y-6456476D01*
X8875640Y-6435524D01*
X8879727Y-6414976D01*
X8887745Y-6395620D01*
X8899385Y-6378199D01*
X8914200Y-6363385D01*
X8931620Y-6351745D01*
X8950976Y-6343727D01*
X8971524Y-6339640D01*
X8992476Y-6339640D01*
X9013024Y-6343727D01*
G37*
G36*
X8759024Y-6343727D02*
G01*
X8778380Y-6351745D01*
X8795801Y-6363385D01*
X8810615Y-6378199D01*
X8822255Y-6395620D01*
X8830273Y-6414976D01*
X8834360Y-6435524D01*
X8834360Y-6456476D01*
X8830273Y-6477024D01*
X8822255Y-6496380D01*
X8810615Y-6513800D01*
X8795801Y-6528615D01*
X8778380Y-6540255D01*
X8759024Y-6548273D01*
X8738476Y-6552360D01*
X8717524Y-6552360D01*
X8696976Y-6548273D01*
X8677620Y-6540255D01*
X8660200Y-6528615D01*
X8645385Y-6513800D01*
X8633745Y-6496380D01*
X8625727Y-6477024D01*
X8621640Y-6456476D01*
X8621640Y-6435524D01*
X8625727Y-6414976D01*
X8633745Y-6395620D01*
X8645385Y-6378199D01*
X8660200Y-6363385D01*
X8677620Y-6351745D01*
X8696976Y-6343727D01*
X8717524Y-6339640D01*
X8738476Y-6339640D01*
X8759024Y-6343727D01*
G37*
G36*
X8505024Y-6343727D02*
G01*
X8524380Y-6351745D01*
X8541801Y-6363385D01*
X8556615Y-6378199D01*
X8568255Y-6395620D01*
X8576273Y-6414976D01*
X8580360Y-6435524D01*
X8580360Y-6456476D01*
X8576273Y-6477024D01*
X8568255Y-6496380D01*
X8556615Y-6513800D01*
X8541801Y-6528615D01*
X8524380Y-6540255D01*
X8505024Y-6548273D01*
X8484476Y-6552360D01*
X8463524Y-6552360D01*
X8442976Y-6548273D01*
X8423620Y-6540255D01*
X8406200Y-6528615D01*
X8391385Y-6513800D01*
X8379745Y-6496380D01*
X8371727Y-6477024D01*
X8367640Y-6456476D01*
X8367640Y-6435524D01*
X8371727Y-6414976D01*
X8379745Y-6395620D01*
X8391385Y-6378199D01*
X8406200Y-6363385D01*
X8423620Y-6351745D01*
X8442976Y-6343727D01*
X8463524Y-6339640D01*
X8484476Y-6339640D01*
X8505024Y-6343727D01*
G37*
G36*
X8251024Y-6343727D02*
G01*
X8270380Y-6351745D01*
X8287800Y-6363385D01*
X8302615Y-6378199D01*
X8314255Y-6395620D01*
X8322273Y-6414976D01*
X8326360Y-6435524D01*
X8326360Y-6456476D01*
X8322273Y-6477024D01*
X8314255Y-6496380D01*
X8302615Y-6513800D01*
X8287800Y-6528615D01*
X8270380Y-6540255D01*
X8251024Y-6548273D01*
X8230476Y-6552360D01*
X8209524Y-6552360D01*
X8188976Y-6548273D01*
X8169620Y-6540255D01*
X8152199Y-6528615D01*
X8137385Y-6513800D01*
X8125745Y-6496380D01*
X8117727Y-6477024D01*
X8113640Y-6456476D01*
X8113640Y-6435524D01*
X8117727Y-6414976D01*
X8125745Y-6395620D01*
X8137385Y-6378199D01*
X8152199Y-6363385D01*
X8169620Y-6351745D01*
X8188976Y-6343727D01*
X8209524Y-6339640D01*
X8230476Y-6339640D01*
X8251024Y-6343727D01*
G37*
G36*
X7997024Y-6343727D02*
G01*
X8016380Y-6351745D01*
X8033800Y-6363385D01*
X8048615Y-6378199D01*
X8060255Y-6395620D01*
X8068273Y-6414976D01*
X8072360Y-6435524D01*
X8072360Y-6456476D01*
X8068273Y-6477024D01*
X8060255Y-6496380D01*
X8048615Y-6513800D01*
X8033800Y-6528615D01*
X8016380Y-6540255D01*
X7997024Y-6548273D01*
X7976476Y-6552360D01*
X7955524Y-6552360D01*
X7934976Y-6548273D01*
X7915620Y-6540255D01*
X7898199Y-6528615D01*
X7883385Y-6513800D01*
X7871745Y-6496380D01*
X7863727Y-6477024D01*
X7859640Y-6456476D01*
X7859640Y-6435524D01*
X7863727Y-6414976D01*
X7871745Y-6395620D01*
X7883385Y-6378199D01*
X7898199Y-6363385D01*
X7915620Y-6351745D01*
X7934976Y-6343727D01*
X7955524Y-6339640D01*
X7976476Y-6339640D01*
X7997024Y-6343727D01*
G37*
G36*
X7743024Y-6343727D02*
G01*
X7762380Y-6351745D01*
X7779800Y-6363385D01*
X7794615Y-6378199D01*
X7806255Y-6395620D01*
X7814273Y-6414976D01*
X7818360Y-6435524D01*
X7818360Y-6456476D01*
X7814273Y-6477024D01*
X7806255Y-6496380D01*
X7794615Y-6513800D01*
X7779800Y-6528615D01*
X7762380Y-6540255D01*
X7743024Y-6548273D01*
X7722476Y-6552360D01*
X7701524Y-6552360D01*
X7680976Y-6548273D01*
X7661620Y-6540255D01*
X7644199Y-6528615D01*
X7629385Y-6513800D01*
X7617745Y-6496380D01*
X7609727Y-6477024D01*
X7605640Y-6456476D01*
X7605640Y-6435524D01*
X7609727Y-6414976D01*
X7617745Y-6395620D01*
X7629385Y-6378199D01*
X7644199Y-6363385D01*
X7661620Y-6351745D01*
X7680976Y-6343727D01*
X7701524Y-6339640D01*
X7722476Y-6339640D01*
X7743024Y-6343727D01*
G37*
G36*
X7489024Y-6343727D02*
G01*
X7508380Y-6351745D01*
X7525800Y-6363385D01*
X7540615Y-6378199D01*
X7552255Y-6395620D01*
X7560273Y-6414976D01*
X7564360Y-6435524D01*
X7564360Y-6456476D01*
X7560273Y-6477024D01*
X7552255Y-6496380D01*
X7540615Y-6513800D01*
X7525800Y-6528615D01*
X7508380Y-6540255D01*
X7489024Y-6548273D01*
X7468476Y-6552360D01*
X7447524Y-6552360D01*
X7426976Y-6548273D01*
X7407620Y-6540255D01*
X7390199Y-6528615D01*
X7375385Y-6513800D01*
X7363745Y-6496380D01*
X7355727Y-6477024D01*
X7351640Y-6456476D01*
X7351640Y-6435524D01*
X7355727Y-6414976D01*
X7363745Y-6395620D01*
X7375385Y-6378199D01*
X7390199Y-6363385D01*
X7407620Y-6351745D01*
X7426976Y-6343727D01*
X7447524Y-6339640D01*
X7468476Y-6339640D01*
X7489024Y-6343727D01*
G37*
G36*
X7235024Y-6343727D02*
G01*
X7254380Y-6351745D01*
X7271800Y-6363385D01*
X7286615Y-6378199D01*
X7298255Y-6395620D01*
X7306273Y-6414976D01*
X7310360Y-6435524D01*
X7310360Y-6456476D01*
X7306273Y-6477024D01*
X7298255Y-6496380D01*
X7286615Y-6513800D01*
X7271800Y-6528615D01*
X7254380Y-6540255D01*
X7235024Y-6548273D01*
X7214476Y-6552360D01*
X7193524Y-6552360D01*
X7172976Y-6548273D01*
X7153620Y-6540255D01*
X7136199Y-6528615D01*
X7121385Y-6513800D01*
X7109745Y-6496380D01*
X7101727Y-6477024D01*
X7097640Y-6456476D01*
X7097640Y-6435524D01*
X7101727Y-6414976D01*
X7109745Y-6395620D01*
X7121385Y-6378199D01*
X7136199Y-6363385D01*
X7153620Y-6351745D01*
X7172976Y-6343727D01*
X7193524Y-6339640D01*
X7214476Y-6339640D01*
X7235024Y-6343727D01*
G37*
G36*
X11045024Y-6343727D02*
G01*
X11064380Y-6351745D01*
X11081801Y-6363385D01*
X11096615Y-6378199D01*
X11108255Y-6395620D01*
X11116273Y-6414976D01*
X11120360Y-6435524D01*
X11120360Y-6456476D01*
X11116273Y-6477024D01*
X11108255Y-6496380D01*
X11096615Y-6513800D01*
X11081801Y-6528615D01*
X11064380Y-6540255D01*
X11045024Y-6548273D01*
X11024476Y-6552360D01*
X11003524Y-6552360D01*
X10982976Y-6548273D01*
X10963620Y-6540255D01*
X10946200Y-6528615D01*
X10931385Y-6513800D01*
X10919745Y-6496380D01*
X10911727Y-6477024D01*
X10907640Y-6456476D01*
X10907640Y-6435524D01*
X10911727Y-6414976D01*
X10919745Y-6395620D01*
X10931385Y-6378199D01*
X10946200Y-6363385D01*
X10963620Y-6351745D01*
X10982976Y-6343727D01*
X11003524Y-6339640D01*
X11024476Y-6339640D01*
X11045024Y-6343727D01*
G37*
G36*
X11299024Y-6343727D02*
G01*
X11318380Y-6351745D01*
X11335800Y-6363385D01*
X11350615Y-6378199D01*
X11362255Y-6395620D01*
X11370273Y-6414976D01*
X11374360Y-6435524D01*
X11374360Y-6456476D01*
X11370273Y-6477024D01*
X11362255Y-6496380D01*
X11350615Y-6513800D01*
X11335800Y-6528615D01*
X11318380Y-6540255D01*
X11299024Y-6548273D01*
X11278476Y-6552360D01*
X11257524Y-6552360D01*
X11236976Y-6548273D01*
X11217620Y-6540255D01*
X11200199Y-6528615D01*
X11185385Y-6513800D01*
X11173745Y-6496380D01*
X11165727Y-6477024D01*
X11161640Y-6456476D01*
X11161640Y-6435524D01*
X11165727Y-6414976D01*
X11173745Y-6395620D01*
X11185385Y-6378199D01*
X11200199Y-6363385D01*
X11217620Y-6351745D01*
X11236976Y-6343727D01*
X11257524Y-6339640D01*
X11278476Y-6339640D01*
X11299024Y-6343727D01*
G37*
G36*
X11553024Y-6343727D02*
G01*
X11572380Y-6351745D01*
X11589800Y-6363385D01*
X11604615Y-6378199D01*
X11616255Y-6395620D01*
X11624273Y-6414976D01*
X11628360Y-6435524D01*
X11628360Y-6456476D01*
X11624273Y-6477024D01*
X11616255Y-6496380D01*
X11604615Y-6513800D01*
X11589800Y-6528615D01*
X11572380Y-6540255D01*
X11553024Y-6548273D01*
X11532476Y-6552360D01*
X11511524Y-6552360D01*
X11490976Y-6548273D01*
X11471620Y-6540255D01*
X11454199Y-6528615D01*
X11439385Y-6513800D01*
X11427745Y-6496380D01*
X11419727Y-6477024D01*
X11415640Y-6456476D01*
X11415640Y-6435524D01*
X11419727Y-6414976D01*
X11427745Y-6395620D01*
X11439385Y-6378199D01*
X11454199Y-6363385D01*
X11471620Y-6351745D01*
X11490976Y-6343727D01*
X11511524Y-6339640D01*
X11532476Y-6339640D01*
X11553024Y-6343727D01*
G37*
G36*
X11807024Y-6343727D02*
G01*
X11826380Y-6351745D01*
X11843800Y-6363385D01*
X11858615Y-6378199D01*
X11870255Y-6395620D01*
X11878273Y-6414976D01*
X11882360Y-6435524D01*
X11882360Y-6456476D01*
X11878273Y-6477024D01*
X11870255Y-6496380D01*
X11858615Y-6513800D01*
X11843800Y-6528615D01*
X11826380Y-6540255D01*
X11807024Y-6548273D01*
X11786476Y-6552360D01*
X11765524Y-6552360D01*
X11744976Y-6548273D01*
X11725620Y-6540255D01*
X11708199Y-6528615D01*
X11693385Y-6513800D01*
X11681745Y-6496380D01*
X11673727Y-6477024D01*
X11669640Y-6456476D01*
X11669640Y-6435524D01*
X11673727Y-6414976D01*
X11681745Y-6395620D01*
X11693385Y-6378199D01*
X11708199Y-6363385D01*
X11725620Y-6351745D01*
X11744976Y-6343727D01*
X11765524Y-6339640D01*
X11786476Y-6339640D01*
X11807024Y-6343727D01*
G37*
G36*
X6981024Y-6343727D02*
G01*
X7000380Y-6351745D01*
X7017800Y-6363385D01*
X7032615Y-6378199D01*
X7044255Y-6395620D01*
X7052273Y-6414976D01*
X7056360Y-6435524D01*
X7056360Y-6456476D01*
X7052273Y-6477024D01*
X7044255Y-6496380D01*
X7032615Y-6513800D01*
X7017800Y-6528615D01*
X7000380Y-6540255D01*
X6981024Y-6548273D01*
X6960476Y-6552360D01*
X6939524Y-6552360D01*
X6918976Y-6548273D01*
X6899620Y-6540255D01*
X6882199Y-6528615D01*
X6867385Y-6513800D01*
X6855745Y-6496380D01*
X6847727Y-6477024D01*
X6843640Y-6456476D01*
X6843640Y-6435524D01*
X6847727Y-6414976D01*
X6855745Y-6395620D01*
X6867385Y-6378199D01*
X6882199Y-6363385D01*
X6899620Y-6351745D01*
X6918976Y-6343727D01*
X6939524Y-6339640D01*
X6960476Y-6339640D01*
X6981024Y-6343727D01*
G37*
M02*
