G04 #@! TF.GenerationSoftware,KiCad,Pcbnew,5.1.6+dfsg1-1*
G04 #@! TF.CreationDate,2021-04-29T08:47:55+10:00*
G04 #@! TF.ProjectId,BatProtect,42617450-726f-4746-9563-742e6b696361,rev?*
G04 #@! TF.SameCoordinates,Original*
G04 #@! TF.FileFunction,Soldermask,Top*
G04 #@! TF.FilePolarity,Negative*
%FSLAX45Y45*%
G04 Gerber Fmt 4.5, Leading zero omitted, Abs format (unit mm)*
G04 Created by KiCad (PCBNEW 5.1.6+dfsg1-1) date 2021-04-29 08:47:55*
%MOMM*%
%LPD*%
G01*
G04 APERTURE LIST*
%ADD10C,0.100000*%
%ADD11C,0.150000*%
%ADD12C,0.300000*%
%ADD13C,0.400000*%
G04 APERTURE END LIST*
D10*
D11*
X17700220Y-16600720D02*
X17700220Y-19800720D01*
X28500220Y-19800720D01*
X28500220Y-16600720D01*
X17700220Y-16600720D01*
D10*
D11*
X1000000Y-1000000D02*
X1000000Y-20000720D01*
X28700220Y-20000720D01*
X28700220Y-1000000D01*
X1000000Y-1000000D01*
D10*
D11*
X1200000Y-1200000D02*
X1200000Y-19800720D01*
X28500220Y-19800720D01*
X28500220Y-1200000D01*
X1200000Y-1200000D01*
D10*
D11*
X6000000Y-1200000D02*
X6000000Y-1000000D01*
D10*
D11*
X11000000Y-1200000D02*
X11000000Y-1000000D01*
D10*
D11*
X16000000Y-1200000D02*
X16000000Y-1000000D01*
D10*
D11*
X21000000Y-1200000D02*
X21000000Y-1000000D01*
D10*
D11*
X26000000Y-1200000D02*
X26000000Y-1000000D01*
D10*
D11*
X3606548Y-1158810D02*
X3532262Y-1158810D01*
X3569405Y-1158810D02*
X3569405Y-1028809D01*
X3557024Y-1047381D01*
X3544643Y-1059762D01*
X3532262Y-1065952D01*
D10*
D11*
X8532262Y-1041190D02*
X8538452Y-1035000D01*
X8550833Y-1028809D01*
X8581786Y-1028809D01*
X8594167Y-1035000D01*
X8600357Y-1041190D01*
X8606548Y-1053571D01*
X8606548Y-1065952D01*
X8600357Y-1084524D01*
X8526071Y-1158810D01*
X8606548Y-1158810D01*
D10*
D11*
X13526071Y-1028809D02*
X13606548Y-1028809D01*
X13563214Y-1078333D01*
X13581786Y-1078333D01*
X13594167Y-1084524D01*
X13600357Y-1090714D01*
X13606548Y-1103095D01*
X13606548Y-1134048D01*
X13600357Y-1146429D01*
X13594167Y-1152619D01*
X13581786Y-1158810D01*
X13544643Y-1158810D01*
X13532262Y-1152619D01*
X13526071Y-1146429D01*
D10*
D11*
X18594167Y-1072143D02*
X18594167Y-1158810D01*
X18563214Y-1022619D02*
X18532262Y-1115476D01*
X18612738Y-1115476D01*
D10*
D11*
X23600357Y-1028809D02*
X23538452Y-1028809D01*
X23532262Y-1090714D01*
X23538452Y-1084524D01*
X23550833Y-1078333D01*
X23581786Y-1078333D01*
X23594167Y-1084524D01*
X23600357Y-1090714D01*
X23606548Y-1103095D01*
X23606548Y-1134048D01*
X23600357Y-1146429D01*
X23594167Y-1152619D01*
X23581786Y-1158810D01*
X23550833Y-1158810D01*
X23538452Y-1152619D01*
X23532262Y-1146429D01*
D10*
D11*
X28594167Y-1028809D02*
X28569405Y-1028809D01*
X28557024Y-1035000D01*
X28550833Y-1041190D01*
X28538452Y-1059762D01*
X28532262Y-1084524D01*
X28532262Y-1134048D01*
X28538452Y-1146429D01*
X28544643Y-1152619D01*
X28557024Y-1158810D01*
X28581786Y-1158810D01*
X28594167Y-1152619D01*
X28600357Y-1146429D01*
X28606548Y-1134048D01*
X28606548Y-1103095D01*
X28600357Y-1090714D01*
X28594167Y-1084524D01*
X28581786Y-1078333D01*
X28557024Y-1078333D01*
X28544643Y-1084524D01*
X28538452Y-1090714D01*
X28532262Y-1103095D01*
D10*
D11*
X6000000Y-19800720D02*
X6000000Y-20000720D01*
D10*
D11*
X11000000Y-19800720D02*
X11000000Y-20000720D01*
D10*
D11*
X16000000Y-19800720D02*
X16000000Y-20000720D01*
D10*
D11*
X21000000Y-19800720D02*
X21000000Y-20000720D01*
D10*
D11*
X26000000Y-19800720D02*
X26000000Y-20000720D01*
D10*
D11*
X3606548Y-19959530D02*
X3532262Y-19959530D01*
X3569405Y-19959530D02*
X3569405Y-19829530D01*
X3557024Y-19848101D01*
X3544643Y-19860482D01*
X3532262Y-19866672D01*
D10*
D11*
X8532262Y-19841910D02*
X8538452Y-19835720D01*
X8550833Y-19829530D01*
X8581786Y-19829530D01*
X8594167Y-19835720D01*
X8600357Y-19841910D01*
X8606548Y-19854291D01*
X8606548Y-19866672D01*
X8600357Y-19885244D01*
X8526071Y-19959530D01*
X8606548Y-19959530D01*
D10*
D11*
X13526071Y-19829530D02*
X13606548Y-19829530D01*
X13563214Y-19879053D01*
X13581786Y-19879053D01*
X13594167Y-19885244D01*
X13600357Y-19891434D01*
X13606548Y-19903815D01*
X13606548Y-19934768D01*
X13600357Y-19947149D01*
X13594167Y-19953339D01*
X13581786Y-19959530D01*
X13544643Y-19959530D01*
X13532262Y-19953339D01*
X13526071Y-19947149D01*
D10*
D11*
X18594167Y-19872863D02*
X18594167Y-19959530D01*
X18563214Y-19823339D02*
X18532262Y-19916196D01*
X18612738Y-19916196D01*
D10*
D11*
X23600357Y-19829530D02*
X23538452Y-19829530D01*
X23532262Y-19891434D01*
X23538452Y-19885244D01*
X23550833Y-19879053D01*
X23581786Y-19879053D01*
X23594167Y-19885244D01*
X23600357Y-19891434D01*
X23606548Y-19903815D01*
X23606548Y-19934768D01*
X23600357Y-19947149D01*
X23594167Y-19953339D01*
X23581786Y-19959530D01*
X23550833Y-19959530D01*
X23538452Y-19953339D01*
X23532262Y-19947149D01*
D10*
D11*
X28594167Y-19829530D02*
X28569405Y-19829530D01*
X28557024Y-19835720D01*
X28550833Y-19841910D01*
X28538452Y-19860482D01*
X28532262Y-19885244D01*
X28532262Y-19934768D01*
X28538452Y-19947149D01*
X28544643Y-19953339D01*
X28557024Y-19959530D01*
X28581786Y-19959530D01*
X28594167Y-19953339D01*
X28600357Y-19947149D01*
X28606548Y-19934768D01*
X28606548Y-19903815D01*
X28600357Y-19891434D01*
X28594167Y-19885244D01*
X28581786Y-19879053D01*
X28557024Y-19879053D01*
X28544643Y-19885244D01*
X28538452Y-19891434D01*
X28532262Y-19903815D01*
D10*
D11*
X1000000Y-6000000D02*
X1200000Y-6000000D01*
D10*
D11*
X1000000Y-11000000D02*
X1200000Y-11000000D01*
D10*
D11*
X1000000Y-16000000D02*
X1200000Y-16000000D01*
D10*
D11*
X1069048Y-3521667D02*
X1130952Y-3521667D01*
X1056667Y-3558809D02*
X1100000Y-3428809D01*
X1143333Y-3558809D01*
D10*
D11*
X1109286Y-8490714D02*
X1127857Y-8496905D01*
X1134048Y-8503095D01*
X1140238Y-8515476D01*
X1140238Y-8534048D01*
X1134048Y-8546429D01*
X1127857Y-8552619D01*
X1115476Y-8558810D01*
X1065952Y-8558810D01*
X1065952Y-8428810D01*
X1109286Y-8428810D01*
X1121667Y-8435000D01*
X1127857Y-8441190D01*
X1134048Y-8453571D01*
X1134048Y-8465952D01*
X1127857Y-8478333D01*
X1121667Y-8484524D01*
X1109286Y-8490714D01*
X1065952Y-8490714D01*
D10*
D11*
X1140238Y-13546428D02*
X1134048Y-13552619D01*
X1115476Y-13558809D01*
X1103095Y-13558809D01*
X1084524Y-13552619D01*
X1072143Y-13540238D01*
X1065952Y-13527857D01*
X1059762Y-13503095D01*
X1059762Y-13484524D01*
X1065952Y-13459762D01*
X1072143Y-13447381D01*
X1084524Y-13435000D01*
X1103095Y-13428809D01*
X1115476Y-13428809D01*
X1134048Y-13435000D01*
X1140238Y-13441190D01*
D10*
D11*
X1065952Y-18558810D02*
X1065952Y-18428810D01*
X1096905Y-18428810D01*
X1115476Y-18435000D01*
X1127857Y-18447381D01*
X1134048Y-18459762D01*
X1140238Y-18484524D01*
X1140238Y-18503095D01*
X1134048Y-18527857D01*
X1127857Y-18540238D01*
X1115476Y-18552619D01*
X1096905Y-18558810D01*
X1065952Y-18558810D01*
D10*
D11*
X28700220Y-6000000D02*
X28500220Y-6000000D01*
D10*
D11*
X28700220Y-11000000D02*
X28500220Y-11000000D01*
D10*
D11*
X28700220Y-16000000D02*
X28500220Y-16000000D01*
D10*
D11*
X28569268Y-3521667D02*
X28631172Y-3521667D01*
X28556887Y-3558809D02*
X28600220Y-3428809D01*
X28643553Y-3558809D01*
D10*
D11*
X28609506Y-8490714D02*
X28628077Y-8496905D01*
X28634268Y-8503095D01*
X28640458Y-8515476D01*
X28640458Y-8534048D01*
X28634268Y-8546429D01*
X28628077Y-8552619D01*
X28615696Y-8558810D01*
X28566172Y-8558810D01*
X28566172Y-8428810D01*
X28609506Y-8428810D01*
X28621887Y-8435000D01*
X28628077Y-8441190D01*
X28634268Y-8453571D01*
X28634268Y-8465952D01*
X28628077Y-8478333D01*
X28621887Y-8484524D01*
X28609506Y-8490714D01*
X28566172Y-8490714D01*
D10*
D11*
X28640458Y-13546428D02*
X28634268Y-13552619D01*
X28615696Y-13558809D01*
X28603315Y-13558809D01*
X28584744Y-13552619D01*
X28572363Y-13540238D01*
X28566172Y-13527857D01*
X28559982Y-13503095D01*
X28559982Y-13484524D01*
X28566172Y-13459762D01*
X28572363Y-13447381D01*
X28584744Y-13435000D01*
X28603315Y-13428809D01*
X28615696Y-13428809D01*
X28634268Y-13435000D01*
X28640458Y-13441190D01*
D10*
D11*
X28566172Y-18558810D02*
X28566172Y-18428810D01*
X28597125Y-18428810D01*
X28615696Y-18435000D01*
X28628077Y-18447381D01*
X28634268Y-18459762D01*
X28640458Y-18484524D01*
X28640458Y-18503095D01*
X28634268Y-18527857D01*
X28628077Y-18540238D01*
X28615696Y-18552619D01*
X28597125Y-18558810D01*
X28566172Y-18558810D01*
D10*
D11*
X20043434Y-19378577D02*
X20043434Y-19228577D01*
X20079149Y-19228577D01*
X20100577Y-19235720D01*
X20114863Y-19250006D01*
X20122006Y-19264291D01*
X20129149Y-19292863D01*
X20129149Y-19314291D01*
X20122006Y-19342863D01*
X20114863Y-19357149D01*
X20100577Y-19371434D01*
X20079149Y-19378577D01*
X20043434Y-19378577D01*
X20257720Y-19378577D02*
X20257720Y-19300006D01*
X20250577Y-19285720D01*
X20236291Y-19278577D01*
X20207720Y-19278577D01*
X20193434Y-19285720D01*
X20257720Y-19371434D02*
X20243434Y-19378577D01*
X20207720Y-19378577D01*
X20193434Y-19371434D01*
X20186291Y-19357149D01*
X20186291Y-19342863D01*
X20193434Y-19328577D01*
X20207720Y-19321434D01*
X20243434Y-19321434D01*
X20257720Y-19314291D01*
X20307720Y-19278577D02*
X20364863Y-19278577D01*
X20329149Y-19228577D02*
X20329149Y-19357149D01*
X20336291Y-19371434D01*
X20350577Y-19378577D01*
X20364863Y-19378577D01*
X20472006Y-19371434D02*
X20457720Y-19378577D01*
X20429149Y-19378577D01*
X20414863Y-19371434D01*
X20407720Y-19357149D01*
X20407720Y-19300006D01*
X20414863Y-19285720D01*
X20429149Y-19278577D01*
X20457720Y-19278577D01*
X20472006Y-19285720D01*
X20479149Y-19300006D01*
X20479149Y-19314291D01*
X20407720Y-19328577D01*
X20543434Y-19364291D02*
X20550577Y-19371434D01*
X20543434Y-19378577D01*
X20536291Y-19371434D01*
X20543434Y-19364291D01*
X20543434Y-19378577D01*
X20543434Y-19285720D02*
X20550577Y-19292863D01*
X20543434Y-19300006D01*
X20536291Y-19292863D01*
X20543434Y-19285720D01*
X20543434Y-19300006D01*
D10*
D11*
X17700220Y-19450720D02*
X28500220Y-19450720D01*
D10*
D11*
X17843434Y-19658577D02*
X17843434Y-19508577D01*
X17929149Y-19658577D02*
X17864863Y-19572863D01*
X17929149Y-19508577D02*
X17843434Y-19594291D01*
X17993434Y-19658577D02*
X17993434Y-19558577D01*
X17993434Y-19508577D02*
X17986291Y-19515720D01*
X17993434Y-19522863D01*
X18000577Y-19515720D01*
X17993434Y-19508577D01*
X17993434Y-19522863D01*
X18150577Y-19644291D02*
X18143434Y-19651434D01*
X18122006Y-19658577D01*
X18107720Y-19658577D01*
X18086291Y-19651434D01*
X18072006Y-19637149D01*
X18064863Y-19622863D01*
X18057720Y-19594291D01*
X18057720Y-19572863D01*
X18064863Y-19544291D01*
X18072006Y-19530006D01*
X18086291Y-19515720D01*
X18107720Y-19508577D01*
X18122006Y-19508577D01*
X18143434Y-19515720D01*
X18150577Y-19522863D01*
X18279149Y-19658577D02*
X18279149Y-19580006D01*
X18272006Y-19565720D01*
X18257720Y-19558577D01*
X18229149Y-19558577D01*
X18214863Y-19565720D01*
X18279149Y-19651434D02*
X18264863Y-19658577D01*
X18229149Y-19658577D01*
X18214863Y-19651434D01*
X18207720Y-19637149D01*
X18207720Y-19622863D01*
X18214863Y-19608577D01*
X18229149Y-19601434D01*
X18264863Y-19601434D01*
X18279149Y-19594291D01*
X18414863Y-19658577D02*
X18414863Y-19508577D01*
X18414863Y-19651434D02*
X18400577Y-19658577D01*
X18372006Y-19658577D01*
X18357720Y-19651434D01*
X18350577Y-19644291D01*
X18343434Y-19630006D01*
X18343434Y-19587149D01*
X18350577Y-19572863D01*
X18357720Y-19565720D01*
X18372006Y-19558577D01*
X18400577Y-19558577D01*
X18414863Y-19565720D01*
X18600577Y-19580006D02*
X18650577Y-19580006D01*
X18672006Y-19658577D02*
X18600577Y-19658577D01*
X18600577Y-19508577D01*
X18672006Y-19508577D01*
X18736291Y-19644291D02*
X18743434Y-19651434D01*
X18736291Y-19658577D01*
X18729149Y-19651434D01*
X18736291Y-19644291D01*
X18736291Y-19658577D01*
X18807720Y-19658577D02*
X18807720Y-19508577D01*
X18843434Y-19508577D01*
X18864863Y-19515720D01*
X18879149Y-19530006D01*
X18886291Y-19544291D01*
X18893434Y-19572863D01*
X18893434Y-19594291D01*
X18886291Y-19622863D01*
X18879149Y-19637149D01*
X18864863Y-19651434D01*
X18843434Y-19658577D01*
X18807720Y-19658577D01*
X18957720Y-19644291D02*
X18964863Y-19651434D01*
X18957720Y-19658577D01*
X18950577Y-19651434D01*
X18957720Y-19644291D01*
X18957720Y-19658577D01*
X19022006Y-19615720D02*
X19093434Y-19615720D01*
X19007720Y-19658577D02*
X19057720Y-19508577D01*
X19107720Y-19658577D01*
X19157720Y-19644291D02*
X19164863Y-19651434D01*
X19157720Y-19658577D01*
X19150577Y-19651434D01*
X19157720Y-19644291D01*
X19157720Y-19658577D01*
X19457720Y-19658577D02*
X19457720Y-19508577D01*
X19472006Y-19601434D02*
X19514863Y-19658577D01*
X19514863Y-19558577D02*
X19457720Y-19615720D01*
X19579149Y-19658577D02*
X19579149Y-19558577D01*
X19579149Y-19508577D02*
X19572006Y-19515720D01*
X19579149Y-19522863D01*
X19586291Y-19515720D01*
X19579149Y-19508577D01*
X19579149Y-19522863D01*
X19714863Y-19651434D02*
X19700577Y-19658577D01*
X19672006Y-19658577D01*
X19657720Y-19651434D01*
X19650577Y-19644291D01*
X19643434Y-19630006D01*
X19643434Y-19587149D01*
X19650577Y-19572863D01*
X19657720Y-19565720D01*
X19672006Y-19558577D01*
X19700577Y-19558577D01*
X19714863Y-19565720D01*
X19843434Y-19658577D02*
X19843434Y-19580006D01*
X19836291Y-19565720D01*
X19822006Y-19558577D01*
X19793434Y-19558577D01*
X19779149Y-19565720D01*
X19843434Y-19651434D02*
X19829149Y-19658577D01*
X19793434Y-19658577D01*
X19779149Y-19651434D01*
X19772006Y-19637149D01*
X19772006Y-19622863D01*
X19779149Y-19608577D01*
X19793434Y-19601434D01*
X19829149Y-19601434D01*
X19843434Y-19594291D01*
X19979149Y-19658577D02*
X19979149Y-19508577D01*
X19979149Y-19651434D02*
X19964863Y-19658577D01*
X19936291Y-19658577D01*
X19922006Y-19651434D01*
X19914863Y-19644291D01*
X19907720Y-19630006D01*
X19907720Y-19587149D01*
X19914863Y-19572863D01*
X19922006Y-19565720D01*
X19936291Y-19558577D01*
X19964863Y-19558577D01*
X19979149Y-19565720D01*
X20236291Y-19508577D02*
X20164863Y-19508577D01*
X20157720Y-19580006D01*
X20164863Y-19572863D01*
X20179149Y-19565720D01*
X20214863Y-19565720D01*
X20229149Y-19572863D01*
X20236291Y-19580006D01*
X20243434Y-19594291D01*
X20243434Y-19630006D01*
X20236291Y-19644291D01*
X20229149Y-19651434D01*
X20214863Y-19658577D01*
X20179149Y-19658577D01*
X20164863Y-19651434D01*
X20157720Y-19644291D01*
X20307720Y-19644291D02*
X20314863Y-19651434D01*
X20307720Y-19658577D01*
X20300577Y-19651434D01*
X20307720Y-19644291D01*
X20307720Y-19658577D01*
X20457720Y-19658577D02*
X20372006Y-19658577D01*
X20414863Y-19658577D02*
X20414863Y-19508577D01*
X20400577Y-19530006D01*
X20386291Y-19544291D01*
X20372006Y-19551434D01*
X20522006Y-19644291D02*
X20529149Y-19651434D01*
X20522006Y-19658577D01*
X20514863Y-19651434D01*
X20522006Y-19644291D01*
X20522006Y-19658577D01*
X20657720Y-19508577D02*
X20629149Y-19508577D01*
X20614863Y-19515720D01*
X20607720Y-19522863D01*
X20593434Y-19544291D01*
X20586291Y-19572863D01*
X20586291Y-19630006D01*
X20593434Y-19644291D01*
X20600577Y-19651434D01*
X20614863Y-19658577D01*
X20643434Y-19658577D01*
X20657720Y-19651434D01*
X20664863Y-19644291D01*
X20672006Y-19630006D01*
X20672006Y-19594291D01*
X20664863Y-19580006D01*
X20657720Y-19572863D01*
X20643434Y-19565720D01*
X20614863Y-19565720D01*
X20600577Y-19572863D01*
X20593434Y-19580006D01*
X20586291Y-19594291D01*
X20736291Y-19601434D02*
X20850577Y-19601434D01*
X20793434Y-19658577D02*
X20793434Y-19544291D01*
X20986291Y-19658577D02*
X20986291Y-19508577D01*
X20986291Y-19651434D02*
X20972006Y-19658577D01*
X20943434Y-19658577D01*
X20929149Y-19651434D01*
X20922006Y-19644291D01*
X20914863Y-19630006D01*
X20914863Y-19587149D01*
X20922006Y-19572863D01*
X20929149Y-19565720D01*
X20943434Y-19558577D01*
X20972006Y-19558577D01*
X20986291Y-19565720D01*
X21036291Y-19558577D02*
X21093434Y-19558577D01*
X21057720Y-19658577D02*
X21057720Y-19530006D01*
X21064863Y-19515720D01*
X21079149Y-19508577D01*
X21093434Y-19508577D01*
X21136291Y-19651434D02*
X21150577Y-19658577D01*
X21179149Y-19658577D01*
X21193434Y-19651434D01*
X21200577Y-19637149D01*
X21200577Y-19630006D01*
X21193434Y-19615720D01*
X21179149Y-19608577D01*
X21157720Y-19608577D01*
X21143434Y-19601434D01*
X21136291Y-19587149D01*
X21136291Y-19580006D01*
X21143434Y-19565720D01*
X21157720Y-19558577D01*
X21179149Y-19558577D01*
X21193434Y-19565720D01*
X21329149Y-19558577D02*
X21329149Y-19680006D01*
X21322006Y-19694291D01*
X21314863Y-19701434D01*
X21300577Y-19708577D01*
X21279149Y-19708577D01*
X21264863Y-19701434D01*
X21329149Y-19651434D02*
X21314863Y-19658577D01*
X21286291Y-19658577D01*
X21272006Y-19651434D01*
X21264863Y-19644291D01*
X21257720Y-19630006D01*
X21257720Y-19587149D01*
X21264863Y-19572863D01*
X21272006Y-19565720D01*
X21286291Y-19558577D01*
X21314863Y-19558577D01*
X21329149Y-19565720D01*
X21479149Y-19658577D02*
X21393434Y-19658577D01*
X21436291Y-19658577D02*
X21436291Y-19508577D01*
X21422006Y-19530006D01*
X21407720Y-19544291D01*
X21393434Y-19551434D01*
X21543434Y-19601434D02*
X21657720Y-19601434D01*
X21807720Y-19658577D02*
X21722006Y-19658577D01*
X21764863Y-19658577D02*
X21764863Y-19508577D01*
X21750577Y-19530006D01*
X21736291Y-19544291D01*
X21722006Y-19551434D01*
D10*
D11*
X17700220Y-19150720D02*
X28500220Y-19150720D01*
D10*
D12*
X26441148Y-19378577D02*
X26391148Y-19307149D01*
X26355434Y-19378577D02*
X26355434Y-19228577D01*
X26412577Y-19228577D01*
X26426863Y-19235720D01*
X26434006Y-19242863D01*
X26441148Y-19257149D01*
X26441148Y-19278577D01*
X26434006Y-19292863D01*
X26426863Y-19300006D01*
X26412577Y-19307149D01*
X26355434Y-19307149D01*
X26562577Y-19371434D02*
X26548291Y-19378577D01*
X26519720Y-19378577D01*
X26505434Y-19371434D01*
X26498291Y-19357149D01*
X26498291Y-19300006D01*
X26505434Y-19285720D01*
X26519720Y-19278577D01*
X26548291Y-19278577D01*
X26562577Y-19285720D01*
X26569720Y-19300006D01*
X26569720Y-19314291D01*
X26498291Y-19328577D01*
X26619720Y-19278577D02*
X26655434Y-19378577D01*
X26691148Y-19278577D01*
X26748291Y-19364291D02*
X26755434Y-19371434D01*
X26748291Y-19378577D01*
X26741148Y-19371434D01*
X26748291Y-19364291D01*
X26748291Y-19378577D01*
X26748291Y-19285720D02*
X26755434Y-19292863D01*
X26748291Y-19300006D01*
X26741148Y-19292863D01*
X26748291Y-19285720D01*
X26748291Y-19300006D01*
D10*
D11*
X17836291Y-19371434D02*
X17857720Y-19378577D01*
X17893434Y-19378577D01*
X17907720Y-19371434D01*
X17914863Y-19364291D01*
X17922006Y-19350006D01*
X17922006Y-19335720D01*
X17914863Y-19321434D01*
X17907720Y-19314291D01*
X17893434Y-19307149D01*
X17864863Y-19300006D01*
X17850577Y-19292863D01*
X17843434Y-19285720D01*
X17836291Y-19271434D01*
X17836291Y-19257149D01*
X17843434Y-19242863D01*
X17850577Y-19235720D01*
X17864863Y-19228577D01*
X17900577Y-19228577D01*
X17922006Y-19235720D01*
X17986291Y-19378577D02*
X17986291Y-19278577D01*
X17986291Y-19228577D02*
X17979149Y-19235720D01*
X17986291Y-19242863D01*
X17993434Y-19235720D01*
X17986291Y-19228577D01*
X17986291Y-19242863D01*
X18043434Y-19278577D02*
X18122006Y-19278577D01*
X18043434Y-19378577D01*
X18122006Y-19378577D01*
X18236291Y-19371434D02*
X18222006Y-19378577D01*
X18193434Y-19378577D01*
X18179149Y-19371434D01*
X18172006Y-19357149D01*
X18172006Y-19300006D01*
X18179149Y-19285720D01*
X18193434Y-19278577D01*
X18222006Y-19278577D01*
X18236291Y-19285720D01*
X18243434Y-19300006D01*
X18243434Y-19314291D01*
X18172006Y-19328577D01*
X18307720Y-19364291D02*
X18314863Y-19371434D01*
X18307720Y-19378577D01*
X18300577Y-19371434D01*
X18307720Y-19364291D01*
X18307720Y-19378577D01*
X18307720Y-19285720D02*
X18314863Y-19292863D01*
X18307720Y-19300006D01*
X18300577Y-19292863D01*
X18307720Y-19285720D01*
X18307720Y-19300006D01*
X18486291Y-19335720D02*
X18557720Y-19335720D01*
X18472006Y-19378577D02*
X18522006Y-19228577D01*
X18572006Y-19378577D01*
X18686291Y-19278577D02*
X18686291Y-19378577D01*
X18650577Y-19221434D02*
X18614863Y-19328577D01*
X18707720Y-19328577D01*
D10*
D11*
X26343434Y-19658577D02*
X26343434Y-19508577D01*
X26479148Y-19658577D02*
X26479148Y-19508577D01*
X26479148Y-19651434D02*
X26464863Y-19658577D01*
X26436291Y-19658577D01*
X26422006Y-19651434D01*
X26414863Y-19644291D01*
X26407720Y-19630006D01*
X26407720Y-19587149D01*
X26414863Y-19572863D01*
X26422006Y-19565720D01*
X26436291Y-19558577D01*
X26464863Y-19558577D01*
X26479148Y-19565720D01*
X26550577Y-19644291D02*
X26557720Y-19651434D01*
X26550577Y-19658577D01*
X26543434Y-19651434D01*
X26550577Y-19644291D01*
X26550577Y-19658577D01*
X26550577Y-19565720D02*
X26557720Y-19572863D01*
X26550577Y-19580006D01*
X26543434Y-19572863D01*
X26550577Y-19565720D01*
X26550577Y-19580006D01*
X26814863Y-19658577D02*
X26729148Y-19658577D01*
X26772006Y-19658577D02*
X26772006Y-19508577D01*
X26757720Y-19530006D01*
X26743434Y-19544291D01*
X26729148Y-19551434D01*
X26986291Y-19501434D02*
X26857720Y-19694291D01*
X27114863Y-19658577D02*
X27029148Y-19658577D01*
X27072006Y-19658577D02*
X27072006Y-19508577D01*
X27057720Y-19530006D01*
X27043434Y-19544291D01*
X27029148Y-19551434D01*
D10*
D11*
X17700220Y-18750720D02*
X28500220Y-18750720D01*
D10*
D13*
X17871458Y-18821196D02*
X17985744Y-18821196D01*
X17903601Y-19021196D02*
X17928601Y-18821196D01*
X18027410Y-19021196D02*
X18044077Y-18887863D01*
X18052410Y-18821196D02*
X18041696Y-18830720D01*
X18050030Y-18840244D01*
X18060744Y-18830720D01*
X18052410Y-18821196D01*
X18050030Y-18840244D01*
X18110744Y-18887863D02*
X18186934Y-18887863D01*
X18147649Y-18821196D02*
X18126220Y-18992625D01*
X18133363Y-19011672D01*
X18151220Y-19021196D01*
X18170268Y-19021196D01*
X18265506Y-19021196D02*
X18247649Y-19011672D01*
X18240506Y-18992625D01*
X18261934Y-18821196D01*
X18419077Y-19011672D02*
X18398839Y-19021196D01*
X18360744Y-19021196D01*
X18342887Y-19011672D01*
X18335744Y-18992625D01*
X18345268Y-18916434D01*
X18357172Y-18897387D01*
X18377410Y-18887863D01*
X18415506Y-18887863D01*
X18433363Y-18897387D01*
X18440506Y-18916434D01*
X18438125Y-18935482D01*
X18340506Y-18954530D01*
X18515506Y-19002149D02*
X18523839Y-19011672D01*
X18513125Y-19021196D01*
X18504791Y-19011672D01*
X18515506Y-19002149D01*
X18513125Y-19021196D01*
X18528601Y-18897387D02*
X18536934Y-18906910D01*
X18526220Y-18916434D01*
X18517887Y-18906910D01*
X18528601Y-18897387D01*
X18526220Y-18916434D01*
D10*
D11*
X17893434Y-18560006D02*
X17843434Y-18560006D01*
X17843434Y-18638577D02*
X17843434Y-18488577D01*
X17914863Y-18488577D01*
X17972006Y-18638577D02*
X17972006Y-18538577D01*
X17972006Y-18488577D02*
X17964863Y-18495720D01*
X17972006Y-18502863D01*
X17979149Y-18495720D01*
X17972006Y-18488577D01*
X17972006Y-18502863D01*
X18064863Y-18638577D02*
X18050577Y-18631434D01*
X18043434Y-18617149D01*
X18043434Y-18488577D01*
X18179149Y-18631434D02*
X18164863Y-18638577D01*
X18136291Y-18638577D01*
X18122006Y-18631434D01*
X18114863Y-18617149D01*
X18114863Y-18560006D01*
X18122006Y-18545720D01*
X18136291Y-18538577D01*
X18164863Y-18538577D01*
X18179149Y-18545720D01*
X18186291Y-18560006D01*
X18186291Y-18574291D01*
X18114863Y-18588577D01*
X18250577Y-18624291D02*
X18257720Y-18631434D01*
X18250577Y-18638577D01*
X18243434Y-18631434D01*
X18250577Y-18624291D01*
X18250577Y-18638577D01*
X18250577Y-18545720D02*
X18257720Y-18552863D01*
X18250577Y-18560006D01*
X18243434Y-18552863D01*
X18250577Y-18545720D01*
X18250577Y-18560006D01*
X18486291Y-18560006D02*
X18507720Y-18567149D01*
X18514863Y-18574291D01*
X18522006Y-18588577D01*
X18522006Y-18610006D01*
X18514863Y-18624291D01*
X18507720Y-18631434D01*
X18493434Y-18638577D01*
X18436291Y-18638577D01*
X18436291Y-18488577D01*
X18486291Y-18488577D01*
X18500577Y-18495720D01*
X18507720Y-18502863D01*
X18514863Y-18517149D01*
X18514863Y-18531434D01*
X18507720Y-18545720D01*
X18500577Y-18552863D01*
X18486291Y-18560006D01*
X18436291Y-18560006D01*
X18650577Y-18638577D02*
X18650577Y-18560006D01*
X18643434Y-18545720D01*
X18629149Y-18538577D01*
X18600577Y-18538577D01*
X18586291Y-18545720D01*
X18650577Y-18631434D02*
X18636291Y-18638577D01*
X18600577Y-18638577D01*
X18586291Y-18631434D01*
X18579149Y-18617149D01*
X18579149Y-18602863D01*
X18586291Y-18588577D01*
X18600577Y-18581434D01*
X18636291Y-18581434D01*
X18650577Y-18574291D01*
X18700577Y-18538577D02*
X18757720Y-18538577D01*
X18722006Y-18488577D02*
X18722006Y-18617149D01*
X18729149Y-18631434D01*
X18743434Y-18638577D01*
X18757720Y-18638577D01*
X18807720Y-18638577D02*
X18807720Y-18488577D01*
X18864863Y-18488577D01*
X18879149Y-18495720D01*
X18886291Y-18502863D01*
X18893434Y-18517149D01*
X18893434Y-18538577D01*
X18886291Y-18552863D01*
X18879149Y-18560006D01*
X18864863Y-18567149D01*
X18807720Y-18567149D01*
X18957720Y-18638577D02*
X18957720Y-18538577D01*
X18957720Y-18567149D02*
X18964863Y-18552863D01*
X18972006Y-18545720D01*
X18986291Y-18538577D01*
X19000577Y-18538577D01*
X19072006Y-18638577D02*
X19057720Y-18631434D01*
X19050577Y-18624291D01*
X19043434Y-18610006D01*
X19043434Y-18567149D01*
X19050577Y-18552863D01*
X19057720Y-18545720D01*
X19072006Y-18538577D01*
X19093434Y-18538577D01*
X19107720Y-18545720D01*
X19114863Y-18552863D01*
X19122006Y-18567149D01*
X19122006Y-18610006D01*
X19114863Y-18624291D01*
X19107720Y-18631434D01*
X19093434Y-18638577D01*
X19072006Y-18638577D01*
X19164863Y-18538577D02*
X19222006Y-18538577D01*
X19186291Y-18488577D02*
X19186291Y-18617149D01*
X19193434Y-18631434D01*
X19207720Y-18638577D01*
X19222006Y-18638577D01*
X19329149Y-18631434D02*
X19314863Y-18638577D01*
X19286291Y-18638577D01*
X19272006Y-18631434D01*
X19264863Y-18617149D01*
X19264863Y-18560006D01*
X19272006Y-18545720D01*
X19286291Y-18538577D01*
X19314863Y-18538577D01*
X19329149Y-18545720D01*
X19336291Y-18560006D01*
X19336291Y-18574291D01*
X19264863Y-18588577D01*
X19464863Y-18631434D02*
X19450577Y-18638577D01*
X19422006Y-18638577D01*
X19407720Y-18631434D01*
X19400577Y-18624291D01*
X19393434Y-18610006D01*
X19393434Y-18567149D01*
X19400577Y-18552863D01*
X19407720Y-18545720D01*
X19422006Y-18538577D01*
X19450577Y-18538577D01*
X19464863Y-18545720D01*
X19507720Y-18538577D02*
X19564863Y-18538577D01*
X19529149Y-18488577D02*
X19529149Y-18617149D01*
X19536291Y-18631434D01*
X19550577Y-18638577D01*
X19564863Y-18638577D01*
X19614863Y-18624291D02*
X19622006Y-18631434D01*
X19614863Y-18638577D01*
X19607720Y-18631434D01*
X19614863Y-18624291D01*
X19614863Y-18638577D01*
X19686291Y-18638577D02*
X19686291Y-18488577D01*
X19700577Y-18581434D02*
X19743434Y-18638577D01*
X19743434Y-18538577D02*
X19686291Y-18595720D01*
X19807720Y-18638577D02*
X19807720Y-18538577D01*
X19807720Y-18488577D02*
X19800577Y-18495720D01*
X19807720Y-18502863D01*
X19814863Y-18495720D01*
X19807720Y-18488577D01*
X19807720Y-18502863D01*
X19943434Y-18631434D02*
X19929149Y-18638577D01*
X19900577Y-18638577D01*
X19886291Y-18631434D01*
X19879149Y-18624291D01*
X19872006Y-18610006D01*
X19872006Y-18567149D01*
X19879149Y-18552863D01*
X19886291Y-18545720D01*
X19900577Y-18538577D01*
X19929149Y-18538577D01*
X19943434Y-18545720D01*
X20072006Y-18638577D02*
X20072006Y-18560006D01*
X20064863Y-18545720D01*
X20050577Y-18538577D01*
X20022006Y-18538577D01*
X20007720Y-18545720D01*
X20072006Y-18631434D02*
X20057720Y-18638577D01*
X20022006Y-18638577D01*
X20007720Y-18631434D01*
X20000577Y-18617149D01*
X20000577Y-18602863D01*
X20007720Y-18588577D01*
X20022006Y-18581434D01*
X20057720Y-18581434D01*
X20072006Y-18574291D01*
X20207720Y-18638577D02*
X20207720Y-18488577D01*
X20207720Y-18631434D02*
X20193434Y-18638577D01*
X20164863Y-18638577D01*
X20150577Y-18631434D01*
X20143434Y-18624291D01*
X20136291Y-18610006D01*
X20136291Y-18567149D01*
X20143434Y-18552863D01*
X20150577Y-18545720D01*
X20164863Y-18538577D01*
X20193434Y-18538577D01*
X20207720Y-18545720D01*
X20243434Y-18652863D02*
X20357720Y-18652863D01*
X20393434Y-18538577D02*
X20393434Y-18688577D01*
X20393434Y-18545720D02*
X20407720Y-18538577D01*
X20436291Y-18538577D01*
X20450577Y-18545720D01*
X20457720Y-18552863D01*
X20464863Y-18567149D01*
X20464863Y-18610006D01*
X20457720Y-18624291D01*
X20450577Y-18631434D01*
X20436291Y-18638577D01*
X20407720Y-18638577D01*
X20393434Y-18631434D01*
X20593434Y-18631434D02*
X20579149Y-18638577D01*
X20550577Y-18638577D01*
X20536291Y-18631434D01*
X20529149Y-18624291D01*
X20522006Y-18610006D01*
X20522006Y-18567149D01*
X20529149Y-18552863D01*
X20536291Y-18545720D01*
X20550577Y-18538577D01*
X20579149Y-18538577D01*
X20593434Y-18545720D01*
X20657720Y-18638577D02*
X20657720Y-18488577D01*
X20657720Y-18545720D02*
X20672006Y-18538577D01*
X20700577Y-18538577D01*
X20714863Y-18545720D01*
X20722006Y-18552863D01*
X20729149Y-18567149D01*
X20729149Y-18610006D01*
X20722006Y-18624291D01*
X20714863Y-18631434D01*
X20700577Y-18638577D01*
X20672006Y-18638577D01*
X20657720Y-18631434D01*
D10*
D11*
X17700220Y-18150720D02*
X28500220Y-18150720D01*
D10*
D11*
X17836291Y-18361434D02*
X17857720Y-18368577D01*
X17893434Y-18368577D01*
X17907720Y-18361434D01*
X17914863Y-18354291D01*
X17922006Y-18340006D01*
X17922006Y-18325720D01*
X17914863Y-18311434D01*
X17907720Y-18304291D01*
X17893434Y-18297149D01*
X17864863Y-18290006D01*
X17850577Y-18282863D01*
X17843434Y-18275720D01*
X17836291Y-18261434D01*
X17836291Y-18247149D01*
X17843434Y-18232863D01*
X17850577Y-18225720D01*
X17864863Y-18218577D01*
X17900577Y-18218577D01*
X17922006Y-18225720D01*
X17986291Y-18368577D02*
X17986291Y-18218577D01*
X18050577Y-18368577D02*
X18050577Y-18290006D01*
X18043434Y-18275720D01*
X18029149Y-18268577D01*
X18007720Y-18268577D01*
X17993434Y-18275720D01*
X17986291Y-18282863D01*
X18179149Y-18361434D02*
X18164863Y-18368577D01*
X18136291Y-18368577D01*
X18122006Y-18361434D01*
X18114863Y-18347149D01*
X18114863Y-18290006D01*
X18122006Y-18275720D01*
X18136291Y-18268577D01*
X18164863Y-18268577D01*
X18179149Y-18275720D01*
X18186291Y-18290006D01*
X18186291Y-18304291D01*
X18114863Y-18318577D01*
X18307720Y-18361434D02*
X18293434Y-18368577D01*
X18264863Y-18368577D01*
X18250577Y-18361434D01*
X18243434Y-18347149D01*
X18243434Y-18290006D01*
X18250577Y-18275720D01*
X18264863Y-18268577D01*
X18293434Y-18268577D01*
X18307720Y-18275720D01*
X18314863Y-18290006D01*
X18314863Y-18304291D01*
X18243434Y-18318577D01*
X18357720Y-18268577D02*
X18414863Y-18268577D01*
X18379149Y-18218577D02*
X18379149Y-18347149D01*
X18386291Y-18361434D01*
X18400577Y-18368577D01*
X18414863Y-18368577D01*
X18464863Y-18354291D02*
X18472006Y-18361434D01*
X18464863Y-18368577D01*
X18457720Y-18361434D01*
X18464863Y-18354291D01*
X18464863Y-18368577D01*
X18464863Y-18275720D02*
X18472006Y-18282863D01*
X18464863Y-18290006D01*
X18457720Y-18282863D01*
X18464863Y-18275720D01*
X18464863Y-18290006D01*
D10*
D11*
X19700220Y-19150720D02*
X19700220Y-19450720D01*
D10*
D11*
X26100220Y-19150720D02*
X26100220Y-19800720D01*
D10*
G36*
X8300633Y-15468258D02*
G01*
X8363419Y-15494265D01*
X8363419Y-15494265D01*
X8419925Y-15532021D01*
X8467979Y-15580075D01*
X8505735Y-15636581D01*
X8505735Y-15636581D01*
X8531742Y-15699367D01*
X8545000Y-15766020D01*
X8545000Y-15833980D01*
X8531742Y-15900633D01*
X8515545Y-15939735D01*
X8505735Y-15963419D01*
X8467979Y-16019925D01*
X8419925Y-16067979D01*
X8363419Y-16105735D01*
X8363419Y-16105735D01*
X8363419Y-16105735D01*
X8300633Y-16131742D01*
X8233980Y-16145000D01*
X8166020Y-16145000D01*
X8099367Y-16131742D01*
X8036581Y-16105735D01*
X8036581Y-16105735D01*
X8036581Y-16105735D01*
X7980075Y-16067979D01*
X7932021Y-16019925D01*
X7894265Y-15963419D01*
X7884455Y-15939735D01*
X7868258Y-15900633D01*
X7855000Y-15833980D01*
X7855000Y-15766020D01*
X7868258Y-15699367D01*
X7894265Y-15636581D01*
X7894265Y-15636581D01*
X7932021Y-15580075D01*
X7980075Y-15532021D01*
X8036581Y-15494265D01*
X8036581Y-15494265D01*
X8099367Y-15468258D01*
X8166020Y-15455000D01*
X8233980Y-15455000D01*
X8300633Y-15468258D01*
G37*
G36*
X13550633Y-15468258D02*
G01*
X13613419Y-15494265D01*
X13613419Y-15494265D01*
X13669925Y-15532021D01*
X13717979Y-15580075D01*
X13755735Y-15636581D01*
X13755735Y-15636581D01*
X13781742Y-15699367D01*
X13795000Y-15766020D01*
X13795000Y-15833980D01*
X13781742Y-15900633D01*
X13765545Y-15939735D01*
X13755735Y-15963419D01*
X13717979Y-16019925D01*
X13669925Y-16067979D01*
X13613419Y-16105735D01*
X13613419Y-16105735D01*
X13613419Y-16105735D01*
X13550633Y-16131742D01*
X13483980Y-16145000D01*
X13416020Y-16145000D01*
X13349367Y-16131742D01*
X13286581Y-16105735D01*
X13286581Y-16105735D01*
X13286581Y-16105735D01*
X13230075Y-16067979D01*
X13182021Y-16019925D01*
X13144265Y-15963419D01*
X13134455Y-15939735D01*
X13118258Y-15900633D01*
X13105000Y-15833980D01*
X13105000Y-15766020D01*
X13118258Y-15699367D01*
X13144265Y-15636581D01*
X13144265Y-15636581D01*
X13182021Y-15580075D01*
X13230075Y-15532021D01*
X13286581Y-15494265D01*
X13286581Y-15494265D01*
X13349367Y-15468258D01*
X13416020Y-15455000D01*
X13483980Y-15455000D01*
X13550633Y-15468258D01*
G37*
G36*
X14886048Y-15516337D02*
G01*
X14939735Y-15538574D01*
X14939735Y-15538574D01*
X14988052Y-15570858D01*
X15029141Y-15611948D01*
X15045601Y-15636581D01*
X15061426Y-15660265D01*
X15083663Y-15713952D01*
X15095000Y-15770945D01*
X15095000Y-15829055D01*
X15083663Y-15886048D01*
X15061426Y-15939735D01*
X15061426Y-15939735D01*
X15029141Y-15988052D01*
X14988052Y-16029141D01*
X14939735Y-16061426D01*
X14939735Y-16061426D01*
X14939735Y-16061426D01*
X14886048Y-16083663D01*
X14829055Y-16095000D01*
X14770945Y-16095000D01*
X14713952Y-16083663D01*
X14660265Y-16061426D01*
X14660265Y-16061426D01*
X14660265Y-16061426D01*
X14611948Y-16029141D01*
X14570858Y-15988052D01*
X14538574Y-15939735D01*
X14538574Y-15939735D01*
X14516337Y-15886048D01*
X14505000Y-15829055D01*
X14505000Y-15770945D01*
X14516337Y-15713952D01*
X14538574Y-15660265D01*
X14554399Y-15636581D01*
X14570858Y-15611948D01*
X14611948Y-15570858D01*
X14660265Y-15538574D01*
X14660265Y-15538574D01*
X14713952Y-15516337D01*
X14770945Y-15505000D01*
X14829055Y-15505000D01*
X14886048Y-15516337D01*
G37*
G36*
X6336048Y-15516337D02*
G01*
X6389735Y-15538574D01*
X6389735Y-15538574D01*
X6438052Y-15570858D01*
X6479141Y-15611948D01*
X6495601Y-15636581D01*
X6511426Y-15660265D01*
X6533663Y-15713952D01*
X6545000Y-15770945D01*
X6545000Y-15829055D01*
X6533663Y-15886048D01*
X6511426Y-15939735D01*
X6511426Y-15939735D01*
X6479141Y-15988052D01*
X6438052Y-16029141D01*
X6389735Y-16061426D01*
X6389735Y-16061426D01*
X6389735Y-16061426D01*
X6336048Y-16083663D01*
X6279055Y-16095000D01*
X6220945Y-16095000D01*
X6163952Y-16083663D01*
X6110265Y-16061426D01*
X6110265Y-16061426D01*
X6110265Y-16061426D01*
X6061948Y-16029141D01*
X6020858Y-15988052D01*
X5988574Y-15939735D01*
X5988574Y-15939735D01*
X5966337Y-15886048D01*
X5955000Y-15829055D01*
X5955000Y-15770945D01*
X5966337Y-15713952D01*
X5988574Y-15660265D01*
X6004399Y-15636581D01*
X6020858Y-15611948D01*
X6061948Y-15570858D01*
X6110265Y-15538574D01*
X6110265Y-15538574D01*
X6163952Y-15516337D01*
X6220945Y-15505000D01*
X6279055Y-15505000D01*
X6336048Y-15516337D01*
G37*
G36*
X10064362Y-15233052D02*
G01*
X10069159Y-15234507D01*
X10073578Y-15236869D01*
X10077452Y-15240048D01*
X10080631Y-15243922D01*
X10082993Y-15248341D01*
X10084448Y-15253138D01*
X10085000Y-15258739D01*
X10085000Y-15341261D01*
X10084448Y-15346862D01*
X10082993Y-15351658D01*
X10080631Y-15356078D01*
X10077452Y-15359952D01*
X10073578Y-15363131D01*
X10069159Y-15365493D01*
X10064362Y-15366948D01*
X10058761Y-15367500D01*
X9983739Y-15367500D01*
X9978138Y-15366948D01*
X9973342Y-15365493D01*
X9968922Y-15363131D01*
X9965048Y-15359952D01*
X9961869Y-15356078D01*
X9959507Y-15351658D01*
X9958052Y-15346862D01*
X9957500Y-15341261D01*
X9957500Y-15258739D01*
X9958052Y-15253138D01*
X9959507Y-15248341D01*
X9961869Y-15243922D01*
X9965048Y-15240048D01*
X9968922Y-15236869D01*
X9973342Y-15234507D01*
X9978138Y-15233052D01*
X9983739Y-15232500D01*
X10058761Y-15232500D01*
X10064362Y-15233052D01*
G37*
G36*
X10221862Y-15233052D02*
G01*
X10226659Y-15234507D01*
X10231078Y-15236869D01*
X10234952Y-15240048D01*
X10238131Y-15243922D01*
X10240493Y-15248341D01*
X10241948Y-15253138D01*
X10242500Y-15258739D01*
X10242500Y-15341261D01*
X10241948Y-15346862D01*
X10240493Y-15351658D01*
X10238131Y-15356078D01*
X10234952Y-15359952D01*
X10231078Y-15363131D01*
X10226659Y-15365493D01*
X10221862Y-15366948D01*
X10216261Y-15367500D01*
X10141239Y-15367500D01*
X10135638Y-15366948D01*
X10130842Y-15365493D01*
X10126422Y-15363131D01*
X10122548Y-15359952D01*
X10119369Y-15356078D01*
X10117007Y-15351658D01*
X10115552Y-15346862D01*
X10115000Y-15341261D01*
X10115000Y-15258739D01*
X10115552Y-15253138D01*
X10117007Y-15248341D01*
X10119369Y-15243922D01*
X10122548Y-15240048D01*
X10126422Y-15236869D01*
X10130842Y-15234507D01*
X10135638Y-15233052D01*
X10141239Y-15232500D01*
X10216261Y-15232500D01*
X10221862Y-15233052D01*
G37*
G36*
X10881000Y-15365500D02*
G01*
X10719000Y-15365500D01*
X10719000Y-15234500D01*
X10881000Y-15234500D01*
X10881000Y-15365500D01*
G37*
G36*
X10255000Y-15115000D02*
G01*
X10135000Y-15115000D01*
X10135000Y-14985000D01*
X10255000Y-14985000D01*
X10255000Y-15115000D01*
G37*
G36*
X10065000Y-15115000D02*
G01*
X9945000Y-15115000D01*
X9945000Y-14985000D01*
X10065000Y-14985000D01*
X10065000Y-15115000D01*
G37*
G36*
X8040171Y-14678454D02*
G01*
X8080209Y-14695038D01*
X8080209Y-14695038D01*
X8116242Y-14719115D01*
X8146885Y-14749758D01*
X8170962Y-14785791D01*
X8187546Y-14825828D01*
X8196000Y-14868332D01*
X8196000Y-14911668D01*
X8187546Y-14954171D01*
X8174776Y-14985000D01*
X8170961Y-14994209D01*
X8146885Y-15030242D01*
X8116242Y-15060885D01*
X8080209Y-15084961D01*
X8080209Y-15084962D01*
X8080209Y-15084962D01*
X8040171Y-15101546D01*
X7997668Y-15110000D01*
X7954332Y-15110000D01*
X7911828Y-15101546D01*
X7871791Y-15084962D01*
X7871791Y-15084962D01*
X7871791Y-15084961D01*
X7835758Y-15060885D01*
X7805115Y-15030242D01*
X7781038Y-14994209D01*
X7777224Y-14985000D01*
X7764454Y-14954171D01*
X7756000Y-14911668D01*
X7756000Y-14868332D01*
X7764454Y-14825828D01*
X7781038Y-14785791D01*
X7805115Y-14749758D01*
X7835758Y-14719115D01*
X7871791Y-14695038D01*
X7871791Y-14695038D01*
X7911828Y-14678454D01*
X7954332Y-14670000D01*
X7997668Y-14670000D01*
X8040171Y-14678454D01*
G37*
G36*
X13238171Y-14678454D02*
G01*
X13278209Y-14695038D01*
X13278209Y-14695038D01*
X13314242Y-14719115D01*
X13344885Y-14749758D01*
X13368962Y-14785791D01*
X13385546Y-14825828D01*
X13394000Y-14868332D01*
X13394000Y-14911668D01*
X13385546Y-14954171D01*
X13372776Y-14985000D01*
X13368961Y-14994209D01*
X13344885Y-15030242D01*
X13314242Y-15060885D01*
X13278209Y-15084961D01*
X13278209Y-15084962D01*
X13278209Y-15084962D01*
X13238171Y-15101546D01*
X13195668Y-15110000D01*
X13152332Y-15110000D01*
X13109828Y-15101546D01*
X13069791Y-15084962D01*
X13069791Y-15084962D01*
X13069791Y-15084961D01*
X13033758Y-15060885D01*
X13003115Y-15030242D01*
X12979038Y-14994209D01*
X12975224Y-14985000D01*
X12962454Y-14954171D01*
X12954000Y-14911668D01*
X12954000Y-14868332D01*
X12962454Y-14825828D01*
X12979038Y-14785791D01*
X13003115Y-14749758D01*
X13033758Y-14719115D01*
X13069791Y-14695038D01*
X13069791Y-14695038D01*
X13109828Y-14678454D01*
X13152332Y-14670000D01*
X13195668Y-14670000D01*
X13238171Y-14678454D01*
G37*
G36*
X10881000Y-15038500D02*
G01*
X10719000Y-15038500D01*
X10719000Y-14907500D01*
X10881000Y-14907500D01*
X10881000Y-15038500D01*
G37*
G36*
X10160000Y-14915000D02*
G01*
X10040000Y-14915000D01*
X10040000Y-14785000D01*
X10160000Y-14785000D01*
X10160000Y-14915000D01*
G37*
G36*
X10810000Y-14865000D02*
G01*
X10690000Y-14865000D01*
X10690000Y-14735000D01*
X10810000Y-14735000D01*
X10810000Y-14865000D01*
G37*
G36*
X10131000Y-14742500D02*
G01*
X9969000Y-14742500D01*
X9969000Y-14611500D01*
X10131000Y-14611500D01*
X10131000Y-14742500D01*
G37*
G36*
X10715000Y-14665000D02*
G01*
X10595000Y-14665000D01*
X10595000Y-14535000D01*
X10715000Y-14535000D01*
X10715000Y-14665000D01*
G37*
G36*
X10905000Y-14665000D02*
G01*
X10785000Y-14665000D01*
X10785000Y-14535000D01*
X10905000Y-14535000D01*
X10905000Y-14665000D01*
G37*
G36*
X9288295Y-14370572D02*
G01*
X9314683Y-14381503D01*
X9314683Y-14381503D01*
X9338432Y-14397371D01*
X9358629Y-14417568D01*
X9370694Y-14435625D01*
X9374497Y-14441317D01*
X9385428Y-14467705D01*
X9391000Y-14495719D01*
X9391000Y-14524281D01*
X9385428Y-14552295D01*
X9374497Y-14578683D01*
X9374497Y-14578683D01*
X9358629Y-14602432D01*
X9338432Y-14622629D01*
X9314683Y-14638497D01*
X9314683Y-14638497D01*
X9314683Y-14638497D01*
X9288295Y-14649428D01*
X9260281Y-14655000D01*
X9231719Y-14655000D01*
X9203705Y-14649428D01*
X9177317Y-14638497D01*
X9177317Y-14638497D01*
X9177317Y-14638497D01*
X9153568Y-14622629D01*
X9133371Y-14602432D01*
X9117503Y-14578683D01*
X9117503Y-14578683D01*
X9106572Y-14552295D01*
X9101000Y-14524281D01*
X9101000Y-14495719D01*
X9106572Y-14467705D01*
X9117503Y-14441317D01*
X9121306Y-14435625D01*
X9133371Y-14417568D01*
X9153568Y-14397371D01*
X9177317Y-14381503D01*
X9177317Y-14381503D01*
X9203705Y-14370572D01*
X9231719Y-14365000D01*
X9260281Y-14365000D01*
X9288295Y-14370572D01*
G37*
G36*
X11696295Y-14370572D02*
G01*
X11722683Y-14381503D01*
X11722683Y-14381503D01*
X11746432Y-14397371D01*
X11766629Y-14417568D01*
X11778694Y-14435625D01*
X11782497Y-14441317D01*
X11793428Y-14467705D01*
X11799000Y-14495719D01*
X11799000Y-14524281D01*
X11793428Y-14552295D01*
X11782497Y-14578683D01*
X11782497Y-14578683D01*
X11766629Y-14602432D01*
X11746432Y-14622629D01*
X11722683Y-14638497D01*
X11722683Y-14638497D01*
X11722683Y-14638497D01*
X11696295Y-14649428D01*
X11668281Y-14655000D01*
X11639719Y-14655000D01*
X11611705Y-14649428D01*
X11585317Y-14638497D01*
X11585317Y-14638497D01*
X11585317Y-14638497D01*
X11561568Y-14622629D01*
X11541371Y-14602432D01*
X11525503Y-14578683D01*
X11525503Y-14578683D01*
X11514572Y-14552295D01*
X11509000Y-14524281D01*
X11509000Y-14495719D01*
X11514572Y-14467705D01*
X11525503Y-14441317D01*
X11529306Y-14435625D01*
X11541371Y-14417568D01*
X11561568Y-14397371D01*
X11585317Y-14381503D01*
X11585317Y-14381503D01*
X11611705Y-14370572D01*
X11639719Y-14365000D01*
X11668281Y-14365000D01*
X11696295Y-14370572D01*
G37*
G36*
X10693112Y-14333052D02*
G01*
X10697909Y-14334507D01*
X10702328Y-14336869D01*
X10706202Y-14340048D01*
X10709381Y-14343922D01*
X10711743Y-14348341D01*
X10713198Y-14353138D01*
X10713750Y-14358739D01*
X10713750Y-14441261D01*
X10713198Y-14446862D01*
X10711743Y-14451658D01*
X10709381Y-14456078D01*
X10706202Y-14459952D01*
X10702328Y-14463131D01*
X10697909Y-14465493D01*
X10693112Y-14466948D01*
X10687511Y-14467500D01*
X10612489Y-14467500D01*
X10606888Y-14466948D01*
X10602092Y-14465493D01*
X10597672Y-14463131D01*
X10593798Y-14459952D01*
X10590619Y-14456078D01*
X10588257Y-14451658D01*
X10586802Y-14446862D01*
X10586250Y-14441261D01*
X10586250Y-14358739D01*
X10586802Y-14353138D01*
X10588257Y-14348341D01*
X10590619Y-14343922D01*
X10593798Y-14340048D01*
X10597672Y-14336869D01*
X10602092Y-14334507D01*
X10606888Y-14333052D01*
X10612489Y-14332500D01*
X10687511Y-14332500D01*
X10693112Y-14333052D01*
G37*
G36*
X10850612Y-14333052D02*
G01*
X10855409Y-14334507D01*
X10859828Y-14336869D01*
X10863702Y-14340048D01*
X10866881Y-14343922D01*
X10869243Y-14348341D01*
X10870698Y-14353138D01*
X10871250Y-14358739D01*
X10871250Y-14441261D01*
X10870698Y-14446862D01*
X10869243Y-14451658D01*
X10866881Y-14456078D01*
X10863702Y-14459952D01*
X10859828Y-14463131D01*
X10855409Y-14465493D01*
X10850612Y-14466948D01*
X10845011Y-14467500D01*
X10769989Y-14467500D01*
X10764388Y-14466948D01*
X10759592Y-14465493D01*
X10755172Y-14463131D01*
X10751298Y-14459952D01*
X10748119Y-14456078D01*
X10745757Y-14451658D01*
X10744302Y-14446862D01*
X10743750Y-14441261D01*
X10743750Y-14358739D01*
X10744302Y-14353138D01*
X10745757Y-14348341D01*
X10748119Y-14343922D01*
X10751298Y-14340048D01*
X10755172Y-14336869D01*
X10759592Y-14334507D01*
X10764388Y-14333052D01*
X10769989Y-14332500D01*
X10845011Y-14332500D01*
X10850612Y-14333052D01*
G37*
G36*
X10131000Y-14415500D02*
G01*
X9969000Y-14415500D01*
X9969000Y-14284500D01*
X10131000Y-14284500D01*
X10131000Y-14415500D01*
G37*
G36*
X14850633Y-13018258D02*
G01*
X14913419Y-13044265D01*
X14913419Y-13044265D01*
X14969925Y-13082021D01*
X15017979Y-13130075D01*
X15055379Y-13186048D01*
X15055735Y-13186581D01*
X15081742Y-13249367D01*
X15095000Y-13316020D01*
X15095000Y-13383980D01*
X15081742Y-13450633D01*
X15055735Y-13513419D01*
X15055735Y-13513419D01*
X15017979Y-13569925D01*
X14969925Y-13617979D01*
X14913419Y-13655735D01*
X14913419Y-13655735D01*
X14913419Y-13655735D01*
X14850633Y-13681742D01*
X14783980Y-13695000D01*
X14716020Y-13695000D01*
X14649367Y-13681742D01*
X14586581Y-13655735D01*
X14586581Y-13655735D01*
X14586581Y-13655735D01*
X14530075Y-13617979D01*
X14482021Y-13569925D01*
X14444265Y-13513419D01*
X14444265Y-13513419D01*
X14418258Y-13450633D01*
X14405000Y-13383980D01*
X14405000Y-13316020D01*
X14418258Y-13249367D01*
X14444265Y-13186581D01*
X14444621Y-13186048D01*
X14482021Y-13130075D01*
X14530075Y-13082021D01*
X14586581Y-13044265D01*
X14586581Y-13044265D01*
X14649367Y-13018258D01*
X14716020Y-13005000D01*
X14783980Y-13005000D01*
X14850633Y-13018258D01*
G37*
G36*
X11696295Y-13350572D02*
G01*
X11722497Y-13361426D01*
X11722683Y-13361503D01*
X11746432Y-13377371D01*
X11766629Y-13397568D01*
X11782497Y-13421317D01*
X11782497Y-13421317D01*
X11793428Y-13447705D01*
X11799000Y-13475719D01*
X11799000Y-13504281D01*
X11793428Y-13532295D01*
X11782497Y-13558683D01*
X11782497Y-13558683D01*
X11766629Y-13582432D01*
X11746432Y-13602629D01*
X11722683Y-13618497D01*
X11722683Y-13618497D01*
X11722683Y-13618497D01*
X11696295Y-13629428D01*
X11668281Y-13635000D01*
X11639719Y-13635000D01*
X11611705Y-13629428D01*
X11585317Y-13618497D01*
X11585317Y-13618497D01*
X11585317Y-13618497D01*
X11561568Y-13602629D01*
X11541371Y-13582432D01*
X11525503Y-13558683D01*
X11525503Y-13558683D01*
X11514572Y-13532295D01*
X11509000Y-13504281D01*
X11509000Y-13475719D01*
X11514572Y-13447705D01*
X11525503Y-13421317D01*
X11525503Y-13421317D01*
X11541371Y-13397568D01*
X11561568Y-13377371D01*
X11585317Y-13361503D01*
X11585503Y-13361426D01*
X11611705Y-13350572D01*
X11639719Y-13345000D01*
X11668281Y-13345000D01*
X11696295Y-13350572D01*
G37*
G36*
X9288295Y-13350572D02*
G01*
X9314497Y-13361426D01*
X9314683Y-13361503D01*
X9338432Y-13377371D01*
X9358629Y-13397568D01*
X9374497Y-13421317D01*
X9374497Y-13421317D01*
X9385428Y-13447705D01*
X9391000Y-13475719D01*
X9391000Y-13504281D01*
X9385428Y-13532295D01*
X9374497Y-13558683D01*
X9374497Y-13558683D01*
X9358629Y-13582432D01*
X9338432Y-13602629D01*
X9314683Y-13618497D01*
X9314683Y-13618497D01*
X9314683Y-13618497D01*
X9288295Y-13629428D01*
X9260281Y-13635000D01*
X9231719Y-13635000D01*
X9203705Y-13629428D01*
X9177317Y-13618497D01*
X9177317Y-13618497D01*
X9177317Y-13618497D01*
X9153568Y-13602629D01*
X9133371Y-13582432D01*
X9117503Y-13558683D01*
X9117503Y-13558683D01*
X9106572Y-13532295D01*
X9101000Y-13504281D01*
X9101000Y-13475719D01*
X9106572Y-13447705D01*
X9117503Y-13421317D01*
X9117503Y-13421317D01*
X9133371Y-13397568D01*
X9153568Y-13377371D01*
X9177317Y-13361503D01*
X9177503Y-13361426D01*
X9203705Y-13350572D01*
X9231719Y-13345000D01*
X9260281Y-13345000D01*
X9288295Y-13350572D01*
G37*
G36*
X6286048Y-12816337D02*
G01*
X6339735Y-12838574D01*
X6339735Y-12838574D01*
X6388052Y-12870858D01*
X6429141Y-12911948D01*
X6461426Y-12960265D01*
X6461426Y-12960265D01*
X6483663Y-13013952D01*
X6495000Y-13070945D01*
X6495000Y-13129055D01*
X6483663Y-13186048D01*
X6464119Y-13233231D01*
X6461426Y-13239735D01*
X6429141Y-13288052D01*
X6388052Y-13329141D01*
X6339735Y-13361426D01*
X6339735Y-13361426D01*
X6339735Y-13361426D01*
X6286048Y-13383663D01*
X6229055Y-13395000D01*
X6170945Y-13395000D01*
X6113952Y-13383663D01*
X6060265Y-13361426D01*
X6060265Y-13361426D01*
X6060265Y-13361426D01*
X6011948Y-13329141D01*
X5970858Y-13288052D01*
X5938574Y-13239735D01*
X5935880Y-13233231D01*
X5916337Y-13186048D01*
X5905000Y-13129055D01*
X5905000Y-13070945D01*
X5916337Y-13013952D01*
X5938574Y-12960265D01*
X5938574Y-12960265D01*
X5970858Y-12911948D01*
X6011948Y-12870858D01*
X6060265Y-12838574D01*
X6060265Y-12838574D01*
X6113952Y-12816337D01*
X6170945Y-12805000D01*
X6229055Y-12805000D01*
X6286048Y-12816337D01*
G37*
G36*
X10786101Y-13159361D02*
G01*
X10803860Y-13162894D01*
X10822969Y-13170809D01*
X10840166Y-13182300D01*
X10854792Y-13196925D01*
X10866283Y-13214122D01*
X10874198Y-13233231D01*
X10878233Y-13253517D01*
X10878233Y-13274200D01*
X10874198Y-13294486D01*
X10866283Y-13313595D01*
X10854792Y-13330792D01*
X10840166Y-13345418D01*
X10822969Y-13356908D01*
X10803860Y-13364824D01*
X10786101Y-13368356D01*
X10783574Y-13368859D01*
X10762891Y-13368859D01*
X10760364Y-13368356D01*
X10742605Y-13364824D01*
X10723497Y-13356908D01*
X10706299Y-13345418D01*
X10691674Y-13330792D01*
X10680183Y-13313595D01*
X10672268Y-13294486D01*
X10668233Y-13274200D01*
X10668233Y-13253517D01*
X10672268Y-13233231D01*
X10680183Y-13214122D01*
X10691674Y-13196925D01*
X10706299Y-13182300D01*
X10723497Y-13170809D01*
X10742605Y-13162894D01*
X10760364Y-13159361D01*
X10762891Y-13158859D01*
X10783574Y-13158859D01*
X10786101Y-13159361D01*
G37*
G36*
X10532101Y-13159361D02*
G01*
X10549860Y-13162894D01*
X10568969Y-13170809D01*
X10586166Y-13182300D01*
X10600792Y-13196925D01*
X10612283Y-13214122D01*
X10620198Y-13233231D01*
X10624233Y-13253517D01*
X10624233Y-13274200D01*
X10620198Y-13294486D01*
X10612283Y-13313595D01*
X10600792Y-13330792D01*
X10586166Y-13345418D01*
X10568969Y-13356908D01*
X10549860Y-13364824D01*
X10532101Y-13368356D01*
X10529574Y-13368859D01*
X10508891Y-13368859D01*
X10506364Y-13368356D01*
X10488605Y-13364824D01*
X10469497Y-13356908D01*
X10452299Y-13345418D01*
X10437674Y-13330792D01*
X10426183Y-13313595D01*
X10418268Y-13294486D01*
X10414233Y-13274200D01*
X10414233Y-13253517D01*
X10418268Y-13233231D01*
X10426183Y-13214122D01*
X10437674Y-13196925D01*
X10452299Y-13182300D01*
X10469497Y-13170809D01*
X10488605Y-13162894D01*
X10506364Y-13159361D01*
X10508891Y-13158859D01*
X10529574Y-13158859D01*
X10532101Y-13159361D01*
G37*
G36*
X10278101Y-13159361D02*
G01*
X10295860Y-13162894D01*
X10314969Y-13170809D01*
X10332166Y-13182300D01*
X10346792Y-13196925D01*
X10358283Y-13214122D01*
X10366198Y-13233231D01*
X10370233Y-13253517D01*
X10370233Y-13274200D01*
X10366198Y-13294486D01*
X10358283Y-13313595D01*
X10346792Y-13330792D01*
X10332166Y-13345418D01*
X10314969Y-13356908D01*
X10295860Y-13364824D01*
X10278101Y-13368356D01*
X10275574Y-13368859D01*
X10254891Y-13368859D01*
X10252364Y-13368356D01*
X10234605Y-13364824D01*
X10215497Y-13356908D01*
X10198299Y-13345418D01*
X10183674Y-13330792D01*
X10172183Y-13313595D01*
X10164268Y-13294486D01*
X10160233Y-13274200D01*
X10160233Y-13253517D01*
X10164268Y-13233231D01*
X10172183Y-13214122D01*
X10183674Y-13196925D01*
X10198299Y-13182300D01*
X10215497Y-13170809D01*
X10234605Y-13162894D01*
X10252364Y-13159361D01*
X10254891Y-13158859D01*
X10275574Y-13158859D01*
X10278101Y-13159361D01*
G37*
G36*
X12988171Y-12898454D02*
G01*
X13028209Y-12915038D01*
X13028209Y-12915038D01*
X13064242Y-12939115D01*
X13094885Y-12969758D01*
X13114769Y-12999517D01*
X13118962Y-13005791D01*
X13135546Y-13045828D01*
X13144000Y-13088332D01*
X13144000Y-13131668D01*
X13135546Y-13174171D01*
X13126121Y-13196925D01*
X13118961Y-13214209D01*
X13094885Y-13250242D01*
X13064242Y-13280885D01*
X13028209Y-13304961D01*
X13028209Y-13304962D01*
X13028209Y-13304962D01*
X12988171Y-13321546D01*
X12945668Y-13330000D01*
X12902332Y-13330000D01*
X12859828Y-13321546D01*
X12819791Y-13304962D01*
X12819791Y-13304962D01*
X12819791Y-13304961D01*
X12783758Y-13280885D01*
X12753115Y-13250242D01*
X12729038Y-13214209D01*
X12721879Y-13196925D01*
X12712454Y-13174171D01*
X12704000Y-13131668D01*
X12704000Y-13088332D01*
X12712454Y-13045828D01*
X12729038Y-13005791D01*
X12733231Y-12999517D01*
X12753115Y-12969758D01*
X12783758Y-12939115D01*
X12819791Y-12915038D01*
X12819791Y-12915038D01*
X12859828Y-12898454D01*
X12902332Y-12890000D01*
X12945668Y-12890000D01*
X12988171Y-12898454D01*
G37*
G36*
X7790171Y-12898454D02*
G01*
X7830209Y-12915038D01*
X7830209Y-12915038D01*
X7866242Y-12939115D01*
X7896885Y-12969758D01*
X7916769Y-12999517D01*
X7920962Y-13005791D01*
X7937546Y-13045828D01*
X7946000Y-13088332D01*
X7946000Y-13131668D01*
X7937546Y-13174171D01*
X7928121Y-13196925D01*
X7920961Y-13214209D01*
X7896885Y-13250242D01*
X7866242Y-13280885D01*
X7830209Y-13304961D01*
X7830209Y-13304962D01*
X7830209Y-13304962D01*
X7790171Y-13321546D01*
X7747668Y-13330000D01*
X7704332Y-13330000D01*
X7661828Y-13321546D01*
X7621791Y-13304962D01*
X7621791Y-13304962D01*
X7621791Y-13304961D01*
X7585758Y-13280885D01*
X7555115Y-13250242D01*
X7531038Y-13214209D01*
X7523879Y-13196925D01*
X7514454Y-13174171D01*
X7506000Y-13131668D01*
X7506000Y-13088332D01*
X7514454Y-13045828D01*
X7531038Y-13005791D01*
X7535231Y-12999517D01*
X7555115Y-12969758D01*
X7585758Y-12939115D01*
X7621791Y-12915038D01*
X7621791Y-12915038D01*
X7661828Y-12898454D01*
X7704332Y-12890000D01*
X7747668Y-12890000D01*
X7790171Y-12898454D01*
G37*
G36*
X10278101Y-12905361D02*
G01*
X10295860Y-12908894D01*
X10314969Y-12916809D01*
X10332166Y-12928300D01*
X10346792Y-12942925D01*
X10358283Y-12960122D01*
X10366198Y-12979231D01*
X10370233Y-12999517D01*
X10370233Y-13020200D01*
X10366198Y-13040486D01*
X10358283Y-13059595D01*
X10346792Y-13076792D01*
X10332166Y-13091418D01*
X10314969Y-13102908D01*
X10295860Y-13110824D01*
X10278101Y-13114356D01*
X10275574Y-13114859D01*
X10254891Y-13114859D01*
X10252364Y-13114356D01*
X10234605Y-13110824D01*
X10215497Y-13102908D01*
X10198299Y-13091418D01*
X10183674Y-13076792D01*
X10172183Y-13059595D01*
X10164268Y-13040486D01*
X10160233Y-13020200D01*
X10160233Y-12999517D01*
X10164268Y-12979231D01*
X10172183Y-12960122D01*
X10183674Y-12942925D01*
X10198299Y-12928300D01*
X10215497Y-12916809D01*
X10234605Y-12908894D01*
X10252364Y-12905361D01*
X10254891Y-12904859D01*
X10275574Y-12904859D01*
X10278101Y-12905361D01*
G37*
G36*
X10878233Y-13114859D02*
G01*
X10668233Y-13114859D01*
X10668233Y-12904859D01*
X10878233Y-12904859D01*
X10878233Y-13114859D01*
G37*
G36*
X10532101Y-12905361D02*
G01*
X10549860Y-12908894D01*
X10568969Y-12916809D01*
X10586166Y-12928300D01*
X10600792Y-12942925D01*
X10612283Y-12960122D01*
X10620198Y-12979231D01*
X10624233Y-12999517D01*
X10624233Y-13020200D01*
X10620198Y-13040486D01*
X10612283Y-13059595D01*
X10600792Y-13076792D01*
X10586166Y-13091418D01*
X10568969Y-13102908D01*
X10549860Y-13110824D01*
X10532101Y-13114356D01*
X10529574Y-13114859D01*
X10508891Y-13114859D01*
X10506364Y-13114356D01*
X10488605Y-13110824D01*
X10469497Y-13102908D01*
X10452299Y-13091418D01*
X10437674Y-13076792D01*
X10426183Y-13059595D01*
X10418268Y-13040486D01*
X10414233Y-13020200D01*
X10414233Y-12999517D01*
X10418268Y-12979231D01*
X10426183Y-12960122D01*
X10437674Y-12942925D01*
X10452299Y-12928300D01*
X10469497Y-12916809D01*
X10488605Y-12908894D01*
X10506364Y-12905361D01*
X10508891Y-12904859D01*
X10529574Y-12904859D01*
X10532101Y-12905361D01*
G37*
G36*
X10185146Y-12635600D02*
G01*
X10189942Y-12637055D01*
X10194362Y-12639418D01*
X10198236Y-12642597D01*
X10201415Y-12646471D01*
X10203777Y-12650890D01*
X10205232Y-12655687D01*
X10205784Y-12661288D01*
X10205784Y-12736310D01*
X10205232Y-12741911D01*
X10203777Y-12746707D01*
X10201415Y-12751127D01*
X10198236Y-12755001D01*
X10194362Y-12758180D01*
X10189942Y-12760542D01*
X10185146Y-12761997D01*
X10179545Y-12762549D01*
X10097023Y-12762549D01*
X10091422Y-12761997D01*
X10086625Y-12760542D01*
X10082206Y-12758180D01*
X10078332Y-12755001D01*
X10075153Y-12751127D01*
X10072790Y-12746707D01*
X10071336Y-12741911D01*
X10070784Y-12736310D01*
X10070784Y-12661288D01*
X10071336Y-12655687D01*
X10072790Y-12650890D01*
X10075153Y-12646471D01*
X10078332Y-12642597D01*
X10082206Y-12639418D01*
X10086625Y-12637055D01*
X10091422Y-12635600D01*
X10097023Y-12635049D01*
X10179545Y-12635049D01*
X10185146Y-12635600D01*
G37*
G36*
X10835146Y-12631850D02*
G01*
X10839942Y-12633305D01*
X10844362Y-12635668D01*
X10848236Y-12638847D01*
X10851415Y-12642721D01*
X10853777Y-12647140D01*
X10855232Y-12651937D01*
X10855784Y-12657538D01*
X10855784Y-12732560D01*
X10855232Y-12738161D01*
X10853777Y-12742957D01*
X10851415Y-12747377D01*
X10848236Y-12751251D01*
X10844362Y-12754430D01*
X10839942Y-12756792D01*
X10835146Y-12758247D01*
X10829545Y-12758799D01*
X10747023Y-12758799D01*
X10741422Y-12758247D01*
X10736625Y-12756792D01*
X10732206Y-12754430D01*
X10728332Y-12751251D01*
X10725153Y-12747377D01*
X10722790Y-12742957D01*
X10721336Y-12738161D01*
X10720784Y-12732560D01*
X10720784Y-12657538D01*
X10721336Y-12651937D01*
X10722790Y-12647140D01*
X10725153Y-12642721D01*
X10728332Y-12638847D01*
X10732206Y-12635668D01*
X10736625Y-12633305D01*
X10741422Y-12631850D01*
X10747023Y-12631299D01*
X10829545Y-12631299D01*
X10835146Y-12631850D01*
G37*
G36*
X10511679Y-12627661D02*
G01*
X10516475Y-12629115D01*
X10520894Y-12631478D01*
X10524768Y-12634657D01*
X10527948Y-12638531D01*
X10530310Y-12642950D01*
X10531765Y-12647747D01*
X10532316Y-12653348D01*
X10532316Y-12728370D01*
X10531765Y-12733971D01*
X10530310Y-12738767D01*
X10527948Y-12743187D01*
X10524768Y-12747061D01*
X10520894Y-12750240D01*
X10516475Y-12752602D01*
X10511679Y-12754057D01*
X10506077Y-12754609D01*
X10423556Y-12754609D01*
X10417954Y-12754057D01*
X10413158Y-12752602D01*
X10408739Y-12750240D01*
X10404865Y-12747061D01*
X10401685Y-12743187D01*
X10399323Y-12738767D01*
X10397868Y-12733971D01*
X10397316Y-12728370D01*
X10397316Y-12653348D01*
X10397868Y-12647747D01*
X10399323Y-12642950D01*
X10401685Y-12638531D01*
X10404865Y-12634657D01*
X10408739Y-12631478D01*
X10413158Y-12629115D01*
X10417954Y-12627661D01*
X10423556Y-12627109D01*
X10506077Y-12627109D01*
X10511679Y-12627661D01*
G37*
G36*
X10185146Y-12335600D02*
G01*
X10189942Y-12337055D01*
X10194362Y-12339418D01*
X10198236Y-12342597D01*
X10201415Y-12346471D01*
X10203777Y-12350890D01*
X10205232Y-12355687D01*
X10205784Y-12361288D01*
X10205784Y-12436310D01*
X10205232Y-12441911D01*
X10203777Y-12446707D01*
X10201415Y-12451127D01*
X10198236Y-12455001D01*
X10194362Y-12458180D01*
X10192781Y-12459025D01*
X10190744Y-12460386D01*
X10189011Y-12462119D01*
X10187649Y-12464156D01*
X10186712Y-12466420D01*
X10186234Y-12468823D01*
X10186234Y-12471274D01*
X10186712Y-12473677D01*
X10187649Y-12475941D01*
X10189011Y-12477979D01*
X10190743Y-12479711D01*
X10192781Y-12481073D01*
X10194362Y-12481918D01*
X10198236Y-12485097D01*
X10201415Y-12488971D01*
X10203777Y-12493390D01*
X10205232Y-12498187D01*
X10205784Y-12503788D01*
X10205784Y-12578810D01*
X10205232Y-12584411D01*
X10203777Y-12589207D01*
X10201415Y-12593627D01*
X10198236Y-12597501D01*
X10194362Y-12600680D01*
X10189942Y-12603042D01*
X10185146Y-12604497D01*
X10179545Y-12605049D01*
X10097023Y-12605049D01*
X10091422Y-12604497D01*
X10086625Y-12603042D01*
X10082206Y-12600680D01*
X10078332Y-12597501D01*
X10075153Y-12593627D01*
X10072790Y-12589207D01*
X10071336Y-12584411D01*
X10070784Y-12578810D01*
X10070784Y-12503788D01*
X10071336Y-12498187D01*
X10072790Y-12493390D01*
X10075153Y-12488971D01*
X10078332Y-12485097D01*
X10082206Y-12481918D01*
X10083787Y-12481073D01*
X10085824Y-12479711D01*
X10087557Y-12477979D01*
X10088918Y-12475941D01*
X10089856Y-12473677D01*
X10090334Y-12471274D01*
X10090334Y-12468824D01*
X10089856Y-12466420D01*
X10088918Y-12464156D01*
X10087557Y-12462119D01*
X10085824Y-12460386D01*
X10083787Y-12459025D01*
X10082206Y-12458180D01*
X10078332Y-12455001D01*
X10075153Y-12451127D01*
X10072790Y-12446707D01*
X10071336Y-12441911D01*
X10070784Y-12436310D01*
X10070784Y-12361288D01*
X10071336Y-12355687D01*
X10072790Y-12350890D01*
X10075153Y-12346471D01*
X10078332Y-12342597D01*
X10082206Y-12339418D01*
X10086625Y-12337055D01*
X10091422Y-12335600D01*
X10097023Y-12335049D01*
X10179545Y-12335049D01*
X10185146Y-12335600D01*
G37*
G36*
X10835146Y-12331850D02*
G01*
X10839942Y-12333305D01*
X10844362Y-12335668D01*
X10848236Y-12338847D01*
X10851415Y-12342721D01*
X10853777Y-12347140D01*
X10855232Y-12351937D01*
X10855784Y-12357538D01*
X10855784Y-12432560D01*
X10855232Y-12438161D01*
X10853777Y-12442957D01*
X10851415Y-12447377D01*
X10848236Y-12451251D01*
X10844362Y-12454430D01*
X10842781Y-12455275D01*
X10840744Y-12456636D01*
X10839011Y-12458369D01*
X10837649Y-12460406D01*
X10836712Y-12462670D01*
X10836234Y-12465073D01*
X10836234Y-12467524D01*
X10836712Y-12469927D01*
X10837649Y-12472191D01*
X10839011Y-12474229D01*
X10840743Y-12475961D01*
X10842781Y-12477323D01*
X10844362Y-12478168D01*
X10848236Y-12481347D01*
X10851415Y-12485221D01*
X10853777Y-12489640D01*
X10855232Y-12494437D01*
X10855784Y-12500038D01*
X10855784Y-12575060D01*
X10855232Y-12580661D01*
X10853777Y-12585457D01*
X10851415Y-12589877D01*
X10848236Y-12593751D01*
X10844362Y-12596930D01*
X10839942Y-12599292D01*
X10835146Y-12600747D01*
X10829545Y-12601299D01*
X10747023Y-12601299D01*
X10741422Y-12600747D01*
X10736625Y-12599292D01*
X10732206Y-12596930D01*
X10728332Y-12593751D01*
X10725153Y-12589877D01*
X10722790Y-12585457D01*
X10721336Y-12580661D01*
X10720784Y-12575060D01*
X10720784Y-12500038D01*
X10721336Y-12494437D01*
X10722790Y-12489640D01*
X10725153Y-12485221D01*
X10728332Y-12481347D01*
X10732206Y-12478168D01*
X10733787Y-12477323D01*
X10735824Y-12475961D01*
X10737557Y-12474229D01*
X10738918Y-12472191D01*
X10739856Y-12469927D01*
X10740334Y-12467524D01*
X10740334Y-12465074D01*
X10739856Y-12462670D01*
X10738918Y-12460406D01*
X10737557Y-12458369D01*
X10735824Y-12456636D01*
X10733787Y-12455275D01*
X10732206Y-12454430D01*
X10728332Y-12451251D01*
X10725153Y-12447377D01*
X10722790Y-12442957D01*
X10721336Y-12438161D01*
X10720784Y-12432560D01*
X10720784Y-12357538D01*
X10721336Y-12351937D01*
X10722790Y-12347140D01*
X10725153Y-12342721D01*
X10728332Y-12338847D01*
X10732206Y-12335668D01*
X10736625Y-12333305D01*
X10741422Y-12331850D01*
X10747023Y-12331299D01*
X10829545Y-12331299D01*
X10835146Y-12331850D01*
G37*
G36*
X10511679Y-12348911D02*
G01*
X10516475Y-12350365D01*
X10520894Y-12352728D01*
X10524768Y-12355907D01*
X10527948Y-12359781D01*
X10530310Y-12364200D01*
X10531765Y-12368997D01*
X10532316Y-12374598D01*
X10532316Y-12449620D01*
X10531765Y-12455221D01*
X10530310Y-12460017D01*
X10527948Y-12464437D01*
X10527646Y-12464804D01*
X10526285Y-12466841D01*
X10525347Y-12469105D01*
X10524869Y-12471509D01*
X10524869Y-12473959D01*
X10525347Y-12476362D01*
X10526285Y-12478626D01*
X10527646Y-12480664D01*
X10527948Y-12481031D01*
X10530310Y-12485450D01*
X10531765Y-12490247D01*
X10532316Y-12495848D01*
X10532316Y-12570870D01*
X10531765Y-12576471D01*
X10530310Y-12581267D01*
X10527948Y-12585687D01*
X10524768Y-12589561D01*
X10520894Y-12592740D01*
X10516475Y-12595102D01*
X10511679Y-12596557D01*
X10506077Y-12597109D01*
X10423556Y-12597109D01*
X10417954Y-12596557D01*
X10413158Y-12595102D01*
X10408739Y-12592740D01*
X10404865Y-12589561D01*
X10401685Y-12585687D01*
X10399323Y-12581267D01*
X10397868Y-12576471D01*
X10397316Y-12570870D01*
X10397316Y-12495848D01*
X10397868Y-12490247D01*
X10399323Y-12485450D01*
X10401685Y-12481031D01*
X10401987Y-12480664D01*
X10403348Y-12478626D01*
X10404286Y-12476362D01*
X10404764Y-12473959D01*
X10404764Y-12471509D01*
X10404286Y-12469105D01*
X10403348Y-12466841D01*
X10401987Y-12464804D01*
X10401685Y-12464437D01*
X10399323Y-12460017D01*
X10397868Y-12455221D01*
X10397316Y-12449620D01*
X10397316Y-12374598D01*
X10397868Y-12368997D01*
X10399323Y-12364200D01*
X10401685Y-12359781D01*
X10404865Y-12355907D01*
X10408739Y-12352728D01*
X10413158Y-12350365D01*
X10417954Y-12348911D01*
X10423556Y-12348359D01*
X10506077Y-12348359D01*
X10511679Y-12348911D01*
G37*
G36*
X13238171Y-11928454D02*
G01*
X13278209Y-11945038D01*
X13278209Y-11945038D01*
X13314242Y-11969115D01*
X13344885Y-11999758D01*
X13368962Y-12035791D01*
X13385546Y-12075828D01*
X13394000Y-12118332D01*
X13394000Y-12161668D01*
X13385546Y-12204171D01*
X13377857Y-12222734D01*
X13368961Y-12244209D01*
X13344885Y-12280242D01*
X13314242Y-12310885D01*
X13278209Y-12334961D01*
X13278209Y-12334962D01*
X13278209Y-12334962D01*
X13238171Y-12351546D01*
X13195668Y-12360000D01*
X13152332Y-12360000D01*
X13109828Y-12351546D01*
X13069791Y-12334962D01*
X13069791Y-12334962D01*
X13069791Y-12334961D01*
X13033758Y-12310885D01*
X13003115Y-12280242D01*
X12979038Y-12244209D01*
X12970143Y-12222734D01*
X12962454Y-12204171D01*
X12954000Y-12161668D01*
X12954000Y-12118332D01*
X12962454Y-12075828D01*
X12979038Y-12035791D01*
X13003115Y-11999758D01*
X13033758Y-11969115D01*
X13069791Y-11945038D01*
X13069791Y-11945038D01*
X13109828Y-11928454D01*
X13152332Y-11920000D01*
X13195668Y-11920000D01*
X13238171Y-11928454D01*
G37*
G36*
X8040171Y-11928454D02*
G01*
X8080209Y-11945038D01*
X8080209Y-11945038D01*
X8116242Y-11969115D01*
X8146885Y-11999758D01*
X8170962Y-12035791D01*
X8187546Y-12075828D01*
X8196000Y-12118332D01*
X8196000Y-12161668D01*
X8187546Y-12204171D01*
X8179857Y-12222734D01*
X8170961Y-12244209D01*
X8146885Y-12280242D01*
X8116242Y-12310885D01*
X8080209Y-12334961D01*
X8080209Y-12334962D01*
X8080209Y-12334962D01*
X8040171Y-12351546D01*
X7997668Y-12360000D01*
X7954332Y-12360000D01*
X7911828Y-12351546D01*
X7871791Y-12334962D01*
X7871791Y-12334962D01*
X7871791Y-12334961D01*
X7835758Y-12310885D01*
X7805115Y-12280242D01*
X7781038Y-12244209D01*
X7772143Y-12222734D01*
X7764454Y-12204171D01*
X7756000Y-12161668D01*
X7756000Y-12118332D01*
X7764454Y-12075828D01*
X7781038Y-12035791D01*
X7805115Y-11999758D01*
X7835758Y-11969115D01*
X7871791Y-11945038D01*
X7871791Y-11945038D01*
X7911828Y-11928454D01*
X7954332Y-11920000D01*
X7997668Y-11920000D01*
X8040171Y-11928454D01*
G37*
G36*
X10511679Y-12191411D02*
G01*
X10516475Y-12192865D01*
X10520894Y-12195228D01*
X10524768Y-12198407D01*
X10527948Y-12202281D01*
X10530310Y-12206700D01*
X10531765Y-12211497D01*
X10532316Y-12217098D01*
X10532316Y-12292120D01*
X10531765Y-12297721D01*
X10530310Y-12302517D01*
X10527948Y-12306937D01*
X10524768Y-12310811D01*
X10520894Y-12313990D01*
X10516475Y-12316352D01*
X10511679Y-12317807D01*
X10506077Y-12318359D01*
X10423556Y-12318359D01*
X10417954Y-12317807D01*
X10413158Y-12316352D01*
X10408739Y-12313990D01*
X10404865Y-12310811D01*
X10401685Y-12306937D01*
X10399323Y-12302517D01*
X10397868Y-12297721D01*
X10397316Y-12292120D01*
X10397316Y-12217098D01*
X10397868Y-12211497D01*
X10399323Y-12206700D01*
X10401685Y-12202281D01*
X10404865Y-12198407D01*
X10408739Y-12195228D01*
X10413158Y-12192865D01*
X10417954Y-12191411D01*
X10423556Y-12190859D01*
X10506077Y-12190859D01*
X10511679Y-12191411D01*
G37*
G36*
X10185146Y-12178100D02*
G01*
X10189942Y-12179555D01*
X10194362Y-12181918D01*
X10198236Y-12185097D01*
X10201415Y-12188971D01*
X10203777Y-12193390D01*
X10205232Y-12198187D01*
X10205784Y-12203788D01*
X10205784Y-12278810D01*
X10205232Y-12284411D01*
X10203777Y-12289207D01*
X10201415Y-12293627D01*
X10198236Y-12297501D01*
X10194362Y-12300680D01*
X10189942Y-12303042D01*
X10185146Y-12304497D01*
X10179545Y-12305049D01*
X10097023Y-12305049D01*
X10091422Y-12304497D01*
X10086625Y-12303042D01*
X10082206Y-12300680D01*
X10078332Y-12297501D01*
X10075153Y-12293627D01*
X10072790Y-12289207D01*
X10071336Y-12284411D01*
X10070784Y-12278810D01*
X10070784Y-12203788D01*
X10071336Y-12198187D01*
X10072790Y-12193390D01*
X10075153Y-12188971D01*
X10078332Y-12185097D01*
X10082206Y-12181918D01*
X10086625Y-12179555D01*
X10091422Y-12178100D01*
X10097023Y-12177549D01*
X10179545Y-12177549D01*
X10185146Y-12178100D01*
G37*
G36*
X10835146Y-12174350D02*
G01*
X10839942Y-12175805D01*
X10844362Y-12178168D01*
X10848236Y-12181347D01*
X10851415Y-12185221D01*
X10853777Y-12189640D01*
X10855232Y-12194437D01*
X10855784Y-12200038D01*
X10855784Y-12275060D01*
X10855232Y-12280661D01*
X10853777Y-12285457D01*
X10851415Y-12289877D01*
X10848236Y-12293751D01*
X10844362Y-12296930D01*
X10839942Y-12299292D01*
X10835146Y-12300747D01*
X10829545Y-12301299D01*
X10747023Y-12301299D01*
X10741422Y-12300747D01*
X10736625Y-12299292D01*
X10732206Y-12296930D01*
X10728332Y-12293751D01*
X10725153Y-12289877D01*
X10722790Y-12285457D01*
X10721336Y-12280661D01*
X10720784Y-12275060D01*
X10720784Y-12200038D01*
X10721336Y-12194437D01*
X10722790Y-12189640D01*
X10725153Y-12185221D01*
X10728332Y-12181347D01*
X10732206Y-12178168D01*
X10736625Y-12175805D01*
X10741422Y-12174350D01*
X10747023Y-12173799D01*
X10829545Y-12173799D01*
X10835146Y-12174350D01*
G37*
G36*
X10135612Y-11783052D02*
G01*
X10140409Y-11784507D01*
X10144828Y-11786869D01*
X10148702Y-11790048D01*
X10151881Y-11793922D01*
X10154243Y-11798341D01*
X10155698Y-11803138D01*
X10156250Y-11808739D01*
X10156250Y-11891261D01*
X10155698Y-11896862D01*
X10154243Y-11901658D01*
X10151881Y-11906078D01*
X10148702Y-11909952D01*
X10144828Y-11913131D01*
X10140409Y-11915493D01*
X10135612Y-11916948D01*
X10130011Y-11917500D01*
X10054989Y-11917500D01*
X10049388Y-11916948D01*
X10044592Y-11915493D01*
X10040172Y-11913131D01*
X10036298Y-11909952D01*
X10033119Y-11906078D01*
X10030757Y-11901658D01*
X10029302Y-11896862D01*
X10028750Y-11891261D01*
X10028750Y-11808739D01*
X10029302Y-11803138D01*
X10030757Y-11798341D01*
X10033119Y-11793922D01*
X10036298Y-11790048D01*
X10040172Y-11786869D01*
X10044592Y-11784507D01*
X10049388Y-11783052D01*
X10054989Y-11782500D01*
X10130011Y-11782500D01*
X10135612Y-11783052D01*
G37*
G36*
X10293112Y-11783052D02*
G01*
X10297909Y-11784507D01*
X10302328Y-11786869D01*
X10306202Y-11790048D01*
X10309381Y-11793922D01*
X10311743Y-11798341D01*
X10313198Y-11803138D01*
X10313750Y-11808739D01*
X10313750Y-11891261D01*
X10313198Y-11896862D01*
X10311743Y-11901658D01*
X10309381Y-11906078D01*
X10306202Y-11909952D01*
X10302328Y-11913131D01*
X10297909Y-11915493D01*
X10293112Y-11916948D01*
X10287511Y-11917500D01*
X10212489Y-11917500D01*
X10206888Y-11916948D01*
X10202092Y-11915493D01*
X10197672Y-11913131D01*
X10193798Y-11909952D01*
X10190619Y-11906078D01*
X10188257Y-11901658D01*
X10186802Y-11896862D01*
X10186250Y-11891261D01*
X10186250Y-11808739D01*
X10186802Y-11803138D01*
X10188257Y-11798341D01*
X10190619Y-11793922D01*
X10193798Y-11790048D01*
X10197672Y-11786869D01*
X10202092Y-11784507D01*
X10206888Y-11783052D01*
X10212489Y-11782500D01*
X10287511Y-11782500D01*
X10293112Y-11783052D01*
G37*
G36*
X11696295Y-11620572D02*
G01*
X11722683Y-11631503D01*
X11722683Y-11631503D01*
X11746432Y-11647371D01*
X11766629Y-11667568D01*
X11782497Y-11691317D01*
X11782497Y-11691317D01*
X11793428Y-11717705D01*
X11799000Y-11745719D01*
X11799000Y-11774281D01*
X11793428Y-11802295D01*
X11788424Y-11814375D01*
X11782497Y-11828683D01*
X11766629Y-11852432D01*
X11746432Y-11872629D01*
X11722683Y-11888497D01*
X11722683Y-11888497D01*
X11722683Y-11888497D01*
X11696295Y-11899428D01*
X11668281Y-11905000D01*
X11639719Y-11905000D01*
X11611705Y-11899428D01*
X11585317Y-11888497D01*
X11585317Y-11888497D01*
X11585317Y-11888497D01*
X11561568Y-11872629D01*
X11541371Y-11852432D01*
X11525503Y-11828683D01*
X11519576Y-11814375D01*
X11514572Y-11802295D01*
X11509000Y-11774281D01*
X11509000Y-11745719D01*
X11514572Y-11717705D01*
X11525503Y-11691317D01*
X11525503Y-11691317D01*
X11541371Y-11667568D01*
X11561568Y-11647371D01*
X11585317Y-11631503D01*
X11585317Y-11631503D01*
X11611705Y-11620572D01*
X11639719Y-11615000D01*
X11668281Y-11615000D01*
X11696295Y-11620572D01*
G37*
G36*
X9288295Y-11620572D02*
G01*
X9314683Y-11631503D01*
X9314683Y-11631503D01*
X9338432Y-11647371D01*
X9358629Y-11667568D01*
X9374497Y-11691317D01*
X9374497Y-11691317D01*
X9385428Y-11717705D01*
X9391000Y-11745719D01*
X9391000Y-11774281D01*
X9385428Y-11802295D01*
X9380424Y-11814375D01*
X9374497Y-11828683D01*
X9358629Y-11852432D01*
X9338432Y-11872629D01*
X9314683Y-11888497D01*
X9314683Y-11888497D01*
X9314683Y-11888497D01*
X9288295Y-11899428D01*
X9260281Y-11905000D01*
X9231719Y-11905000D01*
X9203705Y-11899428D01*
X9177317Y-11888497D01*
X9177317Y-11888497D01*
X9177317Y-11888497D01*
X9153568Y-11872629D01*
X9133371Y-11852432D01*
X9117503Y-11828683D01*
X9111576Y-11814375D01*
X9106572Y-11802295D01*
X9101000Y-11774281D01*
X9101000Y-11745719D01*
X9106572Y-11717705D01*
X9117503Y-11691317D01*
X9117503Y-11691317D01*
X9133371Y-11667568D01*
X9153568Y-11647371D01*
X9177317Y-11631503D01*
X9177317Y-11631503D01*
X9203705Y-11620572D01*
X9231719Y-11615000D01*
X9260281Y-11615000D01*
X9288295Y-11620572D01*
G37*
G36*
X10688500Y-11731000D02*
G01*
X10557500Y-11731000D01*
X10557500Y-11569000D01*
X10688500Y-11569000D01*
X10688500Y-11731000D01*
G37*
G36*
X11015500Y-11731000D02*
G01*
X10884500Y-11731000D01*
X10884500Y-11569000D01*
X11015500Y-11569000D01*
X11015500Y-11731000D01*
G37*
G36*
X10305000Y-11715000D02*
G01*
X10185000Y-11715000D01*
X10185000Y-11585000D01*
X10305000Y-11585000D01*
X10305000Y-11715000D01*
G37*
G36*
X10115000Y-11715000D02*
G01*
X9995000Y-11715000D01*
X9995000Y-11585000D01*
X10115000Y-11585000D01*
X10115000Y-11715000D01*
G37*
G36*
X10210000Y-11515000D02*
G01*
X10090000Y-11515000D01*
X10090000Y-11385000D01*
X10210000Y-11385000D01*
X10210000Y-11515000D01*
G37*
G36*
X10824109Y-11493930D02*
G01*
X10704109Y-11493930D01*
X10704109Y-11363930D01*
X10824109Y-11363930D01*
X10824109Y-11493930D01*
G37*
G36*
X10131000Y-11329000D02*
G01*
X9969000Y-11329000D01*
X9969000Y-11198000D01*
X10131000Y-11198000D01*
X10131000Y-11329000D01*
G37*
G36*
X10729109Y-11293930D02*
G01*
X10609109Y-11293930D01*
X10609109Y-11163930D01*
X10729109Y-11163930D01*
X10729109Y-11293930D01*
G37*
G36*
X10919109Y-11293930D02*
G01*
X10799109Y-11293930D01*
X10799109Y-11163930D01*
X10919109Y-11163930D01*
X10919109Y-11293930D01*
G37*
G36*
X10871862Y-10933052D02*
G01*
X10876659Y-10934507D01*
X10881078Y-10936869D01*
X10884952Y-10940048D01*
X10888131Y-10943922D01*
X10890493Y-10948342D01*
X10891948Y-10953138D01*
X10892500Y-10958739D01*
X10892500Y-11041261D01*
X10891948Y-11046862D01*
X10890493Y-11051659D01*
X10888131Y-11056078D01*
X10884952Y-11059952D01*
X10881078Y-11063131D01*
X10876659Y-11065493D01*
X10871862Y-11066948D01*
X10866261Y-11067500D01*
X10791239Y-11067500D01*
X10785638Y-11066948D01*
X10780842Y-11065493D01*
X10776422Y-11063131D01*
X10772548Y-11059952D01*
X10769369Y-11056078D01*
X10767007Y-11051659D01*
X10765552Y-11046862D01*
X10765000Y-11041261D01*
X10765000Y-10958739D01*
X10765552Y-10953138D01*
X10767007Y-10948342D01*
X10769369Y-10943922D01*
X10772548Y-10940048D01*
X10776422Y-10936869D01*
X10780842Y-10934507D01*
X10785638Y-10933052D01*
X10791239Y-10932500D01*
X10866261Y-10932500D01*
X10871862Y-10933052D01*
G37*
G36*
X10714362Y-10933052D02*
G01*
X10719159Y-10934507D01*
X10723578Y-10936869D01*
X10727452Y-10940048D01*
X10730631Y-10943922D01*
X10732993Y-10948342D01*
X10734448Y-10953138D01*
X10735000Y-10958739D01*
X10735000Y-11041261D01*
X10734448Y-11046862D01*
X10732993Y-11051659D01*
X10730631Y-11056078D01*
X10727452Y-11059952D01*
X10723578Y-11063131D01*
X10719159Y-11065493D01*
X10714362Y-11066948D01*
X10708761Y-11067500D01*
X10633739Y-11067500D01*
X10628138Y-11066948D01*
X10623342Y-11065493D01*
X10618922Y-11063131D01*
X10615048Y-11059952D01*
X10611869Y-11056078D01*
X10609507Y-11051659D01*
X10608052Y-11046862D01*
X10607500Y-11041261D01*
X10607500Y-10958739D01*
X10608052Y-10953138D01*
X10609507Y-10948342D01*
X10611869Y-10943922D01*
X10615048Y-10940048D01*
X10618922Y-10936869D01*
X10623342Y-10934507D01*
X10628138Y-10933052D01*
X10633739Y-10932500D01*
X10708761Y-10932500D01*
X10714362Y-10933052D01*
G37*
G36*
X10131000Y-11002000D02*
G01*
X9969000Y-11002000D01*
X9969000Y-10871000D01*
X10131000Y-10871000D01*
X10131000Y-11002000D01*
G37*
G36*
X14850633Y-10268258D02*
G01*
X14913419Y-10294265D01*
X14913419Y-10294265D01*
X14969925Y-10332021D01*
X15017979Y-10380075D01*
X15055379Y-10436048D01*
X15055735Y-10436581D01*
X15081742Y-10499367D01*
X15095000Y-10566020D01*
X15095000Y-10633980D01*
X15081742Y-10700633D01*
X15055735Y-10763419D01*
X15055735Y-10763419D01*
X15017979Y-10819925D01*
X14969925Y-10867979D01*
X14913419Y-10905735D01*
X14913419Y-10905735D01*
X14913419Y-10905735D01*
X14850633Y-10931742D01*
X14783980Y-10945000D01*
X14716020Y-10945000D01*
X14649367Y-10931742D01*
X14586581Y-10905735D01*
X14586581Y-10905735D01*
X14586581Y-10905735D01*
X14530075Y-10867979D01*
X14482021Y-10819925D01*
X14444265Y-10763419D01*
X14444265Y-10763419D01*
X14418258Y-10700633D01*
X14405000Y-10633980D01*
X14405000Y-10566020D01*
X14418258Y-10499367D01*
X14444265Y-10436581D01*
X14444621Y-10436048D01*
X14482021Y-10380075D01*
X14530075Y-10332021D01*
X14586581Y-10294265D01*
X14586581Y-10294265D01*
X14649367Y-10268258D01*
X14716020Y-10255000D01*
X14783980Y-10255000D01*
X14850633Y-10268258D01*
G37*
G36*
X11696295Y-10600572D02*
G01*
X11722497Y-10611426D01*
X11722683Y-10611503D01*
X11746432Y-10627371D01*
X11766629Y-10647568D01*
X11782497Y-10671317D01*
X11782497Y-10671317D01*
X11793428Y-10697705D01*
X11799000Y-10725719D01*
X11799000Y-10754281D01*
X11793428Y-10782295D01*
X11782497Y-10808683D01*
X11782497Y-10808683D01*
X11766629Y-10832432D01*
X11746432Y-10852629D01*
X11722683Y-10868497D01*
X11722683Y-10868497D01*
X11722683Y-10868497D01*
X11696295Y-10879428D01*
X11668281Y-10885000D01*
X11639719Y-10885000D01*
X11611705Y-10879428D01*
X11585317Y-10868497D01*
X11585317Y-10868497D01*
X11585317Y-10868497D01*
X11561568Y-10852629D01*
X11541371Y-10832432D01*
X11525503Y-10808683D01*
X11525503Y-10808683D01*
X11514572Y-10782295D01*
X11509000Y-10754281D01*
X11509000Y-10725719D01*
X11514572Y-10697705D01*
X11525503Y-10671317D01*
X11525503Y-10671317D01*
X11541371Y-10647568D01*
X11561568Y-10627371D01*
X11585317Y-10611503D01*
X11585503Y-10611426D01*
X11611705Y-10600572D01*
X11639719Y-10595000D01*
X11668281Y-10595000D01*
X11696295Y-10600572D01*
G37*
G36*
X9288295Y-10600572D02*
G01*
X9314497Y-10611426D01*
X9314683Y-10611503D01*
X9338432Y-10627371D01*
X9358629Y-10647568D01*
X9374497Y-10671317D01*
X9374497Y-10671317D01*
X9385428Y-10697705D01*
X9391000Y-10725719D01*
X9391000Y-10754281D01*
X9385428Y-10782295D01*
X9374497Y-10808683D01*
X9374497Y-10808683D01*
X9358629Y-10832432D01*
X9338432Y-10852629D01*
X9314683Y-10868497D01*
X9314683Y-10868497D01*
X9314683Y-10868497D01*
X9288295Y-10879428D01*
X9260281Y-10885000D01*
X9231719Y-10885000D01*
X9203705Y-10879428D01*
X9177317Y-10868497D01*
X9177317Y-10868497D01*
X9177317Y-10868497D01*
X9153568Y-10852629D01*
X9133371Y-10832432D01*
X9117503Y-10808683D01*
X9117503Y-10808683D01*
X9106572Y-10782295D01*
X9101000Y-10754281D01*
X9101000Y-10725719D01*
X9106572Y-10697705D01*
X9117503Y-10671317D01*
X9117503Y-10671317D01*
X9133371Y-10647568D01*
X9153568Y-10627371D01*
X9177317Y-10611503D01*
X9177503Y-10611426D01*
X9203705Y-10600572D01*
X9231719Y-10595000D01*
X9260281Y-10595000D01*
X9288295Y-10600572D01*
G37*
G36*
X6286048Y-10066337D02*
G01*
X6339735Y-10088574D01*
X6339735Y-10088574D01*
X6388052Y-10120859D01*
X6429141Y-10161948D01*
X6461426Y-10210265D01*
X6461426Y-10210265D01*
X6483663Y-10263952D01*
X6495000Y-10320945D01*
X6495000Y-10379055D01*
X6483663Y-10436048D01*
X6461426Y-10489735D01*
X6461426Y-10489735D01*
X6429141Y-10538052D01*
X6388052Y-10579142D01*
X6339735Y-10611426D01*
X6339735Y-10611426D01*
X6339735Y-10611426D01*
X6286048Y-10633663D01*
X6229055Y-10645000D01*
X6170945Y-10645000D01*
X6113952Y-10633663D01*
X6060265Y-10611426D01*
X6060265Y-10611426D01*
X6060265Y-10611426D01*
X6011948Y-10579142D01*
X5970858Y-10538052D01*
X5938574Y-10489735D01*
X5938574Y-10489735D01*
X5916337Y-10436048D01*
X5905000Y-10379055D01*
X5905000Y-10320945D01*
X5916337Y-10263952D01*
X5938574Y-10210265D01*
X5938574Y-10210265D01*
X5970858Y-10161948D01*
X6011948Y-10120859D01*
X6060265Y-10088574D01*
X6060265Y-10088574D01*
X6113952Y-10066337D01*
X6170945Y-10055000D01*
X6229055Y-10055000D01*
X6286048Y-10066337D01*
G37*
G36*
X12988171Y-10148454D02*
G01*
X13028209Y-10165038D01*
X13028209Y-10165039D01*
X13064242Y-10189115D01*
X13094885Y-10219758D01*
X13118962Y-10255791D01*
X13135546Y-10295829D01*
X13144000Y-10338332D01*
X13144000Y-10381668D01*
X13135546Y-10424172D01*
X13118962Y-10464209D01*
X13118961Y-10464209D01*
X13094885Y-10500242D01*
X13064242Y-10530885D01*
X13028209Y-10554962D01*
X13028209Y-10554962D01*
X13028209Y-10554962D01*
X12988171Y-10571546D01*
X12945668Y-10580000D01*
X12902332Y-10580000D01*
X12859828Y-10571546D01*
X12819791Y-10554962D01*
X12819791Y-10554962D01*
X12819791Y-10554962D01*
X12783758Y-10530885D01*
X12753115Y-10500242D01*
X12729038Y-10464209D01*
X12729038Y-10464209D01*
X12712454Y-10424172D01*
X12704000Y-10381668D01*
X12704000Y-10338332D01*
X12712454Y-10295829D01*
X12729038Y-10255791D01*
X12753115Y-10219758D01*
X12783758Y-10189115D01*
X12819791Y-10165039D01*
X12819791Y-10165038D01*
X12859828Y-10148454D01*
X12902332Y-10140000D01*
X12945668Y-10140000D01*
X12988171Y-10148454D01*
G37*
G36*
X7790171Y-10148454D02*
G01*
X7830209Y-10165038D01*
X7830209Y-10165039D01*
X7866242Y-10189115D01*
X7896885Y-10219758D01*
X7920962Y-10255791D01*
X7937546Y-10295829D01*
X7946000Y-10338332D01*
X7946000Y-10381668D01*
X7937546Y-10424172D01*
X7920962Y-10464209D01*
X7920961Y-10464209D01*
X7896885Y-10500242D01*
X7866242Y-10530885D01*
X7830209Y-10554962D01*
X7830209Y-10554962D01*
X7830209Y-10554962D01*
X7790171Y-10571546D01*
X7747668Y-10580000D01*
X7704332Y-10580000D01*
X7661828Y-10571546D01*
X7621791Y-10554962D01*
X7621791Y-10554962D01*
X7621791Y-10554962D01*
X7585758Y-10530885D01*
X7555115Y-10500242D01*
X7531038Y-10464209D01*
X7531038Y-10464209D01*
X7514454Y-10424172D01*
X7506000Y-10381668D01*
X7506000Y-10338332D01*
X7514454Y-10295829D01*
X7531038Y-10255791D01*
X7555115Y-10219758D01*
X7585758Y-10189115D01*
X7621791Y-10165039D01*
X7621791Y-10165038D01*
X7661828Y-10148454D01*
X7704332Y-10140000D01*
X7747668Y-10140000D01*
X7790171Y-10148454D01*
G37*
G36*
X10719713Y-9964480D02*
G01*
X10724509Y-9965935D01*
X10728928Y-9968297D01*
X10732803Y-9971477D01*
X10735982Y-9975351D01*
X10738344Y-9979770D01*
X10739799Y-9984566D01*
X10740351Y-9990168D01*
X10740351Y-10065189D01*
X10739799Y-10070791D01*
X10738344Y-10075587D01*
X10735982Y-10080006D01*
X10732803Y-10083880D01*
X10728928Y-10087060D01*
X10724509Y-10089422D01*
X10719713Y-10090877D01*
X10714112Y-10091428D01*
X10631590Y-10091428D01*
X10625988Y-10090877D01*
X10621192Y-10089422D01*
X10616773Y-10087060D01*
X10612899Y-10083880D01*
X10609719Y-10080006D01*
X10607357Y-10075587D01*
X10605902Y-10070791D01*
X10605351Y-10065189D01*
X10605351Y-9990168D01*
X10605902Y-9984566D01*
X10607357Y-9979770D01*
X10609719Y-9975351D01*
X10612899Y-9971477D01*
X10616773Y-9968297D01*
X10621192Y-9965935D01*
X10625988Y-9964480D01*
X10631590Y-9963928D01*
X10714112Y-9963928D01*
X10719713Y-9964480D01*
G37*
G36*
X10444713Y-9964480D02*
G01*
X10449509Y-9965935D01*
X10453928Y-9968297D01*
X10457803Y-9971477D01*
X10460982Y-9975351D01*
X10463344Y-9979770D01*
X10464799Y-9984566D01*
X10465351Y-9990168D01*
X10465351Y-10065189D01*
X10464799Y-10070791D01*
X10463344Y-10075587D01*
X10460982Y-10080006D01*
X10457803Y-10083880D01*
X10453928Y-10087060D01*
X10449509Y-10089422D01*
X10444713Y-10090877D01*
X10439112Y-10091428D01*
X10356590Y-10091428D01*
X10350988Y-10090877D01*
X10346192Y-10089422D01*
X10341773Y-10087060D01*
X10337899Y-10083880D01*
X10334719Y-10080006D01*
X10332357Y-10075587D01*
X10330902Y-10070791D01*
X10330351Y-10065189D01*
X10330351Y-9990168D01*
X10330902Y-9984566D01*
X10332357Y-9979770D01*
X10334719Y-9975351D01*
X10337899Y-9971477D01*
X10341773Y-9968297D01*
X10346192Y-9965935D01*
X10350988Y-9964480D01*
X10356590Y-9963928D01*
X10439112Y-9963928D01*
X10444713Y-9964480D01*
G37*
G36*
X10169713Y-9964480D02*
G01*
X10174509Y-9965935D01*
X10178928Y-9968297D01*
X10182803Y-9971477D01*
X10185982Y-9975351D01*
X10188344Y-9979770D01*
X10189799Y-9984566D01*
X10190351Y-9990168D01*
X10190351Y-10065189D01*
X10189799Y-10070791D01*
X10188344Y-10075587D01*
X10185982Y-10080006D01*
X10182803Y-10083880D01*
X10178928Y-10087060D01*
X10174509Y-10089422D01*
X10169713Y-10090877D01*
X10164112Y-10091428D01*
X10081590Y-10091428D01*
X10075988Y-10090877D01*
X10071192Y-10089422D01*
X10066773Y-10087060D01*
X10062899Y-10083880D01*
X10059719Y-10080006D01*
X10057357Y-10075587D01*
X10055902Y-10070791D01*
X10055351Y-10065189D01*
X10055351Y-9990168D01*
X10055902Y-9984566D01*
X10057357Y-9979770D01*
X10059719Y-9975351D01*
X10062899Y-9971477D01*
X10066773Y-9968297D01*
X10071192Y-9965935D01*
X10075988Y-9964480D01*
X10081590Y-9963928D01*
X10164112Y-9963928D01*
X10169713Y-9964480D01*
G37*
G36*
X10719713Y-9806980D02*
G01*
X10724509Y-9808435D01*
X10728928Y-9810797D01*
X10732803Y-9813977D01*
X10735982Y-9817851D01*
X10738344Y-9822270D01*
X10739799Y-9827066D01*
X10740351Y-9832668D01*
X10740351Y-9907689D01*
X10739799Y-9913291D01*
X10738344Y-9918087D01*
X10735982Y-9922506D01*
X10732803Y-9926380D01*
X10728928Y-9929560D01*
X10724509Y-9931922D01*
X10719713Y-9933377D01*
X10714112Y-9933928D01*
X10631590Y-9933928D01*
X10625988Y-9933377D01*
X10621192Y-9931922D01*
X10616773Y-9929560D01*
X10612899Y-9926380D01*
X10609719Y-9922506D01*
X10607357Y-9918087D01*
X10605902Y-9913291D01*
X10605351Y-9907689D01*
X10605351Y-9832668D01*
X10605902Y-9827066D01*
X10607357Y-9822270D01*
X10609719Y-9817851D01*
X10612899Y-9813977D01*
X10616773Y-9810797D01*
X10621192Y-9808435D01*
X10625988Y-9806980D01*
X10631590Y-9806428D01*
X10714112Y-9806428D01*
X10719713Y-9806980D01*
G37*
G36*
X10169713Y-9806980D02*
G01*
X10174509Y-9808435D01*
X10178928Y-9810797D01*
X10182803Y-9813977D01*
X10185982Y-9817851D01*
X10188344Y-9822270D01*
X10189799Y-9827066D01*
X10190351Y-9832668D01*
X10190351Y-9907689D01*
X10189799Y-9913291D01*
X10188344Y-9918087D01*
X10185982Y-9922506D01*
X10182803Y-9926380D01*
X10178928Y-9929560D01*
X10174509Y-9931922D01*
X10169713Y-9933377D01*
X10164112Y-9933928D01*
X10081590Y-9933928D01*
X10075988Y-9933377D01*
X10071192Y-9931922D01*
X10066773Y-9929560D01*
X10062899Y-9926380D01*
X10059719Y-9922506D01*
X10057357Y-9918087D01*
X10055902Y-9913291D01*
X10055351Y-9907689D01*
X10055351Y-9832668D01*
X10055902Y-9827066D01*
X10057357Y-9822270D01*
X10059719Y-9817851D01*
X10062899Y-9813977D01*
X10066773Y-9810797D01*
X10071192Y-9808435D01*
X10075988Y-9806980D01*
X10081590Y-9806428D01*
X10164112Y-9806428D01*
X10169713Y-9806980D01*
G37*
G36*
X10444713Y-9806980D02*
G01*
X10449509Y-9808435D01*
X10453928Y-9810797D01*
X10457803Y-9813977D01*
X10460982Y-9817851D01*
X10463344Y-9822270D01*
X10464799Y-9827066D01*
X10465351Y-9832668D01*
X10465351Y-9907689D01*
X10464799Y-9913291D01*
X10463344Y-9918087D01*
X10460982Y-9922506D01*
X10457803Y-9926380D01*
X10453928Y-9929560D01*
X10449509Y-9931922D01*
X10444713Y-9933377D01*
X10439112Y-9933928D01*
X10356590Y-9933928D01*
X10350988Y-9933377D01*
X10346192Y-9931922D01*
X10341773Y-9929560D01*
X10337899Y-9926380D01*
X10334719Y-9922506D01*
X10332357Y-9918087D01*
X10330902Y-9913291D01*
X10330351Y-9907689D01*
X10330351Y-9832668D01*
X10330902Y-9827066D01*
X10332357Y-9822270D01*
X10334719Y-9817851D01*
X10337899Y-9813977D01*
X10341773Y-9810797D01*
X10346192Y-9808435D01*
X10350988Y-9806980D01*
X10356590Y-9806428D01*
X10439112Y-9806428D01*
X10444713Y-9806980D01*
G37*
G36*
X10169713Y-9643230D02*
G01*
X10174509Y-9644685D01*
X10178928Y-9647047D01*
X10182803Y-9650227D01*
X10185982Y-9654101D01*
X10188344Y-9658520D01*
X10189799Y-9663316D01*
X10190351Y-9668918D01*
X10190351Y-9743939D01*
X10189799Y-9749541D01*
X10188344Y-9754337D01*
X10185982Y-9758756D01*
X10182803Y-9762630D01*
X10178928Y-9765810D01*
X10174509Y-9768172D01*
X10169713Y-9769627D01*
X10164112Y-9770178D01*
X10081590Y-9770178D01*
X10075988Y-9769627D01*
X10071192Y-9768172D01*
X10066773Y-9765810D01*
X10062899Y-9762630D01*
X10059719Y-9758756D01*
X10057357Y-9754337D01*
X10055902Y-9749541D01*
X10055351Y-9743939D01*
X10055351Y-9668918D01*
X10055902Y-9663316D01*
X10057357Y-9658520D01*
X10059719Y-9654101D01*
X10062899Y-9650227D01*
X10066773Y-9647047D01*
X10071192Y-9644685D01*
X10075988Y-9643230D01*
X10081590Y-9642678D01*
X10164112Y-9642678D01*
X10169713Y-9643230D01*
G37*
G36*
X10719713Y-9643230D02*
G01*
X10724509Y-9644685D01*
X10728928Y-9647047D01*
X10732803Y-9650227D01*
X10735982Y-9654101D01*
X10738344Y-9658520D01*
X10739799Y-9663316D01*
X10740351Y-9668918D01*
X10740351Y-9743939D01*
X10739799Y-9749541D01*
X10738344Y-9754337D01*
X10735982Y-9758756D01*
X10732803Y-9762630D01*
X10728928Y-9765810D01*
X10724509Y-9768172D01*
X10719713Y-9769627D01*
X10714112Y-9770178D01*
X10631590Y-9770178D01*
X10625988Y-9769627D01*
X10621192Y-9768172D01*
X10616773Y-9765810D01*
X10612899Y-9762630D01*
X10609719Y-9758756D01*
X10607357Y-9754337D01*
X10605902Y-9749541D01*
X10605351Y-9743939D01*
X10605351Y-9668918D01*
X10605902Y-9663316D01*
X10607357Y-9658520D01*
X10609719Y-9654101D01*
X10612899Y-9650227D01*
X10616773Y-9647047D01*
X10621192Y-9644685D01*
X10625988Y-9643230D01*
X10631590Y-9642678D01*
X10714112Y-9642678D01*
X10719713Y-9643230D01*
G37*
G36*
X10444713Y-9643230D02*
G01*
X10449509Y-9644685D01*
X10453928Y-9647047D01*
X10457803Y-9650227D01*
X10460982Y-9654101D01*
X10463344Y-9658520D01*
X10464799Y-9663316D01*
X10465351Y-9668918D01*
X10465351Y-9743939D01*
X10464799Y-9749541D01*
X10463344Y-9754337D01*
X10460982Y-9758756D01*
X10457803Y-9762630D01*
X10453928Y-9765810D01*
X10449509Y-9768172D01*
X10444713Y-9769627D01*
X10439112Y-9770178D01*
X10356590Y-9770178D01*
X10350988Y-9769627D01*
X10346192Y-9768172D01*
X10341773Y-9765810D01*
X10337899Y-9762630D01*
X10334719Y-9758756D01*
X10332357Y-9754337D01*
X10330902Y-9749541D01*
X10330351Y-9743939D01*
X10330351Y-9668918D01*
X10330902Y-9663316D01*
X10332357Y-9658520D01*
X10334719Y-9654101D01*
X10337899Y-9650227D01*
X10341773Y-9647047D01*
X10346192Y-9644685D01*
X10350988Y-9643230D01*
X10356590Y-9642678D01*
X10439112Y-9642678D01*
X10444713Y-9643230D01*
G37*
G36*
X10169713Y-9485730D02*
G01*
X10174509Y-9487185D01*
X10178928Y-9489547D01*
X10182803Y-9492727D01*
X10185982Y-9496601D01*
X10188344Y-9501020D01*
X10189799Y-9505816D01*
X10190351Y-9511418D01*
X10190351Y-9586439D01*
X10189799Y-9592041D01*
X10188344Y-9596837D01*
X10185982Y-9601256D01*
X10182803Y-9605130D01*
X10178928Y-9608310D01*
X10174509Y-9610672D01*
X10169713Y-9612127D01*
X10164112Y-9612678D01*
X10081590Y-9612678D01*
X10075988Y-9612127D01*
X10071192Y-9610672D01*
X10066773Y-9608310D01*
X10062899Y-9605130D01*
X10059719Y-9601256D01*
X10057357Y-9596837D01*
X10055902Y-9592041D01*
X10055351Y-9586439D01*
X10055351Y-9511418D01*
X10055902Y-9505816D01*
X10057357Y-9501020D01*
X10059719Y-9496601D01*
X10062899Y-9492727D01*
X10066773Y-9489547D01*
X10071192Y-9487185D01*
X10075988Y-9485730D01*
X10081590Y-9485178D01*
X10164112Y-9485178D01*
X10169713Y-9485730D01*
G37*
G36*
X10719713Y-9485730D02*
G01*
X10724509Y-9487185D01*
X10728928Y-9489547D01*
X10732803Y-9492727D01*
X10735982Y-9496601D01*
X10738344Y-9501020D01*
X10739799Y-9505816D01*
X10740351Y-9511418D01*
X10740351Y-9586439D01*
X10739799Y-9592041D01*
X10738344Y-9596837D01*
X10735982Y-9601256D01*
X10732803Y-9605130D01*
X10728928Y-9608310D01*
X10724509Y-9610672D01*
X10719713Y-9612127D01*
X10714112Y-9612678D01*
X10631590Y-9612678D01*
X10625988Y-9612127D01*
X10621192Y-9610672D01*
X10616773Y-9608310D01*
X10612899Y-9605130D01*
X10609719Y-9601256D01*
X10607357Y-9596837D01*
X10605902Y-9592041D01*
X10605351Y-9586439D01*
X10605351Y-9511418D01*
X10605902Y-9505816D01*
X10607357Y-9501020D01*
X10609719Y-9496601D01*
X10612899Y-9492727D01*
X10616773Y-9489547D01*
X10621192Y-9487185D01*
X10625988Y-9485730D01*
X10631590Y-9485178D01*
X10714112Y-9485178D01*
X10719713Y-9485730D01*
G37*
G36*
X10444713Y-9485730D02*
G01*
X10449509Y-9487185D01*
X10453928Y-9489547D01*
X10457803Y-9492727D01*
X10460982Y-9496601D01*
X10463344Y-9501020D01*
X10464799Y-9505816D01*
X10465351Y-9511418D01*
X10465351Y-9586439D01*
X10464799Y-9592041D01*
X10463344Y-9596837D01*
X10460982Y-9601256D01*
X10457803Y-9605130D01*
X10453928Y-9608310D01*
X10449509Y-9610672D01*
X10444713Y-9612127D01*
X10439112Y-9612678D01*
X10356590Y-9612678D01*
X10350988Y-9612127D01*
X10346192Y-9610672D01*
X10341773Y-9608310D01*
X10337899Y-9605130D01*
X10334719Y-9601256D01*
X10332357Y-9596837D01*
X10330902Y-9592041D01*
X10330351Y-9586439D01*
X10330351Y-9511418D01*
X10330902Y-9505816D01*
X10332357Y-9501020D01*
X10334719Y-9496601D01*
X10337899Y-9492727D01*
X10341773Y-9489547D01*
X10346192Y-9487185D01*
X10350988Y-9485730D01*
X10356590Y-9485178D01*
X10439112Y-9485178D01*
X10444713Y-9485730D01*
G37*
G36*
X13238171Y-9178454D02*
G01*
X13278209Y-9195038D01*
X13278209Y-9195039D01*
X13304247Y-9212437D01*
X13314242Y-9219115D01*
X13344885Y-9249758D01*
X13368962Y-9285791D01*
X13385546Y-9325829D01*
X13394000Y-9368332D01*
X13394000Y-9411668D01*
X13385546Y-9454172D01*
X13372702Y-9485178D01*
X13368961Y-9494209D01*
X13344885Y-9530242D01*
X13314242Y-9560885D01*
X13278209Y-9584962D01*
X13278209Y-9584962D01*
X13278209Y-9584962D01*
X13238171Y-9601546D01*
X13195668Y-9610000D01*
X13152332Y-9610000D01*
X13109828Y-9601546D01*
X13069791Y-9584962D01*
X13069791Y-9584962D01*
X13069791Y-9584962D01*
X13033758Y-9560885D01*
X13003115Y-9530242D01*
X12979038Y-9494209D01*
X12975298Y-9485178D01*
X12962454Y-9454172D01*
X12954000Y-9411668D01*
X12954000Y-9368332D01*
X12962454Y-9325829D01*
X12979038Y-9285791D01*
X13003115Y-9249758D01*
X13033758Y-9219115D01*
X13043753Y-9212437D01*
X13069791Y-9195039D01*
X13069791Y-9195038D01*
X13109828Y-9178454D01*
X13152332Y-9170000D01*
X13195668Y-9170000D01*
X13238171Y-9178454D01*
G37*
G36*
X8040171Y-9178454D02*
G01*
X8080209Y-9195038D01*
X8080209Y-9195039D01*
X8106247Y-9212437D01*
X8116242Y-9219115D01*
X8146885Y-9249758D01*
X8170962Y-9285791D01*
X8187546Y-9325829D01*
X8196000Y-9368332D01*
X8196000Y-9411668D01*
X8187546Y-9454172D01*
X8174702Y-9485178D01*
X8170961Y-9494209D01*
X8146885Y-9530242D01*
X8116242Y-9560885D01*
X8080209Y-9584962D01*
X8080209Y-9584962D01*
X8080209Y-9584962D01*
X8040171Y-9601546D01*
X7997668Y-9610000D01*
X7954332Y-9610000D01*
X7911828Y-9601546D01*
X7871791Y-9584962D01*
X7871791Y-9584962D01*
X7871791Y-9584962D01*
X7835758Y-9560885D01*
X7805115Y-9530242D01*
X7781038Y-9494209D01*
X7777298Y-9485178D01*
X7764454Y-9454172D01*
X7756000Y-9411668D01*
X7756000Y-9368332D01*
X7764454Y-9325829D01*
X7781038Y-9285791D01*
X7805115Y-9249758D01*
X7835758Y-9219115D01*
X7845753Y-9212437D01*
X7871791Y-9195039D01*
X7871791Y-9195038D01*
X7911828Y-9178454D01*
X7954332Y-9170000D01*
X7997668Y-9170000D01*
X8040171Y-9178454D01*
G37*
G36*
X10648957Y-9058203D02*
G01*
X10666715Y-9061736D01*
X10685824Y-9069651D01*
X10703022Y-9081142D01*
X10717647Y-9095767D01*
X10729138Y-9112964D01*
X10737053Y-9132073D01*
X10741088Y-9152359D01*
X10741088Y-9173042D01*
X10737053Y-9193328D01*
X10729138Y-9212437D01*
X10717647Y-9229634D01*
X10703022Y-9244259D01*
X10685824Y-9255750D01*
X10666715Y-9263666D01*
X10648957Y-9267198D01*
X10646430Y-9267701D01*
X10625746Y-9267701D01*
X10623219Y-9267198D01*
X10605461Y-9263666D01*
X10586352Y-9255750D01*
X10569154Y-9244259D01*
X10554529Y-9229634D01*
X10543038Y-9212437D01*
X10535123Y-9193328D01*
X10531088Y-9173042D01*
X10531088Y-9152359D01*
X10535123Y-9132073D01*
X10543038Y-9112964D01*
X10554529Y-9095767D01*
X10569154Y-9081142D01*
X10586352Y-9069651D01*
X10605461Y-9061736D01*
X10623219Y-9058203D01*
X10625746Y-9057701D01*
X10646430Y-9057701D01*
X10648957Y-9058203D01*
G37*
G36*
X10233088Y-9267701D02*
G01*
X10023088Y-9267701D01*
X10023088Y-9057701D01*
X10233088Y-9057701D01*
X10233088Y-9267701D01*
G37*
G36*
X10394957Y-9058203D02*
G01*
X10412715Y-9061736D01*
X10431824Y-9069651D01*
X10449022Y-9081142D01*
X10463647Y-9095767D01*
X10475138Y-9112964D01*
X10483053Y-9132073D01*
X10487088Y-9152359D01*
X10487088Y-9173042D01*
X10483053Y-9193328D01*
X10475138Y-9212437D01*
X10463647Y-9229634D01*
X10449022Y-9244259D01*
X10431824Y-9255750D01*
X10412715Y-9263666D01*
X10394957Y-9267198D01*
X10392430Y-9267701D01*
X10371746Y-9267701D01*
X10369219Y-9267198D01*
X10351461Y-9263666D01*
X10332352Y-9255750D01*
X10315154Y-9244259D01*
X10300529Y-9229634D01*
X10289038Y-9212437D01*
X10281123Y-9193328D01*
X10277088Y-9173042D01*
X10277088Y-9152359D01*
X10281123Y-9132073D01*
X10289038Y-9112964D01*
X10300529Y-9095767D01*
X10315154Y-9081142D01*
X10332352Y-9069651D01*
X10351461Y-9061736D01*
X10369219Y-9058203D01*
X10371746Y-9057701D01*
X10392430Y-9057701D01*
X10394957Y-9058203D01*
G37*
G36*
X11696295Y-8870572D02*
G01*
X11714404Y-8878073D01*
X11722683Y-8881503D01*
X11746432Y-8897371D01*
X11766629Y-8917568D01*
X11781168Y-8939328D01*
X11782497Y-8941317D01*
X11793428Y-8967705D01*
X11799000Y-8995719D01*
X11799000Y-9024281D01*
X11793428Y-9052295D01*
X11786239Y-9069651D01*
X11782497Y-9078683D01*
X11766629Y-9102432D01*
X11746432Y-9122629D01*
X11722683Y-9138497D01*
X11722683Y-9138497D01*
X11722683Y-9138497D01*
X11696295Y-9149428D01*
X11668281Y-9155000D01*
X11639719Y-9155000D01*
X11611705Y-9149428D01*
X11585317Y-9138497D01*
X11585317Y-9138497D01*
X11585317Y-9138497D01*
X11561568Y-9122629D01*
X11541371Y-9102432D01*
X11525503Y-9078683D01*
X11521761Y-9069651D01*
X11514572Y-9052295D01*
X11509000Y-9024281D01*
X11509000Y-8995719D01*
X11514572Y-8967705D01*
X11525503Y-8941317D01*
X11526832Y-8939328D01*
X11541371Y-8917568D01*
X11561568Y-8897371D01*
X11585317Y-8881503D01*
X11593596Y-8878073D01*
X11611705Y-8870572D01*
X11639719Y-8865000D01*
X11668281Y-8865000D01*
X11696295Y-8870572D01*
G37*
G36*
X9288295Y-8870572D02*
G01*
X9306404Y-8878073D01*
X9314683Y-8881503D01*
X9338432Y-8897371D01*
X9358629Y-8917568D01*
X9373168Y-8939328D01*
X9374497Y-8941317D01*
X9385428Y-8967705D01*
X9391000Y-8995719D01*
X9391000Y-9024281D01*
X9385428Y-9052295D01*
X9378239Y-9069651D01*
X9374497Y-9078683D01*
X9358629Y-9102432D01*
X9338432Y-9122629D01*
X9314683Y-9138497D01*
X9314683Y-9138497D01*
X9314683Y-9138497D01*
X9288295Y-9149428D01*
X9260281Y-9155000D01*
X9231719Y-9155000D01*
X9203705Y-9149428D01*
X9177317Y-9138497D01*
X9177317Y-9138497D01*
X9177317Y-9138497D01*
X9153568Y-9122629D01*
X9133371Y-9102432D01*
X9117503Y-9078683D01*
X9113761Y-9069651D01*
X9106572Y-9052295D01*
X9101000Y-9024281D01*
X9101000Y-8995719D01*
X9106572Y-8967705D01*
X9117503Y-8941317D01*
X9118832Y-8939328D01*
X9133371Y-8917568D01*
X9153568Y-8897371D01*
X9177317Y-8881503D01*
X9185596Y-8878073D01*
X9203705Y-8870572D01*
X9231719Y-8865000D01*
X9260281Y-8865000D01*
X9288295Y-8870572D01*
G37*
G36*
X10140957Y-8804203D02*
G01*
X10158715Y-8807736D01*
X10177824Y-8815651D01*
X10195022Y-8827142D01*
X10209647Y-8841767D01*
X10221138Y-8858964D01*
X10229053Y-8878073D01*
X10233088Y-8898359D01*
X10233088Y-8919042D01*
X10229053Y-8939328D01*
X10221138Y-8958437D01*
X10209647Y-8975634D01*
X10195022Y-8990259D01*
X10177824Y-9001750D01*
X10158715Y-9009666D01*
X10140957Y-9013198D01*
X10138430Y-9013701D01*
X10117746Y-9013701D01*
X10115219Y-9013198D01*
X10097461Y-9009666D01*
X10078352Y-9001750D01*
X10061154Y-8990259D01*
X10046529Y-8975634D01*
X10035038Y-8958437D01*
X10027123Y-8939328D01*
X10023088Y-8919042D01*
X10023088Y-8898359D01*
X10027123Y-8878073D01*
X10035038Y-8858964D01*
X10046529Y-8841767D01*
X10061154Y-8827142D01*
X10078352Y-8815651D01*
X10097461Y-8807736D01*
X10115219Y-8804203D01*
X10117746Y-8803701D01*
X10138430Y-8803701D01*
X10140957Y-8804203D01*
G37*
G36*
X10394957Y-8804203D02*
G01*
X10412715Y-8807736D01*
X10431824Y-8815651D01*
X10449022Y-8827142D01*
X10463647Y-8841767D01*
X10475138Y-8858964D01*
X10483053Y-8878073D01*
X10487088Y-8898359D01*
X10487088Y-8919042D01*
X10483053Y-8939328D01*
X10475138Y-8958437D01*
X10463647Y-8975634D01*
X10449022Y-8990259D01*
X10431824Y-9001750D01*
X10412715Y-9009666D01*
X10394957Y-9013198D01*
X10392430Y-9013701D01*
X10371746Y-9013701D01*
X10369219Y-9013198D01*
X10351461Y-9009666D01*
X10332352Y-9001750D01*
X10315154Y-8990259D01*
X10300529Y-8975634D01*
X10289038Y-8958437D01*
X10281123Y-8939328D01*
X10277088Y-8919042D01*
X10277088Y-8898359D01*
X10281123Y-8878073D01*
X10289038Y-8858964D01*
X10300529Y-8841767D01*
X10315154Y-8827142D01*
X10332352Y-8815651D01*
X10351461Y-8807736D01*
X10369219Y-8804203D01*
X10371746Y-8803701D01*
X10392430Y-8803701D01*
X10394957Y-8804203D01*
G37*
G36*
X10648957Y-8804203D02*
G01*
X10666715Y-8807736D01*
X10685824Y-8815651D01*
X10703022Y-8827142D01*
X10717647Y-8841767D01*
X10729138Y-8858964D01*
X10737053Y-8878073D01*
X10741088Y-8898359D01*
X10741088Y-8919042D01*
X10737053Y-8939328D01*
X10729138Y-8958437D01*
X10717647Y-8975634D01*
X10703022Y-8990259D01*
X10685824Y-9001750D01*
X10666715Y-9009666D01*
X10648957Y-9013198D01*
X10646430Y-9013701D01*
X10625746Y-9013701D01*
X10623219Y-9013198D01*
X10605461Y-9009666D01*
X10586352Y-9001750D01*
X10569154Y-8990259D01*
X10554529Y-8975634D01*
X10543038Y-8958437D01*
X10535123Y-8939328D01*
X10531088Y-8919042D01*
X10531088Y-8898359D01*
X10535123Y-8878073D01*
X10543038Y-8858964D01*
X10554529Y-8841767D01*
X10569154Y-8827142D01*
X10586352Y-8815651D01*
X10605461Y-8807736D01*
X10623219Y-8804203D01*
X10625746Y-8803701D01*
X10646430Y-8803701D01*
X10648957Y-8804203D01*
G37*
G36*
X10815506Y-8280882D02*
G01*
X10653506Y-8280882D01*
X10653506Y-8149882D01*
X10815506Y-8149882D01*
X10815506Y-8280882D01*
G37*
G36*
X10271862Y-8083052D02*
G01*
X10276659Y-8084507D01*
X10281078Y-8086869D01*
X10284952Y-8090048D01*
X10288131Y-8093922D01*
X10290493Y-8098341D01*
X10291948Y-8103138D01*
X10292500Y-8108739D01*
X10292500Y-8191261D01*
X10291948Y-8196862D01*
X10290493Y-8201658D01*
X10288131Y-8206078D01*
X10284952Y-8209952D01*
X10281078Y-8213131D01*
X10276659Y-8215493D01*
X10271862Y-8216948D01*
X10266261Y-8217500D01*
X10191239Y-8217500D01*
X10185638Y-8216948D01*
X10180842Y-8215493D01*
X10176422Y-8213131D01*
X10172548Y-8209952D01*
X10169369Y-8206078D01*
X10167007Y-8201658D01*
X10165552Y-8196862D01*
X10165000Y-8191261D01*
X10165000Y-8108739D01*
X10165552Y-8103138D01*
X10167007Y-8098341D01*
X10169369Y-8093922D01*
X10172548Y-8090048D01*
X10176422Y-8086869D01*
X10180842Y-8084507D01*
X10185638Y-8083052D01*
X10191239Y-8082500D01*
X10266261Y-8082500D01*
X10271862Y-8083052D01*
G37*
G36*
X10114362Y-8083052D02*
G01*
X10119159Y-8084507D01*
X10123578Y-8086869D01*
X10127452Y-8090048D01*
X10130631Y-8093922D01*
X10132993Y-8098341D01*
X10134448Y-8103138D01*
X10135000Y-8108739D01*
X10135000Y-8191261D01*
X10134448Y-8196862D01*
X10132993Y-8201658D01*
X10130631Y-8206078D01*
X10127452Y-8209952D01*
X10123578Y-8213131D01*
X10119159Y-8215493D01*
X10114362Y-8216948D01*
X10108761Y-8217500D01*
X10033739Y-8217500D01*
X10028138Y-8216948D01*
X10023342Y-8215493D01*
X10018922Y-8213131D01*
X10015048Y-8209952D01*
X10011869Y-8206078D01*
X10009507Y-8201658D01*
X10008052Y-8196862D01*
X10007500Y-8191261D01*
X10007500Y-8108739D01*
X10008052Y-8103138D01*
X10009507Y-8098341D01*
X10011869Y-8093922D01*
X10015048Y-8090048D01*
X10018922Y-8086869D01*
X10023342Y-8084507D01*
X10028138Y-8083052D01*
X10033739Y-8082500D01*
X10108761Y-8082500D01*
X10114362Y-8083052D01*
G37*
G36*
X14850633Y-7518258D02*
G01*
X14913419Y-7544265D01*
X14913419Y-7544265D01*
X14969925Y-7582021D01*
X15017979Y-7630075D01*
X15055379Y-7686048D01*
X15055735Y-7686581D01*
X15081742Y-7749367D01*
X15095000Y-7816020D01*
X15095000Y-7883980D01*
X15081742Y-7950633D01*
X15055735Y-8013419D01*
X15055735Y-8013419D01*
X15017979Y-8069925D01*
X14969925Y-8117979D01*
X14913419Y-8155735D01*
X14913419Y-8155735D01*
X14913419Y-8155735D01*
X14850633Y-8181742D01*
X14783980Y-8195000D01*
X14716020Y-8195000D01*
X14649367Y-8181742D01*
X14586581Y-8155735D01*
X14586581Y-8155735D01*
X14586581Y-8155735D01*
X14530075Y-8117979D01*
X14482021Y-8069925D01*
X14444265Y-8013419D01*
X14444265Y-8013419D01*
X14418258Y-7950633D01*
X14405000Y-7883980D01*
X14405000Y-7816020D01*
X14418258Y-7749367D01*
X14444265Y-7686581D01*
X14444621Y-7686048D01*
X14482021Y-7630075D01*
X14530075Y-7582021D01*
X14586581Y-7544265D01*
X14586581Y-7544265D01*
X14649367Y-7518258D01*
X14716020Y-7505000D01*
X14783980Y-7505000D01*
X14850633Y-7518258D01*
G37*
G36*
X11696295Y-7850572D02*
G01*
X11722497Y-7861426D01*
X11722683Y-7861503D01*
X11746432Y-7877371D01*
X11766629Y-7897568D01*
X11782497Y-7921317D01*
X11782497Y-7921317D01*
X11793428Y-7947705D01*
X11799000Y-7975719D01*
X11799000Y-8004281D01*
X11793428Y-8032295D01*
X11782497Y-8058683D01*
X11782497Y-8058683D01*
X11766629Y-8082432D01*
X11746432Y-8102629D01*
X11722683Y-8118497D01*
X11722683Y-8118497D01*
X11722683Y-8118497D01*
X11696295Y-8129428D01*
X11668281Y-8135000D01*
X11639719Y-8135000D01*
X11611705Y-8129428D01*
X11585317Y-8118497D01*
X11585317Y-8118497D01*
X11585317Y-8118497D01*
X11561568Y-8102629D01*
X11541371Y-8082432D01*
X11525503Y-8058683D01*
X11525503Y-8058683D01*
X11514572Y-8032295D01*
X11509000Y-8004281D01*
X11509000Y-7975719D01*
X11514572Y-7947705D01*
X11525503Y-7921317D01*
X11525503Y-7921317D01*
X11541371Y-7897568D01*
X11561568Y-7877371D01*
X11585317Y-7861503D01*
X11585503Y-7861426D01*
X11611705Y-7850572D01*
X11639719Y-7845000D01*
X11668281Y-7845000D01*
X11696295Y-7850572D01*
G37*
G36*
X9288295Y-7850572D02*
G01*
X9314497Y-7861426D01*
X9314683Y-7861503D01*
X9338432Y-7877371D01*
X9358629Y-7897568D01*
X9374497Y-7921317D01*
X9374497Y-7921317D01*
X9385428Y-7947705D01*
X9391000Y-7975719D01*
X9391000Y-8004281D01*
X9385428Y-8032295D01*
X9374497Y-8058683D01*
X9374497Y-8058683D01*
X9358629Y-8082432D01*
X9338432Y-8102629D01*
X9314683Y-8118497D01*
X9314683Y-8118497D01*
X9314683Y-8118497D01*
X9288295Y-8129428D01*
X9260281Y-8135000D01*
X9231719Y-8135000D01*
X9203705Y-8129428D01*
X9177317Y-8118497D01*
X9177317Y-8118497D01*
X9177317Y-8118497D01*
X9153568Y-8102629D01*
X9133371Y-8082432D01*
X9117503Y-8058683D01*
X9117503Y-8058683D01*
X9106572Y-8032295D01*
X9101000Y-8004281D01*
X9101000Y-7975719D01*
X9106572Y-7947705D01*
X9117503Y-7921317D01*
X9117503Y-7921317D01*
X9133371Y-7897568D01*
X9153568Y-7877371D01*
X9177317Y-7861503D01*
X9177503Y-7861426D01*
X9203705Y-7850572D01*
X9231719Y-7845000D01*
X9260281Y-7845000D01*
X9288295Y-7850572D01*
G37*
G36*
X10305000Y-8015000D02*
G01*
X10185000Y-8015000D01*
X10185000Y-7885000D01*
X10305000Y-7885000D01*
X10305000Y-8015000D01*
G37*
G36*
X10115000Y-8015000D02*
G01*
X9995000Y-8015000D01*
X9995000Y-7885000D01*
X10115000Y-7885000D01*
X10115000Y-8015000D01*
G37*
G36*
X10815506Y-7953882D02*
G01*
X10653506Y-7953882D01*
X10653506Y-7822882D01*
X10815506Y-7822882D01*
X10815506Y-7953882D01*
G37*
G36*
X6286048Y-7316337D02*
G01*
X6339735Y-7338574D01*
X6339735Y-7338574D01*
X6388052Y-7370858D01*
X6429141Y-7411948D01*
X6461426Y-7460265D01*
X6461426Y-7460265D01*
X6483663Y-7513952D01*
X6495000Y-7570945D01*
X6495000Y-7629055D01*
X6483663Y-7686048D01*
X6461426Y-7739735D01*
X6461426Y-7739735D01*
X6429141Y-7788052D01*
X6388052Y-7829141D01*
X6339735Y-7861426D01*
X6339735Y-7861426D01*
X6339735Y-7861426D01*
X6286048Y-7883663D01*
X6229055Y-7895000D01*
X6170945Y-7895000D01*
X6113952Y-7883663D01*
X6060265Y-7861426D01*
X6060265Y-7861426D01*
X6060265Y-7861426D01*
X6011948Y-7829141D01*
X5970858Y-7788052D01*
X5938574Y-7739735D01*
X5938574Y-7739735D01*
X5916337Y-7686048D01*
X5905000Y-7629055D01*
X5905000Y-7570945D01*
X5916337Y-7513952D01*
X5938574Y-7460265D01*
X5938574Y-7460265D01*
X5970858Y-7411948D01*
X6011948Y-7370858D01*
X6060265Y-7338574D01*
X6060265Y-7338574D01*
X6113952Y-7316337D01*
X6170945Y-7305000D01*
X6229055Y-7305000D01*
X6286048Y-7316337D01*
G37*
G36*
X7790171Y-7398454D02*
G01*
X7830209Y-7415038D01*
X7830209Y-7415038D01*
X7866242Y-7439115D01*
X7896885Y-7469758D01*
X7920962Y-7505791D01*
X7937546Y-7545828D01*
X7946000Y-7588332D01*
X7946000Y-7631668D01*
X7937546Y-7674171D01*
X7920962Y-7714209D01*
X7920961Y-7714209D01*
X7896885Y-7750242D01*
X7866242Y-7780885D01*
X7830209Y-7804961D01*
X7830209Y-7804962D01*
X7830209Y-7804962D01*
X7790171Y-7821546D01*
X7747668Y-7830000D01*
X7704332Y-7830000D01*
X7661828Y-7821546D01*
X7621791Y-7804962D01*
X7621791Y-7804962D01*
X7621791Y-7804961D01*
X7585758Y-7780885D01*
X7555115Y-7750242D01*
X7531038Y-7714209D01*
X7531038Y-7714209D01*
X7514454Y-7674171D01*
X7506000Y-7631668D01*
X7506000Y-7588332D01*
X7514454Y-7545828D01*
X7531038Y-7505791D01*
X7555115Y-7469758D01*
X7585758Y-7439115D01*
X7621791Y-7415038D01*
X7621791Y-7415038D01*
X7661828Y-7398454D01*
X7704332Y-7390000D01*
X7747668Y-7390000D01*
X7790171Y-7398454D01*
G37*
G36*
X12988171Y-7398454D02*
G01*
X13028209Y-7415038D01*
X13028209Y-7415038D01*
X13064242Y-7439115D01*
X13094885Y-7469758D01*
X13118962Y-7505791D01*
X13135546Y-7545828D01*
X13144000Y-7588332D01*
X13144000Y-7631668D01*
X13135546Y-7674171D01*
X13118962Y-7714209D01*
X13118961Y-7714209D01*
X13094885Y-7750242D01*
X13064242Y-7780885D01*
X13028209Y-7804961D01*
X13028209Y-7804962D01*
X13028209Y-7804962D01*
X12988171Y-7821546D01*
X12945668Y-7830000D01*
X12902332Y-7830000D01*
X12859828Y-7821546D01*
X12819791Y-7804962D01*
X12819791Y-7804962D01*
X12819791Y-7804961D01*
X12783758Y-7780885D01*
X12753115Y-7750242D01*
X12729038Y-7714209D01*
X12729038Y-7714209D01*
X12712454Y-7674171D01*
X12704000Y-7631668D01*
X12704000Y-7588332D01*
X12712454Y-7545828D01*
X12729038Y-7505791D01*
X12753115Y-7469758D01*
X12783758Y-7439115D01*
X12819791Y-7415038D01*
X12819791Y-7415038D01*
X12859828Y-7398454D01*
X12902332Y-7390000D01*
X12945668Y-7390000D01*
X12988171Y-7398454D01*
G37*
G36*
X10210000Y-7815000D02*
G01*
X10090000Y-7815000D01*
X10090000Y-7685000D01*
X10210000Y-7685000D01*
X10210000Y-7815000D01*
G37*
G36*
X10844506Y-7780382D02*
G01*
X10724506Y-7780382D01*
X10724506Y-7650382D01*
X10844506Y-7650382D01*
X10844506Y-7780382D01*
G37*
G36*
X10153874Y-7642500D02*
G01*
X9991874Y-7642500D01*
X9991874Y-7511500D01*
X10153874Y-7511500D01*
X10153874Y-7642500D01*
G37*
G36*
X10939506Y-7580382D02*
G01*
X10819506Y-7580382D01*
X10819506Y-7450382D01*
X10939506Y-7450382D01*
X10939506Y-7580382D01*
G37*
G36*
X10749506Y-7580382D02*
G01*
X10629506Y-7580382D01*
X10629506Y-7450382D01*
X10749506Y-7450382D01*
X10749506Y-7580382D01*
G37*
G36*
X10743112Y-7233052D02*
G01*
X10747909Y-7234507D01*
X10752328Y-7236869D01*
X10756202Y-7240048D01*
X10759381Y-7243922D01*
X10761743Y-7248341D01*
X10763198Y-7253138D01*
X10763750Y-7258739D01*
X10763750Y-7341261D01*
X10763198Y-7346862D01*
X10761743Y-7351658D01*
X10759381Y-7356078D01*
X10756202Y-7359952D01*
X10752328Y-7363131D01*
X10747909Y-7365493D01*
X10743112Y-7366948D01*
X10737511Y-7367500D01*
X10662489Y-7367500D01*
X10656888Y-7366948D01*
X10652092Y-7365493D01*
X10647672Y-7363131D01*
X10643798Y-7359952D01*
X10640619Y-7356078D01*
X10638257Y-7351658D01*
X10636802Y-7346862D01*
X10636250Y-7341261D01*
X10636250Y-7258739D01*
X10636802Y-7253138D01*
X10638257Y-7248341D01*
X10640619Y-7243922D01*
X10643798Y-7240048D01*
X10647672Y-7236869D01*
X10652092Y-7234507D01*
X10656888Y-7233052D01*
X10662489Y-7232500D01*
X10737511Y-7232500D01*
X10743112Y-7233052D01*
G37*
G36*
X10900612Y-7233052D02*
G01*
X10905409Y-7234507D01*
X10909828Y-7236869D01*
X10913702Y-7240048D01*
X10916881Y-7243922D01*
X10919243Y-7248341D01*
X10920698Y-7253138D01*
X10921250Y-7258739D01*
X10921250Y-7341261D01*
X10920698Y-7346862D01*
X10919243Y-7351658D01*
X10916881Y-7356078D01*
X10913702Y-7359952D01*
X10909828Y-7363131D01*
X10905409Y-7365493D01*
X10900612Y-7366948D01*
X10895011Y-7367500D01*
X10819989Y-7367500D01*
X10814388Y-7366948D01*
X10809592Y-7365493D01*
X10805172Y-7363131D01*
X10801298Y-7359952D01*
X10798119Y-7356078D01*
X10795757Y-7351658D01*
X10794302Y-7346862D01*
X10793750Y-7341261D01*
X10793750Y-7258739D01*
X10794302Y-7253138D01*
X10795757Y-7248341D01*
X10798119Y-7243922D01*
X10801298Y-7240048D01*
X10805172Y-7236869D01*
X10809592Y-7234507D01*
X10814388Y-7233052D01*
X10819989Y-7232500D01*
X10895011Y-7232500D01*
X10900612Y-7233052D01*
G37*
G36*
X10153874Y-7315500D02*
G01*
X9991874Y-7315500D01*
X9991874Y-7184500D01*
X10153874Y-7184500D01*
X10153874Y-7315500D01*
G37*
G36*
X13823524Y-6814236D02*
G01*
X13846144Y-6821098D01*
X13846144Y-6821098D01*
X13866991Y-6832241D01*
X13866991Y-6832241D01*
X13866991Y-6832241D01*
X13885263Y-6847237D01*
X13888481Y-6851157D01*
X13900259Y-6865509D01*
X13911402Y-6886356D01*
X13911402Y-6886356D01*
X13911402Y-6886356D01*
X13918264Y-6908976D01*
X13920000Y-6926605D01*
X13920000Y-6988395D01*
X13918264Y-7006024D01*
X13914684Y-7017823D01*
X13911402Y-7028645D01*
X13900259Y-7049491D01*
X13885263Y-7067763D01*
X13866991Y-7082759D01*
X13846144Y-7093902D01*
X13846144Y-7093902D01*
X13823524Y-7100764D01*
X13800000Y-7103081D01*
X13776476Y-7100764D01*
X13753856Y-7093902D01*
X13753856Y-7093902D01*
X13733009Y-7082759D01*
X13714737Y-7067763D01*
X13699741Y-7049491D01*
X13688598Y-7028645D01*
X13685024Y-7016862D01*
X13681736Y-7006024D01*
X13680000Y-6988395D01*
X13680000Y-6926605D01*
X13681736Y-6908976D01*
X13688598Y-6886356D01*
X13688598Y-6886356D01*
X13699741Y-6865509D01*
X13702021Y-6862731D01*
X13714737Y-6847237D01*
X13725929Y-6838052D01*
X13733009Y-6832241D01*
X13753855Y-6821098D01*
X13753856Y-6821098D01*
X13776476Y-6814236D01*
X13800000Y-6811919D01*
X13823524Y-6814236D01*
G37*
G36*
X12623524Y-6814236D02*
G01*
X12646144Y-6821098D01*
X12646144Y-6821098D01*
X12666991Y-6832241D01*
X12666991Y-6832241D01*
X12666991Y-6832241D01*
X12685263Y-6847237D01*
X12688481Y-6851157D01*
X12700259Y-6865509D01*
X12711402Y-6886356D01*
X12711402Y-6886356D01*
X12711402Y-6886356D01*
X12718264Y-6908976D01*
X12720000Y-6926605D01*
X12720000Y-6988395D01*
X12718264Y-7006024D01*
X12714684Y-7017823D01*
X12711402Y-7028645D01*
X12700259Y-7049491D01*
X12685263Y-7067763D01*
X12666991Y-7082759D01*
X12646144Y-7093902D01*
X12646144Y-7093902D01*
X12623524Y-7100764D01*
X12600000Y-7103081D01*
X12576476Y-7100764D01*
X12553856Y-7093902D01*
X12553856Y-7093902D01*
X12533009Y-7082759D01*
X12514737Y-7067763D01*
X12499741Y-7049491D01*
X12488598Y-7028645D01*
X12485024Y-7016862D01*
X12481736Y-7006024D01*
X12480000Y-6988395D01*
X12480000Y-6926605D01*
X12481736Y-6908976D01*
X12488598Y-6886356D01*
X12488598Y-6886356D01*
X12499741Y-6865509D01*
X12502021Y-6862731D01*
X12514737Y-6847237D01*
X12525929Y-6838052D01*
X12533009Y-6832241D01*
X12553855Y-6821098D01*
X12553856Y-6821098D01*
X12576476Y-6814236D01*
X12600000Y-6811919D01*
X12623524Y-6814236D01*
G37*
G36*
X12935003Y-6842112D02*
G01*
X12956841Y-6851157D01*
X12956841Y-6851157D01*
X12976495Y-6864290D01*
X12993210Y-6881005D01*
X13006343Y-6900659D01*
X13015388Y-6922497D01*
X13020000Y-6945681D01*
X13020000Y-6969319D01*
X13015388Y-6992503D01*
X13009788Y-7006024D01*
X13006343Y-7014341D01*
X12993210Y-7033996D01*
X12976495Y-7050710D01*
X12956841Y-7063843D01*
X12956841Y-7063843D01*
X12956841Y-7063843D01*
X12935003Y-7072889D01*
X12911819Y-7077500D01*
X12888181Y-7077500D01*
X12864997Y-7072889D01*
X12843159Y-7063843D01*
X12843159Y-7063843D01*
X12843159Y-7063843D01*
X12823504Y-7050710D01*
X12806790Y-7033996D01*
X12793657Y-7014341D01*
X12790212Y-7006024D01*
X12784611Y-6992503D01*
X12780000Y-6969319D01*
X12780000Y-6945681D01*
X12784611Y-6922497D01*
X12793657Y-6900659D01*
X12806790Y-6881005D01*
X12823504Y-6864290D01*
X12843159Y-6851157D01*
X12843159Y-6851157D01*
X12864997Y-6842112D01*
X12888181Y-6837500D01*
X12911819Y-6837500D01*
X12935003Y-6842112D01*
G37*
G36*
X13235003Y-6842112D02*
G01*
X13256841Y-6851157D01*
X13256841Y-6851157D01*
X13276495Y-6864290D01*
X13293210Y-6881005D01*
X13306343Y-6900659D01*
X13315388Y-6922497D01*
X13320000Y-6945681D01*
X13320000Y-6969319D01*
X13315388Y-6992503D01*
X13309788Y-7006024D01*
X13306343Y-7014341D01*
X13293210Y-7033996D01*
X13276495Y-7050710D01*
X13256841Y-7063843D01*
X13256841Y-7063843D01*
X13256841Y-7063843D01*
X13235003Y-7072889D01*
X13211819Y-7077500D01*
X13188181Y-7077500D01*
X13164997Y-7072889D01*
X13143159Y-7063843D01*
X13143159Y-7063843D01*
X13143159Y-7063843D01*
X13123504Y-7050710D01*
X13106790Y-7033996D01*
X13093657Y-7014341D01*
X13090212Y-7006024D01*
X13084611Y-6992503D01*
X13080000Y-6969319D01*
X13080000Y-6945681D01*
X13084611Y-6922497D01*
X13093657Y-6900659D01*
X13106790Y-6881005D01*
X13123504Y-6864290D01*
X13143159Y-6851157D01*
X13143159Y-6851157D01*
X13164997Y-6842112D01*
X13188181Y-6837500D01*
X13211819Y-6837500D01*
X13235003Y-6842112D01*
G37*
G36*
X13535003Y-6842112D02*
G01*
X13556841Y-6851157D01*
X13556841Y-6851157D01*
X13576495Y-6864290D01*
X13593210Y-6881005D01*
X13606343Y-6900659D01*
X13615388Y-6922497D01*
X13620000Y-6945681D01*
X13620000Y-6969319D01*
X13615388Y-6992503D01*
X13609788Y-7006024D01*
X13606343Y-7014341D01*
X13593210Y-7033996D01*
X13576495Y-7050710D01*
X13556841Y-7063843D01*
X13556841Y-7063843D01*
X13556841Y-7063843D01*
X13535003Y-7072889D01*
X13511819Y-7077500D01*
X13488181Y-7077500D01*
X13464997Y-7072889D01*
X13443159Y-7063843D01*
X13443159Y-7063843D01*
X13443159Y-7063843D01*
X13423504Y-7050710D01*
X13406790Y-7033996D01*
X13393657Y-7014341D01*
X13390212Y-7006024D01*
X13384611Y-6992503D01*
X13380000Y-6969319D01*
X13380000Y-6945681D01*
X13384611Y-6922497D01*
X13393657Y-6900659D01*
X13406790Y-6881005D01*
X13423504Y-6864290D01*
X13443159Y-6851157D01*
X13443159Y-6851157D01*
X13464997Y-6842112D01*
X13488181Y-6837500D01*
X13511819Y-6837500D01*
X13535003Y-6842112D01*
G37*
G36*
X14311862Y-6903052D02*
G01*
X14316658Y-6904507D01*
X14321078Y-6906869D01*
X14324952Y-6910048D01*
X14328131Y-6913922D01*
X14330493Y-6918341D01*
X14331948Y-6923138D01*
X14332500Y-6928739D01*
X14332500Y-7011261D01*
X14331948Y-7016862D01*
X14330493Y-7021658D01*
X14328131Y-7026078D01*
X14324952Y-7029952D01*
X14321078Y-7033131D01*
X14316658Y-7035493D01*
X14311862Y-7036948D01*
X14306261Y-7037500D01*
X14231239Y-7037500D01*
X14225638Y-7036948D01*
X14220841Y-7035493D01*
X14216422Y-7033131D01*
X14212548Y-7029952D01*
X14209369Y-7026078D01*
X14207007Y-7021658D01*
X14205552Y-7016862D01*
X14205000Y-7011261D01*
X14205000Y-6928739D01*
X14205552Y-6923138D01*
X14207007Y-6918341D01*
X14209369Y-6913922D01*
X14212548Y-6910048D01*
X14216422Y-6906869D01*
X14220841Y-6904507D01*
X14225638Y-6903052D01*
X14231239Y-6902500D01*
X14306261Y-6902500D01*
X14311862Y-6903052D01*
G37*
G36*
X14154362Y-6903052D02*
G01*
X14159158Y-6904507D01*
X14163578Y-6906869D01*
X14167452Y-6910048D01*
X14170631Y-6913922D01*
X14172993Y-6918341D01*
X14174448Y-6923138D01*
X14175000Y-6928739D01*
X14175000Y-7011261D01*
X14174448Y-7016862D01*
X14172993Y-7021658D01*
X14170631Y-7026078D01*
X14167452Y-7029952D01*
X14163578Y-7033131D01*
X14159158Y-7035493D01*
X14154362Y-7036948D01*
X14148761Y-7037500D01*
X14073739Y-7037500D01*
X14068138Y-7036948D01*
X14063341Y-7035493D01*
X14058922Y-7033131D01*
X14055048Y-7029952D01*
X14051869Y-7026078D01*
X14049507Y-7021658D01*
X14048052Y-7016862D01*
X14047500Y-7011261D01*
X14047500Y-6928739D01*
X14048052Y-6923138D01*
X14049507Y-6918341D01*
X14051869Y-6913922D01*
X14055048Y-6910048D01*
X14058922Y-6906869D01*
X14063341Y-6904507D01*
X14068138Y-6903052D01*
X14073739Y-6902500D01*
X14148761Y-6902500D01*
X14154362Y-6903052D01*
G37*
G36*
X6336048Y-6366337D02*
G01*
X6364688Y-6378199D01*
X6389735Y-6388574D01*
X6438052Y-6420858D01*
X6479141Y-6461948D01*
X6489215Y-6477024D01*
X6511426Y-6510265D01*
X6533663Y-6563952D01*
X6545000Y-6620945D01*
X6545000Y-6679055D01*
X6533663Y-6736048D01*
X6511426Y-6789735D01*
X6511426Y-6789735D01*
X6479141Y-6838052D01*
X6438052Y-6879141D01*
X6389735Y-6911426D01*
X6389735Y-6911426D01*
X6389735Y-6911426D01*
X6336048Y-6933663D01*
X6279055Y-6945000D01*
X6220945Y-6945000D01*
X6163952Y-6933663D01*
X6110265Y-6911426D01*
X6110265Y-6911426D01*
X6110265Y-6911426D01*
X6061948Y-6879141D01*
X6020858Y-6838052D01*
X5988574Y-6789735D01*
X5988574Y-6789735D01*
X5966337Y-6736048D01*
X5955000Y-6679055D01*
X5955000Y-6620945D01*
X5966337Y-6563952D01*
X5988574Y-6510265D01*
X6010785Y-6477024D01*
X6020858Y-6461948D01*
X6061948Y-6420858D01*
X6110265Y-6388574D01*
X6135312Y-6378199D01*
X6163952Y-6366337D01*
X6220945Y-6355000D01*
X6279055Y-6355000D01*
X6336048Y-6366337D01*
G37*
G36*
X14886048Y-6366337D02*
G01*
X14914688Y-6378199D01*
X14939735Y-6388574D01*
X14988052Y-6420858D01*
X15029141Y-6461948D01*
X15039215Y-6477024D01*
X15061426Y-6510265D01*
X15083663Y-6563952D01*
X15095000Y-6620945D01*
X15095000Y-6679055D01*
X15083663Y-6736048D01*
X15061426Y-6789735D01*
X15061426Y-6789735D01*
X15029141Y-6838052D01*
X14988052Y-6879141D01*
X14939735Y-6911426D01*
X14939735Y-6911426D01*
X14939735Y-6911426D01*
X14886048Y-6933663D01*
X14829055Y-6945000D01*
X14770945Y-6945000D01*
X14713952Y-6933663D01*
X14660265Y-6911426D01*
X14660265Y-6911426D01*
X14660265Y-6911426D01*
X14611948Y-6879141D01*
X14570858Y-6838052D01*
X14538574Y-6789735D01*
X14538574Y-6789735D01*
X14516337Y-6736048D01*
X14505000Y-6679055D01*
X14505000Y-6620945D01*
X14516337Y-6563952D01*
X14538574Y-6510265D01*
X14560785Y-6477024D01*
X14570858Y-6461948D01*
X14611948Y-6420858D01*
X14660265Y-6388574D01*
X14685312Y-6378199D01*
X14713952Y-6366337D01*
X14770945Y-6355000D01*
X14829055Y-6355000D01*
X14886048Y-6366337D01*
G37*
G36*
X14310612Y-6673052D02*
G01*
X14315408Y-6674507D01*
X14319828Y-6676869D01*
X14323702Y-6680048D01*
X14326881Y-6683922D01*
X14329243Y-6688341D01*
X14330698Y-6693138D01*
X14331250Y-6698739D01*
X14331250Y-6781261D01*
X14330698Y-6786862D01*
X14329243Y-6791658D01*
X14326881Y-6796078D01*
X14323702Y-6799952D01*
X14319828Y-6803131D01*
X14315408Y-6805493D01*
X14310612Y-6806948D01*
X14305011Y-6807500D01*
X14229989Y-6807500D01*
X14224388Y-6806948D01*
X14219591Y-6805493D01*
X14215172Y-6803131D01*
X14211298Y-6799952D01*
X14208119Y-6796078D01*
X14205757Y-6791658D01*
X14204302Y-6786862D01*
X14203750Y-6781261D01*
X14203750Y-6698739D01*
X14204302Y-6693138D01*
X14205757Y-6688341D01*
X14208119Y-6683922D01*
X14211298Y-6680048D01*
X14215172Y-6676869D01*
X14219591Y-6674507D01*
X14224388Y-6673052D01*
X14229989Y-6672500D01*
X14305011Y-6672500D01*
X14310612Y-6673052D01*
G37*
G36*
X14153112Y-6673052D02*
G01*
X14157908Y-6674507D01*
X14162328Y-6676869D01*
X14166202Y-6680048D01*
X14169381Y-6683922D01*
X14171743Y-6688341D01*
X14173198Y-6693138D01*
X14173750Y-6698739D01*
X14173750Y-6781261D01*
X14173198Y-6786862D01*
X14171743Y-6791658D01*
X14169381Y-6796078D01*
X14166202Y-6799952D01*
X14162328Y-6803131D01*
X14157908Y-6805493D01*
X14153112Y-6806948D01*
X14147511Y-6807500D01*
X14072489Y-6807500D01*
X14066888Y-6806948D01*
X14062091Y-6805493D01*
X14057672Y-6803131D01*
X14053798Y-6799952D01*
X14050619Y-6796078D01*
X14048257Y-6791658D01*
X14046802Y-6786862D01*
X14046250Y-6781261D01*
X14046250Y-6698739D01*
X14046802Y-6693138D01*
X14048257Y-6688341D01*
X14050619Y-6683922D01*
X14053798Y-6680048D01*
X14057672Y-6676869D01*
X14062091Y-6674507D01*
X14066888Y-6673052D01*
X14072489Y-6672500D01*
X14147511Y-6672500D01*
X14153112Y-6673052D01*
G37*
G36*
X10283024Y-6597727D02*
G01*
X10302380Y-6605745D01*
X10319801Y-6617385D01*
X10334615Y-6632199D01*
X10346255Y-6649620D01*
X10354273Y-6668976D01*
X10358360Y-6689524D01*
X10358360Y-6710476D01*
X10354273Y-6731024D01*
X10346255Y-6750380D01*
X10334615Y-6767800D01*
X10319801Y-6782615D01*
X10302380Y-6794255D01*
X10283024Y-6802273D01*
X10262476Y-6806360D01*
X10241524Y-6806360D01*
X10220976Y-6802273D01*
X10201620Y-6794255D01*
X10184200Y-6782615D01*
X10169385Y-6767800D01*
X10157745Y-6750380D01*
X10149727Y-6731024D01*
X10145640Y-6710476D01*
X10145640Y-6689524D01*
X10149727Y-6668976D01*
X10157745Y-6649620D01*
X10169385Y-6632199D01*
X10184200Y-6617385D01*
X10201620Y-6605745D01*
X10220976Y-6597727D01*
X10241524Y-6593640D01*
X10262476Y-6593640D01*
X10283024Y-6597727D01*
G37*
G36*
X11807024Y-6597727D02*
G01*
X11826380Y-6605745D01*
X11843800Y-6617385D01*
X11858615Y-6632199D01*
X11870255Y-6649620D01*
X11878273Y-6668976D01*
X11882360Y-6689524D01*
X11882360Y-6710476D01*
X11878273Y-6731024D01*
X11870255Y-6750380D01*
X11858615Y-6767800D01*
X11843800Y-6782615D01*
X11826380Y-6794255D01*
X11807024Y-6802273D01*
X11786476Y-6806360D01*
X11765524Y-6806360D01*
X11744976Y-6802273D01*
X11725620Y-6794255D01*
X11708199Y-6782615D01*
X11693385Y-6767800D01*
X11681745Y-6750380D01*
X11673727Y-6731024D01*
X11669640Y-6710476D01*
X11669640Y-6689524D01*
X11673727Y-6668976D01*
X11681745Y-6649620D01*
X11693385Y-6632199D01*
X11708199Y-6617385D01*
X11725620Y-6605745D01*
X11744976Y-6597727D01*
X11765524Y-6593640D01*
X11786476Y-6593640D01*
X11807024Y-6597727D01*
G37*
G36*
X10537024Y-6597727D02*
G01*
X10556380Y-6605745D01*
X10573801Y-6617385D01*
X10588615Y-6632199D01*
X10600255Y-6649620D01*
X10608273Y-6668976D01*
X10612360Y-6689524D01*
X10612360Y-6710476D01*
X10608273Y-6731024D01*
X10600255Y-6750380D01*
X10588615Y-6767800D01*
X10573801Y-6782615D01*
X10556380Y-6794255D01*
X10537024Y-6802273D01*
X10516476Y-6806360D01*
X10495524Y-6806360D01*
X10474976Y-6802273D01*
X10455620Y-6794255D01*
X10438200Y-6782615D01*
X10423385Y-6767800D01*
X10411745Y-6750380D01*
X10403727Y-6731024D01*
X10399640Y-6710476D01*
X10399640Y-6689524D01*
X10403727Y-6668976D01*
X10411745Y-6649620D01*
X10423385Y-6632199D01*
X10438200Y-6617385D01*
X10455620Y-6605745D01*
X10474976Y-6597727D01*
X10495524Y-6593640D01*
X10516476Y-6593640D01*
X10537024Y-6597727D01*
G37*
G36*
X11553024Y-6597727D02*
G01*
X11572380Y-6605745D01*
X11589800Y-6617385D01*
X11604615Y-6632199D01*
X11616255Y-6649620D01*
X11624273Y-6668976D01*
X11628360Y-6689524D01*
X11628360Y-6710476D01*
X11624273Y-6731024D01*
X11616255Y-6750380D01*
X11604615Y-6767800D01*
X11589800Y-6782615D01*
X11572380Y-6794255D01*
X11553024Y-6802273D01*
X11532476Y-6806360D01*
X11511524Y-6806360D01*
X11490976Y-6802273D01*
X11471620Y-6794255D01*
X11454199Y-6782615D01*
X11439385Y-6767800D01*
X11427745Y-6750380D01*
X11419727Y-6731024D01*
X11415640Y-6710476D01*
X11415640Y-6689524D01*
X11419727Y-6668976D01*
X11427745Y-6649620D01*
X11439385Y-6632199D01*
X11454199Y-6617385D01*
X11471620Y-6605745D01*
X11490976Y-6597727D01*
X11511524Y-6593640D01*
X11532476Y-6593640D01*
X11553024Y-6597727D01*
G37*
G36*
X10791024Y-6597727D02*
G01*
X10810380Y-6605745D01*
X10827801Y-6617385D01*
X10842615Y-6632199D01*
X10854255Y-6649620D01*
X10862273Y-6668976D01*
X10866360Y-6689524D01*
X10866360Y-6710476D01*
X10862273Y-6731024D01*
X10854255Y-6750380D01*
X10842615Y-6767800D01*
X10827801Y-6782615D01*
X10810380Y-6794255D01*
X10791024Y-6802273D01*
X10770476Y-6806360D01*
X10749524Y-6806360D01*
X10728976Y-6802273D01*
X10709620Y-6794255D01*
X10692200Y-6782615D01*
X10677385Y-6767800D01*
X10665745Y-6750380D01*
X10657727Y-6731024D01*
X10653640Y-6710476D01*
X10653640Y-6689524D01*
X10657727Y-6668976D01*
X10665745Y-6649620D01*
X10677385Y-6632199D01*
X10692200Y-6617385D01*
X10709620Y-6605745D01*
X10728976Y-6597727D01*
X10749524Y-6593640D01*
X10770476Y-6593640D01*
X10791024Y-6597727D01*
G37*
G36*
X11299024Y-6597727D02*
G01*
X11318380Y-6605745D01*
X11335800Y-6617385D01*
X11350615Y-6632199D01*
X11362255Y-6649620D01*
X11370273Y-6668976D01*
X11374360Y-6689524D01*
X11374360Y-6710476D01*
X11370273Y-6731024D01*
X11362255Y-6750380D01*
X11350615Y-6767800D01*
X11335800Y-6782615D01*
X11318380Y-6794255D01*
X11299024Y-6802273D01*
X11278476Y-6806360D01*
X11257524Y-6806360D01*
X11236976Y-6802273D01*
X11217620Y-6794255D01*
X11200199Y-6782615D01*
X11185385Y-6767800D01*
X11173745Y-6750380D01*
X11165727Y-6731024D01*
X11161640Y-6710476D01*
X11161640Y-6689524D01*
X11165727Y-6668976D01*
X11173745Y-6649620D01*
X11185385Y-6632199D01*
X11200199Y-6617385D01*
X11217620Y-6605745D01*
X11236976Y-6597727D01*
X11257524Y-6593640D01*
X11278476Y-6593640D01*
X11299024Y-6597727D01*
G37*
G36*
X11045024Y-6597727D02*
G01*
X11064380Y-6605745D01*
X11081801Y-6617385D01*
X11096615Y-6632199D01*
X11108255Y-6649620D01*
X11116273Y-6668976D01*
X11120360Y-6689524D01*
X11120360Y-6710476D01*
X11116273Y-6731024D01*
X11108255Y-6750380D01*
X11096615Y-6767800D01*
X11081801Y-6782615D01*
X11064380Y-6794255D01*
X11045024Y-6802273D01*
X11024476Y-6806360D01*
X11003524Y-6806360D01*
X10982976Y-6802273D01*
X10963620Y-6794255D01*
X10946200Y-6782615D01*
X10931385Y-6767800D01*
X10919745Y-6750380D01*
X10911727Y-6731024D01*
X10907640Y-6710476D01*
X10907640Y-6689524D01*
X10911727Y-6668976D01*
X10919745Y-6649620D01*
X10931385Y-6632199D01*
X10946200Y-6617385D01*
X10963620Y-6605745D01*
X10982976Y-6597727D01*
X11003524Y-6593640D01*
X11024476Y-6593640D01*
X11045024Y-6597727D01*
G37*
G36*
X9267024Y-6597727D02*
G01*
X9286380Y-6605745D01*
X9303801Y-6617385D01*
X9318615Y-6632199D01*
X9330255Y-6649620D01*
X9338273Y-6668976D01*
X9342360Y-6689524D01*
X9342360Y-6710476D01*
X9338273Y-6731024D01*
X9330255Y-6750380D01*
X9318615Y-6767800D01*
X9303801Y-6782615D01*
X9286380Y-6794255D01*
X9267024Y-6802273D01*
X9246476Y-6806360D01*
X9225524Y-6806360D01*
X9204976Y-6802273D01*
X9185620Y-6794255D01*
X9168200Y-6782615D01*
X9153385Y-6767800D01*
X9141745Y-6750380D01*
X9133727Y-6731024D01*
X9129640Y-6710476D01*
X9129640Y-6689524D01*
X9133727Y-6668976D01*
X9141745Y-6649620D01*
X9153385Y-6632199D01*
X9168200Y-6617385D01*
X9185620Y-6605745D01*
X9204976Y-6597727D01*
X9225524Y-6593640D01*
X9246476Y-6593640D01*
X9267024Y-6597727D01*
G37*
G36*
X9521024Y-6597727D02*
G01*
X9540380Y-6605745D01*
X9557801Y-6617385D01*
X9572615Y-6632199D01*
X9584255Y-6649620D01*
X9592273Y-6668976D01*
X9596360Y-6689524D01*
X9596360Y-6710476D01*
X9592273Y-6731024D01*
X9584255Y-6750380D01*
X9572615Y-6767800D01*
X9557801Y-6782615D01*
X9540380Y-6794255D01*
X9521024Y-6802273D01*
X9500476Y-6806360D01*
X9479524Y-6806360D01*
X9458976Y-6802273D01*
X9439620Y-6794255D01*
X9422200Y-6782615D01*
X9407385Y-6767800D01*
X9395745Y-6750380D01*
X9387727Y-6731024D01*
X9383640Y-6710476D01*
X9383640Y-6689524D01*
X9387727Y-6668976D01*
X9395745Y-6649620D01*
X9407385Y-6632199D01*
X9422200Y-6617385D01*
X9439620Y-6605745D01*
X9458976Y-6597727D01*
X9479524Y-6593640D01*
X9500476Y-6593640D01*
X9521024Y-6597727D01*
G37*
G36*
X9775024Y-6597727D02*
G01*
X9794380Y-6605745D01*
X9811801Y-6617385D01*
X9826615Y-6632199D01*
X9838255Y-6649620D01*
X9846273Y-6668976D01*
X9850360Y-6689524D01*
X9850360Y-6710476D01*
X9846273Y-6731024D01*
X9838255Y-6750380D01*
X9826615Y-6767800D01*
X9811801Y-6782615D01*
X9794380Y-6794255D01*
X9775024Y-6802273D01*
X9754476Y-6806360D01*
X9733524Y-6806360D01*
X9712976Y-6802273D01*
X9693620Y-6794255D01*
X9676200Y-6782615D01*
X9661385Y-6767800D01*
X9649745Y-6750380D01*
X9641727Y-6731024D01*
X9637640Y-6710476D01*
X9637640Y-6689524D01*
X9641727Y-6668976D01*
X9649745Y-6649620D01*
X9661385Y-6632199D01*
X9676200Y-6617385D01*
X9693620Y-6605745D01*
X9712976Y-6597727D01*
X9733524Y-6593640D01*
X9754476Y-6593640D01*
X9775024Y-6597727D01*
G37*
G36*
X7489024Y-6597727D02*
G01*
X7508380Y-6605745D01*
X7525800Y-6617385D01*
X7540615Y-6632199D01*
X7552255Y-6649620D01*
X7560273Y-6668976D01*
X7564360Y-6689524D01*
X7564360Y-6710476D01*
X7560273Y-6731024D01*
X7552255Y-6750380D01*
X7540615Y-6767800D01*
X7525800Y-6782615D01*
X7508380Y-6794255D01*
X7489024Y-6802273D01*
X7468476Y-6806360D01*
X7447524Y-6806360D01*
X7426976Y-6802273D01*
X7407620Y-6794255D01*
X7390199Y-6782615D01*
X7375385Y-6767800D01*
X7363745Y-6750380D01*
X7355727Y-6731024D01*
X7351640Y-6710476D01*
X7351640Y-6689524D01*
X7355727Y-6668976D01*
X7363745Y-6649620D01*
X7375385Y-6632199D01*
X7390199Y-6617385D01*
X7407620Y-6605745D01*
X7426976Y-6597727D01*
X7447524Y-6593640D01*
X7468476Y-6593640D01*
X7489024Y-6597727D01*
G37*
G36*
X8759024Y-6597727D02*
G01*
X8778380Y-6605745D01*
X8795801Y-6617385D01*
X8810615Y-6632199D01*
X8822255Y-6649620D01*
X8830273Y-6668976D01*
X8834360Y-6689524D01*
X8834360Y-6710476D01*
X8830273Y-6731024D01*
X8822255Y-6750380D01*
X8810615Y-6767800D01*
X8795801Y-6782615D01*
X8778380Y-6794255D01*
X8759024Y-6802273D01*
X8738476Y-6806360D01*
X8717524Y-6806360D01*
X8696976Y-6802273D01*
X8677620Y-6794255D01*
X8660200Y-6782615D01*
X8645385Y-6767800D01*
X8633745Y-6750380D01*
X8625727Y-6731024D01*
X8621640Y-6710476D01*
X8621640Y-6689524D01*
X8625727Y-6668976D01*
X8633745Y-6649620D01*
X8645385Y-6632199D01*
X8660200Y-6617385D01*
X8677620Y-6605745D01*
X8696976Y-6597727D01*
X8717524Y-6593640D01*
X8738476Y-6593640D01*
X8759024Y-6597727D01*
G37*
G36*
X8505024Y-6597727D02*
G01*
X8524380Y-6605745D01*
X8541801Y-6617385D01*
X8556615Y-6632199D01*
X8568255Y-6649620D01*
X8576273Y-6668976D01*
X8580360Y-6689524D01*
X8580360Y-6710476D01*
X8576273Y-6731024D01*
X8568255Y-6750380D01*
X8556615Y-6767800D01*
X8541801Y-6782615D01*
X8524380Y-6794255D01*
X8505024Y-6802273D01*
X8484476Y-6806360D01*
X8463524Y-6806360D01*
X8442976Y-6802273D01*
X8423620Y-6794255D01*
X8406200Y-6782615D01*
X8391385Y-6767800D01*
X8379745Y-6750380D01*
X8371727Y-6731024D01*
X8367640Y-6710476D01*
X8367640Y-6689524D01*
X8371727Y-6668976D01*
X8379745Y-6649620D01*
X8391385Y-6632199D01*
X8406200Y-6617385D01*
X8423620Y-6605745D01*
X8442976Y-6597727D01*
X8463524Y-6593640D01*
X8484476Y-6593640D01*
X8505024Y-6597727D01*
G37*
G36*
X8251024Y-6597727D02*
G01*
X8270380Y-6605745D01*
X8287800Y-6617385D01*
X8302615Y-6632199D01*
X8314255Y-6649620D01*
X8322273Y-6668976D01*
X8326360Y-6689524D01*
X8326360Y-6710476D01*
X8322273Y-6731024D01*
X8314255Y-6750380D01*
X8302615Y-6767800D01*
X8287800Y-6782615D01*
X8270380Y-6794255D01*
X8251024Y-6802273D01*
X8230476Y-6806360D01*
X8209524Y-6806360D01*
X8188976Y-6802273D01*
X8169620Y-6794255D01*
X8152199Y-6782615D01*
X8137385Y-6767800D01*
X8125745Y-6750380D01*
X8117727Y-6731024D01*
X8113640Y-6710476D01*
X8113640Y-6689524D01*
X8117727Y-6668976D01*
X8125745Y-6649620D01*
X8137385Y-6632199D01*
X8152199Y-6617385D01*
X8169620Y-6605745D01*
X8188976Y-6597727D01*
X8209524Y-6593640D01*
X8230476Y-6593640D01*
X8251024Y-6597727D01*
G37*
G36*
X7997024Y-6597727D02*
G01*
X8016380Y-6605745D01*
X8033800Y-6617385D01*
X8048615Y-6632199D01*
X8060255Y-6649620D01*
X8068273Y-6668976D01*
X8072360Y-6689524D01*
X8072360Y-6710476D01*
X8068273Y-6731024D01*
X8060255Y-6750380D01*
X8048615Y-6767800D01*
X8033800Y-6782615D01*
X8016380Y-6794255D01*
X7997024Y-6802273D01*
X7976476Y-6806360D01*
X7955524Y-6806360D01*
X7934976Y-6802273D01*
X7915620Y-6794255D01*
X7898199Y-6782615D01*
X7883385Y-6767800D01*
X7871745Y-6750380D01*
X7863727Y-6731024D01*
X7859640Y-6710476D01*
X7859640Y-6689524D01*
X7863727Y-6668976D01*
X7871745Y-6649620D01*
X7883385Y-6632199D01*
X7898199Y-6617385D01*
X7915620Y-6605745D01*
X7934976Y-6597727D01*
X7955524Y-6593640D01*
X7976476Y-6593640D01*
X7997024Y-6597727D01*
G37*
G36*
X7743024Y-6597727D02*
G01*
X7762380Y-6605745D01*
X7779800Y-6617385D01*
X7794615Y-6632199D01*
X7806255Y-6649620D01*
X7814273Y-6668976D01*
X7818360Y-6689524D01*
X7818360Y-6710476D01*
X7814273Y-6731024D01*
X7806255Y-6750380D01*
X7794615Y-6767800D01*
X7779800Y-6782615D01*
X7762380Y-6794255D01*
X7743024Y-6802273D01*
X7722476Y-6806360D01*
X7701524Y-6806360D01*
X7680976Y-6802273D01*
X7661620Y-6794255D01*
X7644199Y-6782615D01*
X7629385Y-6767800D01*
X7617745Y-6750380D01*
X7609727Y-6731024D01*
X7605640Y-6710476D01*
X7605640Y-6689524D01*
X7609727Y-6668976D01*
X7617745Y-6649620D01*
X7629385Y-6632199D01*
X7644199Y-6617385D01*
X7661620Y-6605745D01*
X7680976Y-6597727D01*
X7701524Y-6593640D01*
X7722476Y-6593640D01*
X7743024Y-6597727D01*
G37*
G36*
X7235024Y-6597727D02*
G01*
X7254380Y-6605745D01*
X7271800Y-6617385D01*
X7286615Y-6632199D01*
X7298255Y-6649620D01*
X7306273Y-6668976D01*
X7310360Y-6689524D01*
X7310360Y-6710476D01*
X7306273Y-6731024D01*
X7298255Y-6750380D01*
X7286615Y-6767800D01*
X7271800Y-6782615D01*
X7254380Y-6794255D01*
X7235024Y-6802273D01*
X7214476Y-6806360D01*
X7193524Y-6806360D01*
X7172976Y-6802273D01*
X7153620Y-6794255D01*
X7136199Y-6782615D01*
X7121385Y-6767800D01*
X7109745Y-6750380D01*
X7101727Y-6731024D01*
X7097640Y-6710476D01*
X7097640Y-6689524D01*
X7101727Y-6668976D01*
X7109745Y-6649620D01*
X7121385Y-6632199D01*
X7136199Y-6617385D01*
X7153620Y-6605745D01*
X7172976Y-6597727D01*
X7193524Y-6593640D01*
X7214476Y-6593640D01*
X7235024Y-6597727D01*
G37*
G36*
X7056360Y-6806360D02*
G01*
X6843640Y-6806360D01*
X6843640Y-6593640D01*
X7056360Y-6593640D01*
X7056360Y-6806360D01*
G37*
G36*
X9013024Y-6597727D02*
G01*
X9032380Y-6605745D01*
X9049801Y-6617385D01*
X9064615Y-6632199D01*
X9076255Y-6649620D01*
X9084273Y-6668976D01*
X9088360Y-6689524D01*
X9088360Y-6710476D01*
X9084273Y-6731024D01*
X9076255Y-6750380D01*
X9064615Y-6767800D01*
X9049801Y-6782615D01*
X9032380Y-6794255D01*
X9013024Y-6802273D01*
X8992476Y-6806360D01*
X8971524Y-6806360D01*
X8950976Y-6802273D01*
X8931620Y-6794255D01*
X8914200Y-6782615D01*
X8899385Y-6767800D01*
X8887745Y-6750380D01*
X8879727Y-6731024D01*
X8875640Y-6710476D01*
X8875640Y-6689524D01*
X8879727Y-6668976D01*
X8887745Y-6649620D01*
X8899385Y-6632199D01*
X8914200Y-6617385D01*
X8931620Y-6605745D01*
X8950976Y-6597727D01*
X8971524Y-6593640D01*
X8992476Y-6593640D01*
X9013024Y-6597727D01*
G37*
G36*
X10029024Y-6597727D02*
G01*
X10048380Y-6605745D01*
X10065801Y-6617385D01*
X10080615Y-6632199D01*
X10092255Y-6649620D01*
X10100273Y-6668976D01*
X10104360Y-6689524D01*
X10104360Y-6710476D01*
X10100273Y-6731024D01*
X10092255Y-6750380D01*
X10080615Y-6767800D01*
X10065801Y-6782615D01*
X10048380Y-6794255D01*
X10029024Y-6802273D01*
X10008476Y-6806360D01*
X9987524Y-6806360D01*
X9966976Y-6802273D01*
X9947620Y-6794255D01*
X9930200Y-6782615D01*
X9915385Y-6767800D01*
X9903745Y-6750380D01*
X9895727Y-6731024D01*
X9891640Y-6710476D01*
X9891640Y-6689524D01*
X9895727Y-6668976D01*
X9903745Y-6649620D01*
X9915385Y-6632199D01*
X9930200Y-6617385D01*
X9947620Y-6605745D01*
X9966976Y-6597727D01*
X9987524Y-6593640D01*
X10008476Y-6593640D01*
X10029024Y-6597727D01*
G37*
G36*
X13022729Y-6502562D02*
G01*
X13029169Y-6503843D01*
X13047368Y-6511381D01*
X13063746Y-6522325D01*
X13077675Y-6536254D01*
X13088619Y-6552632D01*
X13096157Y-6570831D01*
X13100000Y-6590151D01*
X13100000Y-6609849D01*
X13096157Y-6629169D01*
X13088619Y-6647368D01*
X13077675Y-6663746D01*
X13063746Y-6677675D01*
X13047368Y-6688619D01*
X13029169Y-6696157D01*
X13022729Y-6697438D01*
X13009849Y-6700000D01*
X12990151Y-6700000D01*
X12977271Y-6697438D01*
X12970831Y-6696157D01*
X12952632Y-6688619D01*
X12936254Y-6677675D01*
X12922325Y-6663746D01*
X12911381Y-6647368D01*
X12903843Y-6629169D01*
X12900000Y-6609849D01*
X12900000Y-6590151D01*
X12903843Y-6570831D01*
X12911381Y-6552632D01*
X12922325Y-6536254D01*
X12936254Y-6522325D01*
X12952632Y-6511381D01*
X12970831Y-6503843D01*
X12977271Y-6502562D01*
X12990151Y-6500000D01*
X13009849Y-6500000D01*
X13022729Y-6502562D01*
G37*
G36*
X11807024Y-6343727D02*
G01*
X11826380Y-6351745D01*
X11843800Y-6363385D01*
X11858615Y-6378199D01*
X11870255Y-6395620D01*
X11878273Y-6414976D01*
X11882360Y-6435524D01*
X11882360Y-6456476D01*
X11878273Y-6477024D01*
X11870255Y-6496380D01*
X11858615Y-6513800D01*
X11843800Y-6528615D01*
X11826380Y-6540255D01*
X11807024Y-6548273D01*
X11786476Y-6552360D01*
X11765524Y-6552360D01*
X11744976Y-6548273D01*
X11725620Y-6540255D01*
X11708199Y-6528615D01*
X11693385Y-6513800D01*
X11681745Y-6496380D01*
X11673727Y-6477024D01*
X11669640Y-6456476D01*
X11669640Y-6435524D01*
X11673727Y-6414976D01*
X11681745Y-6395620D01*
X11693385Y-6378199D01*
X11708199Y-6363385D01*
X11725620Y-6351745D01*
X11744976Y-6343727D01*
X11765524Y-6339640D01*
X11786476Y-6339640D01*
X11807024Y-6343727D01*
G37*
G36*
X11553024Y-6343727D02*
G01*
X11572380Y-6351745D01*
X11589800Y-6363385D01*
X11604615Y-6378199D01*
X11616255Y-6395620D01*
X11624273Y-6414976D01*
X11628360Y-6435524D01*
X11628360Y-6456476D01*
X11624273Y-6477024D01*
X11616255Y-6496380D01*
X11604615Y-6513800D01*
X11589800Y-6528615D01*
X11572380Y-6540255D01*
X11553024Y-6548273D01*
X11532476Y-6552360D01*
X11511524Y-6552360D01*
X11490976Y-6548273D01*
X11471620Y-6540255D01*
X11454199Y-6528615D01*
X11439385Y-6513800D01*
X11427745Y-6496380D01*
X11419727Y-6477024D01*
X11415640Y-6456476D01*
X11415640Y-6435524D01*
X11419727Y-6414976D01*
X11427745Y-6395620D01*
X11439385Y-6378199D01*
X11454199Y-6363385D01*
X11471620Y-6351745D01*
X11490976Y-6343727D01*
X11511524Y-6339640D01*
X11532476Y-6339640D01*
X11553024Y-6343727D01*
G37*
G36*
X11299024Y-6343727D02*
G01*
X11318380Y-6351745D01*
X11335800Y-6363385D01*
X11350615Y-6378199D01*
X11362255Y-6395620D01*
X11370273Y-6414976D01*
X11374360Y-6435524D01*
X11374360Y-6456476D01*
X11370273Y-6477024D01*
X11362255Y-6496380D01*
X11350615Y-6513800D01*
X11335800Y-6528615D01*
X11318380Y-6540255D01*
X11299024Y-6548273D01*
X11278476Y-6552360D01*
X11257524Y-6552360D01*
X11236976Y-6548273D01*
X11217620Y-6540255D01*
X11200199Y-6528615D01*
X11185385Y-6513800D01*
X11173745Y-6496380D01*
X11165727Y-6477024D01*
X11161640Y-6456476D01*
X11161640Y-6435524D01*
X11165727Y-6414976D01*
X11173745Y-6395620D01*
X11185385Y-6378199D01*
X11200199Y-6363385D01*
X11217620Y-6351745D01*
X11236976Y-6343727D01*
X11257524Y-6339640D01*
X11278476Y-6339640D01*
X11299024Y-6343727D01*
G37*
G36*
X7235024Y-6343727D02*
G01*
X7254380Y-6351745D01*
X7271800Y-6363385D01*
X7286615Y-6378199D01*
X7298255Y-6395620D01*
X7306273Y-6414976D01*
X7310360Y-6435524D01*
X7310360Y-6456476D01*
X7306273Y-6477024D01*
X7298255Y-6496380D01*
X7286615Y-6513800D01*
X7271800Y-6528615D01*
X7254380Y-6540255D01*
X7235024Y-6548273D01*
X7214476Y-6552360D01*
X7193524Y-6552360D01*
X7172976Y-6548273D01*
X7153620Y-6540255D01*
X7136199Y-6528615D01*
X7121385Y-6513800D01*
X7109745Y-6496380D01*
X7101727Y-6477024D01*
X7097640Y-6456476D01*
X7097640Y-6435524D01*
X7101727Y-6414976D01*
X7109745Y-6395620D01*
X7121385Y-6378199D01*
X7136199Y-6363385D01*
X7153620Y-6351745D01*
X7172976Y-6343727D01*
X7193524Y-6339640D01*
X7214476Y-6339640D01*
X7235024Y-6343727D01*
G37*
G36*
X7489024Y-6343727D02*
G01*
X7508380Y-6351745D01*
X7525800Y-6363385D01*
X7540615Y-6378199D01*
X7552255Y-6395620D01*
X7560273Y-6414976D01*
X7564360Y-6435524D01*
X7564360Y-6456476D01*
X7560273Y-6477024D01*
X7552255Y-6496380D01*
X7540615Y-6513800D01*
X7525800Y-6528615D01*
X7508380Y-6540255D01*
X7489024Y-6548273D01*
X7468476Y-6552360D01*
X7447524Y-6552360D01*
X7426976Y-6548273D01*
X7407620Y-6540255D01*
X7390199Y-6528615D01*
X7375385Y-6513800D01*
X7363745Y-6496380D01*
X7355727Y-6477024D01*
X7351640Y-6456476D01*
X7351640Y-6435524D01*
X7355727Y-6414976D01*
X7363745Y-6395620D01*
X7375385Y-6378199D01*
X7390199Y-6363385D01*
X7407620Y-6351745D01*
X7426976Y-6343727D01*
X7447524Y-6339640D01*
X7468476Y-6339640D01*
X7489024Y-6343727D01*
G37*
G36*
X7743024Y-6343727D02*
G01*
X7762380Y-6351745D01*
X7779800Y-6363385D01*
X7794615Y-6378199D01*
X7806255Y-6395620D01*
X7814273Y-6414976D01*
X7818360Y-6435524D01*
X7818360Y-6456476D01*
X7814273Y-6477024D01*
X7806255Y-6496380D01*
X7794615Y-6513800D01*
X7779800Y-6528615D01*
X7762380Y-6540255D01*
X7743024Y-6548273D01*
X7722476Y-6552360D01*
X7701524Y-6552360D01*
X7680976Y-6548273D01*
X7661620Y-6540255D01*
X7644199Y-6528615D01*
X7629385Y-6513800D01*
X7617745Y-6496380D01*
X7609727Y-6477024D01*
X7605640Y-6456476D01*
X7605640Y-6435524D01*
X7609727Y-6414976D01*
X7617745Y-6395620D01*
X7629385Y-6378199D01*
X7644199Y-6363385D01*
X7661620Y-6351745D01*
X7680976Y-6343727D01*
X7701524Y-6339640D01*
X7722476Y-6339640D01*
X7743024Y-6343727D01*
G37*
G36*
X7997024Y-6343727D02*
G01*
X8016380Y-6351745D01*
X8033800Y-6363385D01*
X8048615Y-6378199D01*
X8060255Y-6395620D01*
X8068273Y-6414976D01*
X8072360Y-6435524D01*
X8072360Y-6456476D01*
X8068273Y-6477024D01*
X8060255Y-6496380D01*
X8048615Y-6513800D01*
X8033800Y-6528615D01*
X8016380Y-6540255D01*
X7997024Y-6548273D01*
X7976476Y-6552360D01*
X7955524Y-6552360D01*
X7934976Y-6548273D01*
X7915620Y-6540255D01*
X7898199Y-6528615D01*
X7883385Y-6513800D01*
X7871745Y-6496380D01*
X7863727Y-6477024D01*
X7859640Y-6456476D01*
X7859640Y-6435524D01*
X7863727Y-6414976D01*
X7871745Y-6395620D01*
X7883385Y-6378199D01*
X7898199Y-6363385D01*
X7915620Y-6351745D01*
X7934976Y-6343727D01*
X7955524Y-6339640D01*
X7976476Y-6339640D01*
X7997024Y-6343727D01*
G37*
G36*
X8251024Y-6343727D02*
G01*
X8270380Y-6351745D01*
X8287800Y-6363385D01*
X8302615Y-6378199D01*
X8314255Y-6395620D01*
X8322273Y-6414976D01*
X8326360Y-6435524D01*
X8326360Y-6456476D01*
X8322273Y-6477024D01*
X8314255Y-6496380D01*
X8302615Y-6513800D01*
X8287800Y-6528615D01*
X8270380Y-6540255D01*
X8251024Y-6548273D01*
X8230476Y-6552360D01*
X8209524Y-6552360D01*
X8188976Y-6548273D01*
X8169620Y-6540255D01*
X8152199Y-6528615D01*
X8137385Y-6513800D01*
X8125745Y-6496380D01*
X8117727Y-6477024D01*
X8113640Y-6456476D01*
X8113640Y-6435524D01*
X8117727Y-6414976D01*
X8125745Y-6395620D01*
X8137385Y-6378199D01*
X8152199Y-6363385D01*
X8169620Y-6351745D01*
X8188976Y-6343727D01*
X8209524Y-6339640D01*
X8230476Y-6339640D01*
X8251024Y-6343727D01*
G37*
G36*
X8505024Y-6343727D02*
G01*
X8524380Y-6351745D01*
X8541801Y-6363385D01*
X8556615Y-6378199D01*
X8568255Y-6395620D01*
X8576273Y-6414976D01*
X8580360Y-6435524D01*
X8580360Y-6456476D01*
X8576273Y-6477024D01*
X8568255Y-6496380D01*
X8556615Y-6513800D01*
X8541801Y-6528615D01*
X8524380Y-6540255D01*
X8505024Y-6548273D01*
X8484476Y-6552360D01*
X8463524Y-6552360D01*
X8442976Y-6548273D01*
X8423620Y-6540255D01*
X8406200Y-6528615D01*
X8391385Y-6513800D01*
X8379745Y-6496380D01*
X8371727Y-6477024D01*
X8367640Y-6456476D01*
X8367640Y-6435524D01*
X8371727Y-6414976D01*
X8379745Y-6395620D01*
X8391385Y-6378199D01*
X8406200Y-6363385D01*
X8423620Y-6351745D01*
X8442976Y-6343727D01*
X8463524Y-6339640D01*
X8484476Y-6339640D01*
X8505024Y-6343727D01*
G37*
G36*
X8759024Y-6343727D02*
G01*
X8778380Y-6351745D01*
X8795801Y-6363385D01*
X8810615Y-6378199D01*
X8822255Y-6395620D01*
X8830273Y-6414976D01*
X8834360Y-6435524D01*
X8834360Y-6456476D01*
X8830273Y-6477024D01*
X8822255Y-6496380D01*
X8810615Y-6513800D01*
X8795801Y-6528615D01*
X8778380Y-6540255D01*
X8759024Y-6548273D01*
X8738476Y-6552360D01*
X8717524Y-6552360D01*
X8696976Y-6548273D01*
X8677620Y-6540255D01*
X8660200Y-6528615D01*
X8645385Y-6513800D01*
X8633745Y-6496380D01*
X8625727Y-6477024D01*
X8621640Y-6456476D01*
X8621640Y-6435524D01*
X8625727Y-6414976D01*
X8633745Y-6395620D01*
X8645385Y-6378199D01*
X8660200Y-6363385D01*
X8677620Y-6351745D01*
X8696976Y-6343727D01*
X8717524Y-6339640D01*
X8738476Y-6339640D01*
X8759024Y-6343727D01*
G37*
G36*
X6981024Y-6343727D02*
G01*
X7000380Y-6351745D01*
X7017800Y-6363385D01*
X7032615Y-6378199D01*
X7044255Y-6395620D01*
X7052273Y-6414976D01*
X7056360Y-6435524D01*
X7056360Y-6456476D01*
X7052273Y-6477024D01*
X7044255Y-6496380D01*
X7032615Y-6513800D01*
X7017800Y-6528615D01*
X7000380Y-6540255D01*
X6981024Y-6548273D01*
X6960476Y-6552360D01*
X6939524Y-6552360D01*
X6918976Y-6548273D01*
X6899620Y-6540255D01*
X6882199Y-6528615D01*
X6867385Y-6513800D01*
X6855745Y-6496380D01*
X6847727Y-6477024D01*
X6843640Y-6456476D01*
X6843640Y-6435524D01*
X6847727Y-6414976D01*
X6855745Y-6395620D01*
X6867385Y-6378199D01*
X6882199Y-6363385D01*
X6899620Y-6351745D01*
X6918976Y-6343727D01*
X6939524Y-6339640D01*
X6960476Y-6339640D01*
X6981024Y-6343727D01*
G37*
G36*
X9267024Y-6343727D02*
G01*
X9286380Y-6351745D01*
X9303801Y-6363385D01*
X9318615Y-6378199D01*
X9330255Y-6395620D01*
X9338273Y-6414976D01*
X9342360Y-6435524D01*
X9342360Y-6456476D01*
X9338273Y-6477024D01*
X9330255Y-6496380D01*
X9318615Y-6513800D01*
X9303801Y-6528615D01*
X9286380Y-6540255D01*
X9267024Y-6548273D01*
X9246476Y-6552360D01*
X9225524Y-6552360D01*
X9204976Y-6548273D01*
X9185620Y-6540255D01*
X9168200Y-6528615D01*
X9153385Y-6513800D01*
X9141745Y-6496380D01*
X9133727Y-6477024D01*
X9129640Y-6456476D01*
X9129640Y-6435524D01*
X9133727Y-6414976D01*
X9141745Y-6395620D01*
X9153385Y-6378199D01*
X9168200Y-6363385D01*
X9185620Y-6351745D01*
X9204976Y-6343727D01*
X9225524Y-6339640D01*
X9246476Y-6339640D01*
X9267024Y-6343727D01*
G37*
G36*
X9521024Y-6343727D02*
G01*
X9540380Y-6351745D01*
X9557801Y-6363385D01*
X9572615Y-6378199D01*
X9584255Y-6395620D01*
X9592273Y-6414976D01*
X9596360Y-6435524D01*
X9596360Y-6456476D01*
X9592273Y-6477024D01*
X9584255Y-6496380D01*
X9572615Y-6513800D01*
X9557801Y-6528615D01*
X9540380Y-6540255D01*
X9521024Y-6548273D01*
X9500476Y-6552360D01*
X9479524Y-6552360D01*
X9458976Y-6548273D01*
X9439620Y-6540255D01*
X9422200Y-6528615D01*
X9407385Y-6513800D01*
X9395745Y-6496380D01*
X9387727Y-6477024D01*
X9383640Y-6456476D01*
X9383640Y-6435524D01*
X9387727Y-6414976D01*
X9395745Y-6395620D01*
X9407385Y-6378199D01*
X9422200Y-6363385D01*
X9439620Y-6351745D01*
X9458976Y-6343727D01*
X9479524Y-6339640D01*
X9500476Y-6339640D01*
X9521024Y-6343727D01*
G37*
G36*
X9775024Y-6343727D02*
G01*
X9794380Y-6351745D01*
X9811801Y-6363385D01*
X9826615Y-6378199D01*
X9838255Y-6395620D01*
X9846273Y-6414976D01*
X9850360Y-6435524D01*
X9850360Y-6456476D01*
X9846273Y-6477024D01*
X9838255Y-6496380D01*
X9826615Y-6513800D01*
X9811801Y-6528615D01*
X9794380Y-6540255D01*
X9775024Y-6548273D01*
X9754476Y-6552360D01*
X9733524Y-6552360D01*
X9712976Y-6548273D01*
X9693620Y-6540255D01*
X9676200Y-6528615D01*
X9661385Y-6513800D01*
X9649745Y-6496380D01*
X9641727Y-6477024D01*
X9637640Y-6456476D01*
X9637640Y-6435524D01*
X9641727Y-6414976D01*
X9649745Y-6395620D01*
X9661385Y-6378199D01*
X9676200Y-6363385D01*
X9693620Y-6351745D01*
X9712976Y-6343727D01*
X9733524Y-6339640D01*
X9754476Y-6339640D01*
X9775024Y-6343727D01*
G37*
G36*
X11045024Y-6343727D02*
G01*
X11064380Y-6351745D01*
X11081801Y-6363385D01*
X11096615Y-6378199D01*
X11108255Y-6395620D01*
X11116273Y-6414976D01*
X11120360Y-6435524D01*
X11120360Y-6456476D01*
X11116273Y-6477024D01*
X11108255Y-6496380D01*
X11096615Y-6513800D01*
X11081801Y-6528615D01*
X11064380Y-6540255D01*
X11045024Y-6548273D01*
X11024476Y-6552360D01*
X11003524Y-6552360D01*
X10982976Y-6548273D01*
X10963620Y-6540255D01*
X10946200Y-6528615D01*
X10931385Y-6513800D01*
X10919745Y-6496380D01*
X10911727Y-6477024D01*
X10907640Y-6456476D01*
X10907640Y-6435524D01*
X10911727Y-6414976D01*
X10919745Y-6395620D01*
X10931385Y-6378199D01*
X10946200Y-6363385D01*
X10963620Y-6351745D01*
X10982976Y-6343727D01*
X11003524Y-6339640D01*
X11024476Y-6339640D01*
X11045024Y-6343727D01*
G37*
G36*
X10029024Y-6343727D02*
G01*
X10048380Y-6351745D01*
X10065801Y-6363385D01*
X10080615Y-6378199D01*
X10092255Y-6395620D01*
X10100273Y-6414976D01*
X10104360Y-6435524D01*
X10104360Y-6456476D01*
X10100273Y-6477024D01*
X10092255Y-6496380D01*
X10080615Y-6513800D01*
X10065801Y-6528615D01*
X10048380Y-6540255D01*
X10029024Y-6548273D01*
X10008476Y-6552360D01*
X9987524Y-6552360D01*
X9966976Y-6548273D01*
X9947620Y-6540255D01*
X9930200Y-6528615D01*
X9915385Y-6513800D01*
X9903745Y-6496380D01*
X9895727Y-6477024D01*
X9891640Y-6456476D01*
X9891640Y-6435524D01*
X9895727Y-6414976D01*
X9903745Y-6395620D01*
X9915385Y-6378199D01*
X9930200Y-6363385D01*
X9947620Y-6351745D01*
X9966976Y-6343727D01*
X9987524Y-6339640D01*
X10008476Y-6339640D01*
X10029024Y-6343727D01*
G37*
G36*
X10791024Y-6343727D02*
G01*
X10810380Y-6351745D01*
X10827801Y-6363385D01*
X10842615Y-6378199D01*
X10854255Y-6395620D01*
X10862273Y-6414976D01*
X10866360Y-6435524D01*
X10866360Y-6456476D01*
X10862273Y-6477024D01*
X10854255Y-6496380D01*
X10842615Y-6513800D01*
X10827801Y-6528615D01*
X10810380Y-6540255D01*
X10791024Y-6548273D01*
X10770476Y-6552360D01*
X10749524Y-6552360D01*
X10728976Y-6548273D01*
X10709620Y-6540255D01*
X10692200Y-6528615D01*
X10677385Y-6513800D01*
X10665745Y-6496380D01*
X10657727Y-6477024D01*
X10653640Y-6456476D01*
X10653640Y-6435524D01*
X10657727Y-6414976D01*
X10665745Y-6395620D01*
X10677385Y-6378199D01*
X10692200Y-6363385D01*
X10709620Y-6351745D01*
X10728976Y-6343727D01*
X10749524Y-6339640D01*
X10770476Y-6339640D01*
X10791024Y-6343727D01*
G37*
G36*
X10283024Y-6343727D02*
G01*
X10302380Y-6351745D01*
X10319801Y-6363385D01*
X10334615Y-6378199D01*
X10346255Y-6395620D01*
X10354273Y-6414976D01*
X10358360Y-6435524D01*
X10358360Y-6456476D01*
X10354273Y-6477024D01*
X10346255Y-6496380D01*
X10334615Y-6513800D01*
X10319801Y-6528615D01*
X10302380Y-6540255D01*
X10283024Y-6548273D01*
X10262476Y-6552360D01*
X10241524Y-6552360D01*
X10220976Y-6548273D01*
X10201620Y-6540255D01*
X10184200Y-6528615D01*
X10169385Y-6513800D01*
X10157745Y-6496380D01*
X10149727Y-6477024D01*
X10145640Y-6456476D01*
X10145640Y-6435524D01*
X10149727Y-6414976D01*
X10157745Y-6395620D01*
X10169385Y-6378199D01*
X10184200Y-6363385D01*
X10201620Y-6351745D01*
X10220976Y-6343727D01*
X10241524Y-6339640D01*
X10262476Y-6339640D01*
X10283024Y-6343727D01*
G37*
G36*
X10537024Y-6343727D02*
G01*
X10556380Y-6351745D01*
X10573801Y-6363385D01*
X10588615Y-6378199D01*
X10600255Y-6395620D01*
X10608273Y-6414976D01*
X10612360Y-6435524D01*
X10612360Y-6456476D01*
X10608273Y-6477024D01*
X10600255Y-6496380D01*
X10588615Y-6513800D01*
X10573801Y-6528615D01*
X10556380Y-6540255D01*
X10537024Y-6548273D01*
X10516476Y-6552360D01*
X10495524Y-6552360D01*
X10474976Y-6548273D01*
X10455620Y-6540255D01*
X10438200Y-6528615D01*
X10423385Y-6513800D01*
X10411745Y-6496380D01*
X10403727Y-6477024D01*
X10399640Y-6456476D01*
X10399640Y-6435524D01*
X10403727Y-6414976D01*
X10411745Y-6395620D01*
X10423385Y-6378199D01*
X10438200Y-6363385D01*
X10455620Y-6351745D01*
X10474976Y-6343727D01*
X10495524Y-6339640D01*
X10516476Y-6339640D01*
X10537024Y-6343727D01*
G37*
G36*
X9013024Y-6343727D02*
G01*
X9032380Y-6351745D01*
X9049801Y-6363385D01*
X9064615Y-6378199D01*
X9076255Y-6395620D01*
X9084273Y-6414976D01*
X9088360Y-6435524D01*
X9088360Y-6456476D01*
X9084273Y-6477024D01*
X9076255Y-6496380D01*
X9064615Y-6513800D01*
X9049801Y-6528615D01*
X9032380Y-6540255D01*
X9013024Y-6548273D01*
X8992476Y-6552360D01*
X8971524Y-6552360D01*
X8950976Y-6548273D01*
X8931620Y-6540255D01*
X8914200Y-6528615D01*
X8899385Y-6513800D01*
X8887745Y-6496380D01*
X8879727Y-6477024D01*
X8875640Y-6456476D01*
X8875640Y-6435524D01*
X8879727Y-6414976D01*
X8887745Y-6395620D01*
X8899385Y-6378199D01*
X8914200Y-6363385D01*
X8931620Y-6351745D01*
X8950976Y-6343727D01*
X8971524Y-6339640D01*
X8992476Y-6339640D01*
X9013024Y-6343727D01*
G37*
M02*
